#VRML V2.0 utf8
Transform { children [
Shape { appearance Appearance { material Material { diffuseColor 0.040 0.220 0.620 specularColor 0.20 0.20 0.20 shininess 0.30 } } geometry IndexedFaceSet { solid FALSE coord Coordinate { point [ -5.0394 -6.7323 4.3307, 5.0394 -6.7323 4.3307, 5.0394 6.7323 4.3307, -5.0394 6.7323 4.3307, -5.0394 -6.7323 4.8031, 5.0394 -6.7323 4.8031, 5.0394 6.7323 4.8031, -5.0394 6.7323 4.8031 ] } coordIndex [ 0, 3, 2, 1, -1, 4, 5, 6, 7, -1, 0, 1, 5, 4, -1, 1, 2, 6, 5, -1, 2, 3, 7, 6, -1, 3, 0, 4, 7, -1 ] } },
Shape { appearance Appearance { material Material { diffuseColor 0.080 0.080 0.080 specularColor 0.25 0.25 0.25 shininess 0.30 } } geometry IndexedFaceSet { solid FALSE coord Coordinate { point [ -4.9921 -3.9961 3.3465, -4.0079 -3.9961 3.3465, -4.0079 3.9961 3.3465, -4.9921 3.9961 3.3465, -4.9921 -3.9961 4.3307, -4.0079 -3.9961 4.3307, -4.0079 3.9961 4.3307, -4.9921 3.9961 4.3307 ] } coordIndex [ 0, 3, 2, 1, -1, 4, 5, 6, 7, -1, 0, 1, 5, 4, -1, 1, 2, 6, 5, -1, 2, 3, 7, 6, -1, 3, 0, 4, 7, -1 ] } },
Shape { appearance Appearance { material Material { diffuseColor 0.080 0.080 0.080 specularColor 0.25 0.25 0.25 shininess 0.30 } } geometry IndexedFaceSet { solid FALSE coord Coordinate { point [ 4.0079 -3.9961 3.3465, 4.9921 -3.9961 3.3465, 4.9921 3.9961 3.3465, 4.0079 3.9961 3.3465, 4.0079 -3.9961 4.3307, 4.9921 -3.9961 4.3307, 4.9921 3.9961 4.3307, 4.0079 3.9961 4.3307 ] } coordIndex [ 0, 3, 2, 1, -1, 4, 5, 6, 7, -1, 0, 1, 5, 4, -1, 1, 2, 6, 5, -1, 2, 3, 7, 6, -1, 3, 0, 4, 7, -1 ] } },
Shape { appearance Appearance { material Material { diffuseColor 0.720 0.720 0.700 specularColor 0.80 0.80 0.80 shininess 0.30 } } geometry IndexedFaceSet { solid FALSE coord Coordinate { point [ -4.1260 3.5000 4.8031, -4.1260 3.5000 4.9803, -4.1761 3.6870 4.8031, -4.1761 3.6870 4.9803, -4.3130 3.8239 4.8031, -4.3130 3.8239 4.9803, -4.5000 3.8740 4.8031, -4.5000 3.8740 4.9803, -4.6870 3.8239 4.8031, -4.6870 3.8239 4.9803, -4.8239 3.6870 4.8031, -4.8239 3.6870 4.9803, -4.8740 3.5000 4.8031, -4.8740 3.5000 4.9803, -4.8239 3.3130 4.8031, -4.8239 3.3130 4.9803, -4.6870 3.1761 4.8031, -4.6870 3.1761 4.9803, -4.5000 3.1260 4.8031, -4.5000 3.1260 4.9803, -4.3130 3.1761 4.8031, -4.3130 3.1761 4.9803, -4.1761 3.3130 4.8031, -4.1761 3.3130 4.9803 ] } coordIndex [ 0, 2, 3, 1, -1, 2, 4, 5, 3, -1, 4, 6, 7, 5, -1, 6, 8, 9, 7, -1, 8, 10, 11, 9, -1, 10, 12, 13, 11, -1, 12, 14, 15, 13, -1, 14, 16, 17, 15, -1, 16, 18, 19, 17, -1, 18, 20, 21, 19, -1, 20, 22, 23, 21, -1, 22, 0, 1, 23, -1, 22, 20, 18, 16, 14, 12, 10, 8, 6, 4, 2, 0, -1, 1, 3, 5, 7, 9, 11, 13, 15, 17, 19, 21, 23, -1 ] } },
Shape { appearance Appearance { material Material { diffuseColor 0.830 0.680 0.280 specularColor 0.70 0.70 0.70 shininess 0.30 } } geometry IndexedFaceSet { solid FALSE coord Coordinate { point [ -4.6260 3.3740 4.8031, -4.3740 3.3740 4.8031, -4.3740 3.6260 4.8031, -4.6260 3.6260 4.8031, -4.6260 3.3740 5.6693, -4.3740 3.3740 5.6693, -4.3740 3.6260 5.6693, -4.6260 3.6260 5.6693 ] } coordIndex [ 0, 3, 2, 1, -1, 4, 5, 6, 7, -1, 0, 1, 5, 4, -1, 1, 2, 6, 5, -1, 2, 3, 7, 6, -1, 3, 0, 4, 7, -1 ] } },
Shape { appearance Appearance { material Material { diffuseColor 0.720 0.720 0.700 specularColor 0.80 0.80 0.80 shininess 0.30 } } geometry IndexedFaceSet { solid FALSE coord Coordinate { point [ -4.1260 2.5000 4.8031, -4.1260 2.5000 4.9803, -4.1761 2.6870 4.8031, -4.1761 2.6870 4.9803, -4.3130 2.8239 4.8031, -4.3130 2.8239 4.9803, -4.5000 2.8740 4.8031, -4.5000 2.8740 4.9803, -4.6870 2.8239 4.8031, -4.6870 2.8239 4.9803, -4.8239 2.6870 4.8031, -4.8239 2.6870 4.9803, -4.8740 2.5000 4.8031, -4.8740 2.5000 4.9803, -4.8239 2.3130 4.8031, -4.8239 2.3130 4.9803, -4.6870 2.1761 4.8031, -4.6870 2.1761 4.9803, -4.5000 2.1260 4.8031, -4.5000 2.1260 4.9803, -4.3130 2.1761 4.8031, -4.3130 2.1761 4.9803, -4.1761 2.3130 4.8031, -4.1761 2.3130 4.9803 ] } coordIndex [ 0, 2, 3, 1, -1, 2, 4, 5, 3, -1, 4, 6, 7, 5, -1, 6, 8, 9, 7, -1, 8, 10, 11, 9, -1, 10, 12, 13, 11, -1, 12, 14, 15, 13, -1, 14, 16, 17, 15, -1, 16, 18, 19, 17, -1, 18, 20, 21, 19, -1, 20, 22, 23, 21, -1, 22, 0, 1, 23, -1, 22, 20, 18, 16, 14, 12, 10, 8, 6, 4, 2, 0, -1, 1, 3, 5, 7, 9, 11, 13, 15, 17, 19, 21, 23, -1 ] } },
Shape { appearance Appearance { material Material { diffuseColor 0.830 0.680 0.280 specularColor 0.70 0.70 0.70 shininess 0.30 } } geometry IndexedFaceSet { solid FALSE coord Coordinate { point [ -4.6260 2.3740 4.8031, -4.3740 2.3740 4.8031, -4.3740 2.6260 4.8031, -4.6260 2.6260 4.8031, -4.6260 2.3740 5.6693, -4.3740 2.3740 5.6693, -4.3740 2.6260 5.6693, -4.6260 2.6260 5.6693 ] } coordIndex [ 0, 3, 2, 1, -1, 4, 5, 6, 7, -1, 0, 1, 5, 4, -1, 1, 2, 6, 5, -1, 2, 3, 7, 6, -1, 3, 0, 4, 7, -1 ] } },
Shape { appearance Appearance { material Material { diffuseColor 0.720 0.720 0.700 specularColor 0.80 0.80 0.80 shininess 0.30 } } geometry IndexedFaceSet { solid FALSE coord Coordinate { point [ -4.1260 1.5000 4.8031, -4.1260 1.5000 4.9803, -4.1761 1.6870 4.8031, -4.1761 1.6870 4.9803, -4.3130 1.8239 4.8031, -4.3130 1.8239 4.9803, -4.5000 1.8740 4.8031, -4.5000 1.8740 4.9803, -4.6870 1.8239 4.8031, -4.6870 1.8239 4.9803, -4.8239 1.6870 4.8031, -4.8239 1.6870 4.9803, -4.8740 1.5000 4.8031, -4.8740 1.5000 4.9803, -4.8239 1.3130 4.8031, -4.8239 1.3130 4.9803, -4.6870 1.1761 4.8031, -4.6870 1.1761 4.9803, -4.5000 1.1260 4.8031, -4.5000 1.1260 4.9803, -4.3130 1.1761 4.8031, -4.3130 1.1761 4.9803, -4.1761 1.3130 4.8031, -4.1761 1.3130 4.9803 ] } coordIndex [ 0, 2, 3, 1, -1, 2, 4, 5, 3, -1, 4, 6, 7, 5, -1, 6, 8, 9, 7, -1, 8, 10, 11, 9, -1, 10, 12, 13, 11, -1, 12, 14, 15, 13, -1, 14, 16, 17, 15, -1, 16, 18, 19, 17, -1, 18, 20, 21, 19, -1, 20, 22, 23, 21, -1, 22, 0, 1, 23, -1, 22, 20, 18, 16, 14, 12, 10, 8, 6, 4, 2, 0, -1, 1, 3, 5, 7, 9, 11, 13, 15, 17, 19, 21, 23, -1 ] } },
Shape { appearance Appearance { material Material { diffuseColor 0.830 0.680 0.280 specularColor 0.70 0.70 0.70 shininess 0.30 } } geometry IndexedFaceSet { solid FALSE coord Coordinate { point [ -4.6260 1.3740 4.8031, -4.3740 1.3740 4.8031, -4.3740 1.6260 4.8031, -4.6260 1.6260 4.8031, -4.6260 1.3740 5.6693, -4.3740 1.3740 5.6693, -4.3740 1.6260 5.6693, -4.6260 1.6260 5.6693 ] } coordIndex [ 0, 3, 2, 1, -1, 4, 5, 6, 7, -1, 0, 1, 5, 4, -1, 1, 2, 6, 5, -1, 2, 3, 7, 6, -1, 3, 0, 4, 7, -1 ] } },
Shape { appearance Appearance { material Material { diffuseColor 0.720 0.720 0.700 specularColor 0.80 0.80 0.80 shininess 0.30 } } geometry IndexedFaceSet { solid FALSE coord Coordinate { point [ -4.1260 0.5000 4.8031, -4.1260 0.5000 4.9803, -4.1761 0.6870 4.8031, -4.1761 0.6870 4.9803, -4.3130 0.8239 4.8031, -4.3130 0.8239 4.9803, -4.5000 0.8740 4.8031, -4.5000 0.8740 4.9803, -4.6870 0.8239 4.8031, -4.6870 0.8239 4.9803, -4.8239 0.6870 4.8031, -4.8239 0.6870 4.9803, -4.8740 0.5000 4.8031, -4.8740 0.5000 4.9803, -4.8239 0.3130 4.8031, -4.8239 0.3130 4.9803, -4.6870 0.1761 4.8031, -4.6870 0.1761 4.9803, -4.5000 0.1260 4.8031, -4.5000 0.1260 4.9803, -4.3130 0.1761 4.8031, -4.3130 0.1761 4.9803, -4.1761 0.3130 4.8031, -4.1761 0.3130 4.9803 ] } coordIndex [ 0, 2, 3, 1, -1, 2, 4, 5, 3, -1, 4, 6, 7, 5, -1, 6, 8, 9, 7, -1, 8, 10, 11, 9, -1, 10, 12, 13, 11, -1, 12, 14, 15, 13, -1, 14, 16, 17, 15, -1, 16, 18, 19, 17, -1, 18, 20, 21, 19, -1, 20, 22, 23, 21, -1, 22, 0, 1, 23, -1, 22, 20, 18, 16, 14, 12, 10, 8, 6, 4, 2, 0, -1, 1, 3, 5, 7, 9, 11, 13, 15, 17, 19, 21, 23, -1 ] } },
Shape { appearance Appearance { material Material { diffuseColor 0.830 0.680 0.280 specularColor 0.70 0.70 0.70 shininess 0.30 } } geometry IndexedFaceSet { solid FALSE coord Coordinate { point [ -4.6260 0.3740 4.8031, -4.3740 0.3740 4.8031, -4.3740 0.6260 4.8031, -4.6260 0.6260 4.8031, -4.6260 0.3740 5.6693, -4.3740 0.3740 5.6693, -4.3740 0.6260 5.6693, -4.6260 0.6260 5.6693 ] } coordIndex [ 0, 3, 2, 1, -1, 4, 5, 6, 7, -1, 0, 1, 5, 4, -1, 1, 2, 6, 5, -1, 2, 3, 7, 6, -1, 3, 0, 4, 7, -1 ] } },
Shape { appearance Appearance { material Material { diffuseColor 0.720 0.720 0.700 specularColor 0.80 0.80 0.80 shininess 0.30 } } geometry IndexedFaceSet { solid FALSE coord Coordinate { point [ -4.1260 -0.5000 4.8031, -4.1260 -0.5000 4.9803, -4.1761 -0.3130 4.8031, -4.1761 -0.3130 4.9803, -4.3130 -0.1761 4.8031, -4.3130 -0.1761 4.9803, -4.5000 -0.1260 4.8031, -4.5000 -0.1260 4.9803, -4.6870 -0.1761 4.8031, -4.6870 -0.1761 4.9803, -4.8239 -0.3130 4.8031, -4.8239 -0.3130 4.9803, -4.8740 -0.5000 4.8031, -4.8740 -0.5000 4.9803, -4.8239 -0.6870 4.8031, -4.8239 -0.6870 4.9803, -4.6870 -0.8239 4.8031, -4.6870 -0.8239 4.9803, -4.5000 -0.8740 4.8031, -4.5000 -0.8740 4.9803, -4.3130 -0.8239 4.8031, -4.3130 -0.8239 4.9803, -4.1761 -0.6870 4.8031, -4.1761 -0.6870 4.9803 ] } coordIndex [ 0, 2, 3, 1, -1, 2, 4, 5, 3, -1, 4, 6, 7, 5, -1, 6, 8, 9, 7, -1, 8, 10, 11, 9, -1, 10, 12, 13, 11, -1, 12, 14, 15, 13, -1, 14, 16, 17, 15, -1, 16, 18, 19, 17, -1, 18, 20, 21, 19, -1, 20, 22, 23, 21, -1, 22, 0, 1, 23, -1, 22, 20, 18, 16, 14, 12, 10, 8, 6, 4, 2, 0, -1, 1, 3, 5, 7, 9, 11, 13, 15, 17, 19, 21, 23, -1 ] } },
Shape { appearance Appearance { material Material { diffuseColor 0.830 0.680 0.280 specularColor 0.70 0.70 0.70 shininess 0.30 } } geometry IndexedFaceSet { solid FALSE coord Coordinate { point [ -4.6260 -0.6260 4.8031, -4.3740 -0.6260 4.8031, -4.3740 -0.3740 4.8031, -4.6260 -0.3740 4.8031, -4.6260 -0.6260 5.6693, -4.3740 -0.6260 5.6693, -4.3740 -0.3740 5.6693, -4.6260 -0.3740 5.6693 ] } coordIndex [ 0, 3, 2, 1, -1, 4, 5, 6, 7, -1, 0, 1, 5, 4, -1, 1, 2, 6, 5, -1, 2, 3, 7, 6, -1, 3, 0, 4, 7, -1 ] } },
Shape { appearance Appearance { material Material { diffuseColor 0.720 0.720 0.700 specularColor 0.80 0.80 0.80 shininess 0.30 } } geometry IndexedFaceSet { solid FALSE coord Coordinate { point [ -4.1260 -1.5000 4.8031, -4.1260 -1.5000 4.9803, -4.1761 -1.3130 4.8031, -4.1761 -1.3130 4.9803, -4.3130 -1.1761 4.8031, -4.3130 -1.1761 4.9803, -4.5000 -1.1260 4.8031, -4.5000 -1.1260 4.9803, -4.6870 -1.1761 4.8031, -4.6870 -1.1761 4.9803, -4.8239 -1.3130 4.8031, -4.8239 -1.3130 4.9803, -4.8740 -1.5000 4.8031, -4.8740 -1.5000 4.9803, -4.8239 -1.6870 4.8031, -4.8239 -1.6870 4.9803, -4.6870 -1.8239 4.8031, -4.6870 -1.8239 4.9803, -4.5000 -1.8740 4.8031, -4.5000 -1.8740 4.9803, -4.3130 -1.8239 4.8031, -4.3130 -1.8239 4.9803, -4.1761 -1.6870 4.8031, -4.1761 -1.6870 4.9803 ] } coordIndex [ 0, 2, 3, 1, -1, 2, 4, 5, 3, -1, 4, 6, 7, 5, -1, 6, 8, 9, 7, -1, 8, 10, 11, 9, -1, 10, 12, 13, 11, -1, 12, 14, 15, 13, -1, 14, 16, 17, 15, -1, 16, 18, 19, 17, -1, 18, 20, 21, 19, -1, 20, 22, 23, 21, -1, 22, 0, 1, 23, -1, 22, 20, 18, 16, 14, 12, 10, 8, 6, 4, 2, 0, -1, 1, 3, 5, 7, 9, 11, 13, 15, 17, 19, 21, 23, -1 ] } },
Shape { appearance Appearance { material Material { diffuseColor 0.830 0.680 0.280 specularColor 0.70 0.70 0.70 shininess 0.30 } } geometry IndexedFaceSet { solid FALSE coord Coordinate { point [ -4.6260 -1.6260 4.8031, -4.3740 -1.6260 4.8031, -4.3740 -1.3740 4.8031, -4.6260 -1.3740 4.8031, -4.6260 -1.6260 5.6693, -4.3740 -1.6260 5.6693, -4.3740 -1.3740 5.6693, -4.6260 -1.3740 5.6693 ] } coordIndex [ 0, 3, 2, 1, -1, 4, 5, 6, 7, -1, 0, 1, 5, 4, -1, 1, 2, 6, 5, -1, 2, 3, 7, 6, -1, 3, 0, 4, 7, -1 ] } },
Shape { appearance Appearance { material Material { diffuseColor 0.720 0.720 0.700 specularColor 0.80 0.80 0.80 shininess 0.30 } } geometry IndexedFaceSet { solid FALSE coord Coordinate { point [ -4.1260 -2.5000 4.8031, -4.1260 -2.5000 4.9803, -4.1761 -2.3130 4.8031, -4.1761 -2.3130 4.9803, -4.3130 -2.1761 4.8031, -4.3130 -2.1761 4.9803, -4.5000 -2.1260 4.8031, -4.5000 -2.1260 4.9803, -4.6870 -2.1761 4.8031, -4.6870 -2.1761 4.9803, -4.8239 -2.3130 4.8031, -4.8239 -2.3130 4.9803, -4.8740 -2.5000 4.8031, -4.8740 -2.5000 4.9803, -4.8239 -2.6870 4.8031, -4.8239 -2.6870 4.9803, -4.6870 -2.8239 4.8031, -4.6870 -2.8239 4.9803, -4.5000 -2.8740 4.8031, -4.5000 -2.8740 4.9803, -4.3130 -2.8239 4.8031, -4.3130 -2.8239 4.9803, -4.1761 -2.6870 4.8031, -4.1761 -2.6870 4.9803 ] } coordIndex [ 0, 2, 3, 1, -1, 2, 4, 5, 3, -1, 4, 6, 7, 5, -1, 6, 8, 9, 7, -1, 8, 10, 11, 9, -1, 10, 12, 13, 11, -1, 12, 14, 15, 13, -1, 14, 16, 17, 15, -1, 16, 18, 19, 17, -1, 18, 20, 21, 19, -1, 20, 22, 23, 21, -1, 22, 0, 1, 23, -1, 22, 20, 18, 16, 14, 12, 10, 8, 6, 4, 2, 0, -1, 1, 3, 5, 7, 9, 11, 13, 15, 17, 19, 21, 23, -1 ] } },
Shape { appearance Appearance { material Material { diffuseColor 0.830 0.680 0.280 specularColor 0.70 0.70 0.70 shininess 0.30 } } geometry IndexedFaceSet { solid FALSE coord Coordinate { point [ -4.6260 -2.6260 4.8031, -4.3740 -2.6260 4.8031, -4.3740 -2.3740 4.8031, -4.6260 -2.3740 4.8031, -4.6260 -2.6260 5.6693, -4.3740 -2.6260 5.6693, -4.3740 -2.3740 5.6693, -4.6260 -2.3740 5.6693 ] } coordIndex [ 0, 3, 2, 1, -1, 4, 5, 6, 7, -1, 0, 1, 5, 4, -1, 1, 2, 6, 5, -1, 2, 3, 7, 6, -1, 3, 0, 4, 7, -1 ] } },
Shape { appearance Appearance { material Material { diffuseColor 0.720 0.720 0.700 specularColor 0.80 0.80 0.80 shininess 0.30 } } geometry IndexedFaceSet { solid FALSE coord Coordinate { point [ -4.1260 -3.5000 4.8031, -4.1260 -3.5000 4.9803, -4.1761 -3.3130 4.8031, -4.1761 -3.3130 4.9803, -4.3130 -3.1761 4.8031, -4.3130 -3.1761 4.9803, -4.5000 -3.1260 4.8031, -4.5000 -3.1260 4.9803, -4.6870 -3.1761 4.8031, -4.6870 -3.1761 4.9803, -4.8239 -3.3130 4.8031, -4.8239 -3.3130 4.9803, -4.8740 -3.5000 4.8031, -4.8740 -3.5000 4.9803, -4.8239 -3.6870 4.8031, -4.8239 -3.6870 4.9803, -4.6870 -3.8239 4.8031, -4.6870 -3.8239 4.9803, -4.5000 -3.8740 4.8031, -4.5000 -3.8740 4.9803, -4.3130 -3.8239 4.8031, -4.3130 -3.8239 4.9803, -4.1761 -3.6870 4.8031, -4.1761 -3.6870 4.9803 ] } coordIndex [ 0, 2, 3, 1, -1, 2, 4, 5, 3, -1, 4, 6, 7, 5, -1, 6, 8, 9, 7, -1, 8, 10, 11, 9, -1, 10, 12, 13, 11, -1, 12, 14, 15, 13, -1, 14, 16, 17, 15, -1, 16, 18, 19, 17, -1, 18, 20, 21, 19, -1, 20, 22, 23, 21, -1, 22, 0, 1, 23, -1, 22, 20, 18, 16, 14, 12, 10, 8, 6, 4, 2, 0, -1, 1, 3, 5, 7, 9, 11, 13, 15, 17, 19, 21, 23, -1 ] } },
Shape { appearance Appearance { material Material { diffuseColor 0.830 0.680 0.280 specularColor 0.70 0.70 0.70 shininess 0.30 } } geometry IndexedFaceSet { solid FALSE coord Coordinate { point [ -4.6260 -3.6260 4.8031, -4.3740 -3.6260 4.8031, -4.3740 -3.3740 4.8031, -4.6260 -3.3740 4.8031, -4.6260 -3.6260 5.6693, -4.3740 -3.6260 5.6693, -4.3740 -3.3740 5.6693, -4.6260 -3.3740 5.6693 ] } coordIndex [ 0, 3, 2, 1, -1, 4, 5, 6, 7, -1, 0, 1, 5, 4, -1, 1, 2, 6, 5, -1, 2, 3, 7, 6, -1, 3, 0, 4, 7, -1 ] } },
Shape { appearance Appearance { material Material { diffuseColor 0.720 0.720 0.700 specularColor 0.80 0.80 0.80 shininess 0.30 } } geometry IndexedFaceSet { solid FALSE coord Coordinate { point [ 4.8740 3.5000 4.8031, 4.8740 3.5000 4.9803, 4.8239 3.6870 4.8031, 4.8239 3.6870 4.9803, 4.6870 3.8239 4.8031, 4.6870 3.8239 4.9803, 4.5000 3.8740 4.8031, 4.5000 3.8740 4.9803, 4.3130 3.8239 4.8031, 4.3130 3.8239 4.9803, 4.1761 3.6870 4.8031, 4.1761 3.6870 4.9803, 4.1260 3.5000 4.8031, 4.1260 3.5000 4.9803, 4.1761 3.3130 4.8031, 4.1761 3.3130 4.9803, 4.3130 3.1761 4.8031, 4.3130 3.1761 4.9803, 4.5000 3.1260 4.8031, 4.5000 3.1260 4.9803, 4.6870 3.1761 4.8031, 4.6870 3.1761 4.9803, 4.8239 3.3130 4.8031, 4.8239 3.3130 4.9803 ] } coordIndex [ 0, 2, 3, 1, -1, 2, 4, 5, 3, -1, 4, 6, 7, 5, -1, 6, 8, 9, 7, -1, 8, 10, 11, 9, -1, 10, 12, 13, 11, -1, 12, 14, 15, 13, -1, 14, 16, 17, 15, -1, 16, 18, 19, 17, -1, 18, 20, 21, 19, -1, 20, 22, 23, 21, -1, 22, 0, 1, 23, -1, 22, 20, 18, 16, 14, 12, 10, 8, 6, 4, 2, 0, -1, 1, 3, 5, 7, 9, 11, 13, 15, 17, 19, 21, 23, -1 ] } },
Shape { appearance Appearance { material Material { diffuseColor 0.830 0.680 0.280 specularColor 0.70 0.70 0.70 shininess 0.30 } } geometry IndexedFaceSet { solid FALSE coord Coordinate { point [ 4.3740 3.3740 4.8031, 4.6260 3.3740 4.8031, 4.6260 3.6260 4.8031, 4.3740 3.6260 4.8031, 4.3740 3.3740 5.6693, 4.6260 3.3740 5.6693, 4.6260 3.6260 5.6693, 4.3740 3.6260 5.6693 ] } coordIndex [ 0, 3, 2, 1, -1, 4, 5, 6, 7, -1, 0, 1, 5, 4, -1, 1, 2, 6, 5, -1, 2, 3, 7, 6, -1, 3, 0, 4, 7, -1 ] } },
Shape { appearance Appearance { material Material { diffuseColor 0.720 0.720 0.700 specularColor 0.80 0.80 0.80 shininess 0.30 } } geometry IndexedFaceSet { solid FALSE coord Coordinate { point [ 4.8740 2.5000 4.8031, 4.8740 2.5000 4.9803, 4.8239 2.6870 4.8031, 4.8239 2.6870 4.9803, 4.6870 2.8239 4.8031, 4.6870 2.8239 4.9803, 4.5000 2.8740 4.8031, 4.5000 2.8740 4.9803, 4.3130 2.8239 4.8031, 4.3130 2.8239 4.9803, 4.1761 2.6870 4.8031, 4.1761 2.6870 4.9803, 4.1260 2.5000 4.8031, 4.1260 2.5000 4.9803, 4.1761 2.3130 4.8031, 4.1761 2.3130 4.9803, 4.3130 2.1761 4.8031, 4.3130 2.1761 4.9803, 4.5000 2.1260 4.8031, 4.5000 2.1260 4.9803, 4.6870 2.1761 4.8031, 4.6870 2.1761 4.9803, 4.8239 2.3130 4.8031, 4.8239 2.3130 4.9803 ] } coordIndex [ 0, 2, 3, 1, -1, 2, 4, 5, 3, -1, 4, 6, 7, 5, -1, 6, 8, 9, 7, -1, 8, 10, 11, 9, -1, 10, 12, 13, 11, -1, 12, 14, 15, 13, -1, 14, 16, 17, 15, -1, 16, 18, 19, 17, -1, 18, 20, 21, 19, -1, 20, 22, 23, 21, -1, 22, 0, 1, 23, -1, 22, 20, 18, 16, 14, 12, 10, 8, 6, 4, 2, 0, -1, 1, 3, 5, 7, 9, 11, 13, 15, 17, 19, 21, 23, -1 ] } },
Shape { appearance Appearance { material Material { diffuseColor 0.830 0.680 0.280 specularColor 0.70 0.70 0.70 shininess 0.30 } } geometry IndexedFaceSet { solid FALSE coord Coordinate { point [ 4.3740 2.3740 4.8031, 4.6260 2.3740 4.8031, 4.6260 2.6260 4.8031, 4.3740 2.6260 4.8031, 4.3740 2.3740 5.6693, 4.6260 2.3740 5.6693, 4.6260 2.6260 5.6693, 4.3740 2.6260 5.6693 ] } coordIndex [ 0, 3, 2, 1, -1, 4, 5, 6, 7, -1, 0, 1, 5, 4, -1, 1, 2, 6, 5, -1, 2, 3, 7, 6, -1, 3, 0, 4, 7, -1 ] } },
Shape { appearance Appearance { material Material { diffuseColor 0.720 0.720 0.700 specularColor 0.80 0.80 0.80 shininess 0.30 } } geometry IndexedFaceSet { solid FALSE coord Coordinate { point [ 4.8740 1.5000 4.8031, 4.8740 1.5000 4.9803, 4.8239 1.6870 4.8031, 4.8239 1.6870 4.9803, 4.6870 1.8239 4.8031, 4.6870 1.8239 4.9803, 4.5000 1.8740 4.8031, 4.5000 1.8740 4.9803, 4.3130 1.8239 4.8031, 4.3130 1.8239 4.9803, 4.1761 1.6870 4.8031, 4.1761 1.6870 4.9803, 4.1260 1.5000 4.8031, 4.1260 1.5000 4.9803, 4.1761 1.3130 4.8031, 4.1761 1.3130 4.9803, 4.3130 1.1761 4.8031, 4.3130 1.1761 4.9803, 4.5000 1.1260 4.8031, 4.5000 1.1260 4.9803, 4.6870 1.1761 4.8031, 4.6870 1.1761 4.9803, 4.8239 1.3130 4.8031, 4.8239 1.3130 4.9803 ] } coordIndex [ 0, 2, 3, 1, -1, 2, 4, 5, 3, -1, 4, 6, 7, 5, -1, 6, 8, 9, 7, -1, 8, 10, 11, 9, -1, 10, 12, 13, 11, -1, 12, 14, 15, 13, -1, 14, 16, 17, 15, -1, 16, 18, 19, 17, -1, 18, 20, 21, 19, -1, 20, 22, 23, 21, -1, 22, 0, 1, 23, -1, 22, 20, 18, 16, 14, 12, 10, 8, 6, 4, 2, 0, -1, 1, 3, 5, 7, 9, 11, 13, 15, 17, 19, 21, 23, -1 ] } },
Shape { appearance Appearance { material Material { diffuseColor 0.830 0.680 0.280 specularColor 0.70 0.70 0.70 shininess 0.30 } } geometry IndexedFaceSet { solid FALSE coord Coordinate { point [ 4.3740 1.3740 4.8031, 4.6260 1.3740 4.8031, 4.6260 1.6260 4.8031, 4.3740 1.6260 4.8031, 4.3740 1.3740 5.6693, 4.6260 1.3740 5.6693, 4.6260 1.6260 5.6693, 4.3740 1.6260 5.6693 ] } coordIndex [ 0, 3, 2, 1, -1, 4, 5, 6, 7, -1, 0, 1, 5, 4, -1, 1, 2, 6, 5, -1, 2, 3, 7, 6, -1, 3, 0, 4, 7, -1 ] } },
Shape { appearance Appearance { material Material { diffuseColor 0.720 0.720 0.700 specularColor 0.80 0.80 0.80 shininess 0.30 } } geometry IndexedFaceSet { solid FALSE coord Coordinate { point [ 4.8740 0.5000 4.8031, 4.8740 0.5000 4.9803, 4.8239 0.6870 4.8031, 4.8239 0.6870 4.9803, 4.6870 0.8239 4.8031, 4.6870 0.8239 4.9803, 4.5000 0.8740 4.8031, 4.5000 0.8740 4.9803, 4.3130 0.8239 4.8031, 4.3130 0.8239 4.9803, 4.1761 0.6870 4.8031, 4.1761 0.6870 4.9803, 4.1260 0.5000 4.8031, 4.1260 0.5000 4.9803, 4.1761 0.3130 4.8031, 4.1761 0.3130 4.9803, 4.3130 0.1761 4.8031, 4.3130 0.1761 4.9803, 4.5000 0.1260 4.8031, 4.5000 0.1260 4.9803, 4.6870 0.1761 4.8031, 4.6870 0.1761 4.9803, 4.8239 0.3130 4.8031, 4.8239 0.3130 4.9803 ] } coordIndex [ 0, 2, 3, 1, -1, 2, 4, 5, 3, -1, 4, 6, 7, 5, -1, 6, 8, 9, 7, -1, 8, 10, 11, 9, -1, 10, 12, 13, 11, -1, 12, 14, 15, 13, -1, 14, 16, 17, 15, -1, 16, 18, 19, 17, -1, 18, 20, 21, 19, -1, 20, 22, 23, 21, -1, 22, 0, 1, 23, -1, 22, 20, 18, 16, 14, 12, 10, 8, 6, 4, 2, 0, -1, 1, 3, 5, 7, 9, 11, 13, 15, 17, 19, 21, 23, -1 ] } },
Shape { appearance Appearance { material Material { diffuseColor 0.830 0.680 0.280 specularColor 0.70 0.70 0.70 shininess 0.30 } } geometry IndexedFaceSet { solid FALSE coord Coordinate { point [ 4.3740 0.3740 4.8031, 4.6260 0.3740 4.8031, 4.6260 0.6260 4.8031, 4.3740 0.6260 4.8031, 4.3740 0.3740 5.6693, 4.6260 0.3740 5.6693, 4.6260 0.6260 5.6693, 4.3740 0.6260 5.6693 ] } coordIndex [ 0, 3, 2, 1, -1, 4, 5, 6, 7, -1, 0, 1, 5, 4, -1, 1, 2, 6, 5, -1, 2, 3, 7, 6, -1, 3, 0, 4, 7, -1 ] } },
Shape { appearance Appearance { material Material { diffuseColor 0.720 0.720 0.700 specularColor 0.80 0.80 0.80 shininess 0.30 } } geometry IndexedFaceSet { solid FALSE coord Coordinate { point [ 4.8740 -0.5000 4.8031, 4.8740 -0.5000 4.9803, 4.8239 -0.3130 4.8031, 4.8239 -0.3130 4.9803, 4.6870 -0.1761 4.8031, 4.6870 -0.1761 4.9803, 4.5000 -0.1260 4.8031, 4.5000 -0.1260 4.9803, 4.3130 -0.1761 4.8031, 4.3130 -0.1761 4.9803, 4.1761 -0.3130 4.8031, 4.1761 -0.3130 4.9803, 4.1260 -0.5000 4.8031, 4.1260 -0.5000 4.9803, 4.1761 -0.6870 4.8031, 4.1761 -0.6870 4.9803, 4.3130 -0.8239 4.8031, 4.3130 -0.8239 4.9803, 4.5000 -0.8740 4.8031, 4.5000 -0.8740 4.9803, 4.6870 -0.8239 4.8031, 4.6870 -0.8239 4.9803, 4.8239 -0.6870 4.8031, 4.8239 -0.6870 4.9803 ] } coordIndex [ 0, 2, 3, 1, -1, 2, 4, 5, 3, -1, 4, 6, 7, 5, -1, 6, 8, 9, 7, -1, 8, 10, 11, 9, -1, 10, 12, 13, 11, -1, 12, 14, 15, 13, -1, 14, 16, 17, 15, -1, 16, 18, 19, 17, -1, 18, 20, 21, 19, -1, 20, 22, 23, 21, -1, 22, 0, 1, 23, -1, 22, 20, 18, 16, 14, 12, 10, 8, 6, 4, 2, 0, -1, 1, 3, 5, 7, 9, 11, 13, 15, 17, 19, 21, 23, -1 ] } },
Shape { appearance Appearance { material Material { diffuseColor 0.830 0.680 0.280 specularColor 0.70 0.70 0.70 shininess 0.30 } } geometry IndexedFaceSet { solid FALSE coord Coordinate { point [ 4.3740 -0.6260 4.8031, 4.6260 -0.6260 4.8031, 4.6260 -0.3740 4.8031, 4.3740 -0.3740 4.8031, 4.3740 -0.6260 5.6693, 4.6260 -0.6260 5.6693, 4.6260 -0.3740 5.6693, 4.3740 -0.3740 5.6693 ] } coordIndex [ 0, 3, 2, 1, -1, 4, 5, 6, 7, -1, 0, 1, 5, 4, -1, 1, 2, 6, 5, -1, 2, 3, 7, 6, -1, 3, 0, 4, 7, -1 ] } },
Shape { appearance Appearance { material Material { diffuseColor 0.720 0.720 0.700 specularColor 0.80 0.80 0.80 shininess 0.30 } } geometry IndexedFaceSet { solid FALSE coord Coordinate { point [ 4.8740 -1.5000 4.8031, 4.8740 -1.5000 4.9803, 4.8239 -1.3130 4.8031, 4.8239 -1.3130 4.9803, 4.6870 -1.1761 4.8031, 4.6870 -1.1761 4.9803, 4.5000 -1.1260 4.8031, 4.5000 -1.1260 4.9803, 4.3130 -1.1761 4.8031, 4.3130 -1.1761 4.9803, 4.1761 -1.3130 4.8031, 4.1761 -1.3130 4.9803, 4.1260 -1.5000 4.8031, 4.1260 -1.5000 4.9803, 4.1761 -1.6870 4.8031, 4.1761 -1.6870 4.9803, 4.3130 -1.8239 4.8031, 4.3130 -1.8239 4.9803, 4.5000 -1.8740 4.8031, 4.5000 -1.8740 4.9803, 4.6870 -1.8239 4.8031, 4.6870 -1.8239 4.9803, 4.8239 -1.6870 4.8031, 4.8239 -1.6870 4.9803 ] } coordIndex [ 0, 2, 3, 1, -1, 2, 4, 5, 3, -1, 4, 6, 7, 5, -1, 6, 8, 9, 7, -1, 8, 10, 11, 9, -1, 10, 12, 13, 11, -1, 12, 14, 15, 13, -1, 14, 16, 17, 15, -1, 16, 18, 19, 17, -1, 18, 20, 21, 19, -1, 20, 22, 23, 21, -1, 22, 0, 1, 23, -1, 22, 20, 18, 16, 14, 12, 10, 8, 6, 4, 2, 0, -1, 1, 3, 5, 7, 9, 11, 13, 15, 17, 19, 21, 23, -1 ] } },
Shape { appearance Appearance { material Material { diffuseColor 0.830 0.680 0.280 specularColor 0.70 0.70 0.70 shininess 0.30 } } geometry IndexedFaceSet { solid FALSE coord Coordinate { point [ 4.3740 -1.6260 4.8031, 4.6260 -1.6260 4.8031, 4.6260 -1.3740 4.8031, 4.3740 -1.3740 4.8031, 4.3740 -1.6260 5.6693, 4.6260 -1.6260 5.6693, 4.6260 -1.3740 5.6693, 4.3740 -1.3740 5.6693 ] } coordIndex [ 0, 3, 2, 1, -1, 4, 5, 6, 7, -1, 0, 1, 5, 4, -1, 1, 2, 6, 5, -1, 2, 3, 7, 6, -1, 3, 0, 4, 7, -1 ] } },
Shape { appearance Appearance { material Material { diffuseColor 0.720 0.720 0.700 specularColor 0.80 0.80 0.80 shininess 0.30 } } geometry IndexedFaceSet { solid FALSE coord Coordinate { point [ 4.8740 -2.5000 4.8031, 4.8740 -2.5000 4.9803, 4.8239 -2.3130 4.8031, 4.8239 -2.3130 4.9803, 4.6870 -2.1761 4.8031, 4.6870 -2.1761 4.9803, 4.5000 -2.1260 4.8031, 4.5000 -2.1260 4.9803, 4.3130 -2.1761 4.8031, 4.3130 -2.1761 4.9803, 4.1761 -2.3130 4.8031, 4.1761 -2.3130 4.9803, 4.1260 -2.5000 4.8031, 4.1260 -2.5000 4.9803, 4.1761 -2.6870 4.8031, 4.1761 -2.6870 4.9803, 4.3130 -2.8239 4.8031, 4.3130 -2.8239 4.9803, 4.5000 -2.8740 4.8031, 4.5000 -2.8740 4.9803, 4.6870 -2.8239 4.8031, 4.6870 -2.8239 4.9803, 4.8239 -2.6870 4.8031, 4.8239 -2.6870 4.9803 ] } coordIndex [ 0, 2, 3, 1, -1, 2, 4, 5, 3, -1, 4, 6, 7, 5, -1, 6, 8, 9, 7, -1, 8, 10, 11, 9, -1, 10, 12, 13, 11, -1, 12, 14, 15, 13, -1, 14, 16, 17, 15, -1, 16, 18, 19, 17, -1, 18, 20, 21, 19, -1, 20, 22, 23, 21, -1, 22, 0, 1, 23, -1, 22, 20, 18, 16, 14, 12, 10, 8, 6, 4, 2, 0, -1, 1, 3, 5, 7, 9, 11, 13, 15, 17, 19, 21, 23, -1 ] } },
Shape { appearance Appearance { material Material { diffuseColor 0.830 0.680 0.280 specularColor 0.70 0.70 0.70 shininess 0.30 } } geometry IndexedFaceSet { solid FALSE coord Coordinate { point [ 4.3740 -2.6260 4.8031, 4.6260 -2.6260 4.8031, 4.6260 -2.3740 4.8031, 4.3740 -2.3740 4.8031, 4.3740 -2.6260 5.6693, 4.6260 -2.6260 5.6693, 4.6260 -2.3740 5.6693, 4.3740 -2.3740 5.6693 ] } coordIndex [ 0, 3, 2, 1, -1, 4, 5, 6, 7, -1, 0, 1, 5, 4, -1, 1, 2, 6, 5, -1, 2, 3, 7, 6, -1, 3, 0, 4, 7, -1 ] } },
Shape { appearance Appearance { material Material { diffuseColor 0.720 0.720 0.700 specularColor 0.80 0.80 0.80 shininess 0.30 } } geometry IndexedFaceSet { solid FALSE coord Coordinate { point [ 4.8740 -3.5000 4.8031, 4.8740 -3.5000 4.9803, 4.8239 -3.3130 4.8031, 4.8239 -3.3130 4.9803, 4.6870 -3.1761 4.8031, 4.6870 -3.1761 4.9803, 4.5000 -3.1260 4.8031, 4.5000 -3.1260 4.9803, 4.3130 -3.1761 4.8031, 4.3130 -3.1761 4.9803, 4.1761 -3.3130 4.8031, 4.1761 -3.3130 4.9803, 4.1260 -3.5000 4.8031, 4.1260 -3.5000 4.9803, 4.1761 -3.6870 4.8031, 4.1761 -3.6870 4.9803, 4.3130 -3.8239 4.8031, 4.3130 -3.8239 4.9803, 4.5000 -3.8740 4.8031, 4.5000 -3.8740 4.9803, 4.6870 -3.8239 4.8031, 4.6870 -3.8239 4.9803, 4.8239 -3.6870 4.8031, 4.8239 -3.6870 4.9803 ] } coordIndex [ 0, 2, 3, 1, -1, 2, 4, 5, 3, -1, 4, 6, 7, 5, -1, 6, 8, 9, 7, -1, 8, 10, 11, 9, -1, 10, 12, 13, 11, -1, 12, 14, 15, 13, -1, 14, 16, 17, 15, -1, 16, 18, 19, 17, -1, 18, 20, 21, 19, -1, 20, 22, 23, 21, -1, 22, 0, 1, 23, -1, 22, 20, 18, 16, 14, 12, 10, 8, 6, 4, 2, 0, -1, 1, 3, 5, 7, 9, 11, 13, 15, 17, 19, 21, 23, -1 ] } },
Shape { appearance Appearance { material Material { diffuseColor 0.830 0.680 0.280 specularColor 0.70 0.70 0.70 shininess 0.30 } } geometry IndexedFaceSet { solid FALSE coord Coordinate { point [ 4.3740 -3.6260 4.8031, 4.6260 -3.6260 4.8031, 4.6260 -3.3740 4.8031, 4.3740 -3.3740 4.8031, 4.3740 -3.6260 5.6693, 4.6260 -3.6260 5.6693, 4.6260 -3.3740 5.6693, 4.3740 -3.3740 5.6693 ] } coordIndex [ 0, 3, 2, 1, -1, 4, 5, 6, 7, -1, 0, 1, 5, 4, -1, 1, 2, 6, 5, -1, 2, 3, 7, 6, -1, 3, 0, 4, 7, -1 ] } },
Shape { appearance Appearance { material Material { diffuseColor 0.600 0.610 0.640 specularColor 0.90 0.90 0.90 shininess 0.30 } } geometry IndexedFaceSet { solid FALSE coord Coordinate { point [ -2.8740 -1.9685 4.8031, 2.8740 -1.9685 4.8031, 2.8740 3.9370 4.8031, -2.8740 3.9370 4.8031, -2.8740 -1.9685 5.5315, 2.8740 -1.9685 5.5315, 2.8740 3.9370 5.5315, -2.8740 3.9370 5.5315 ] } coordIndex [ 0, 3, 2, 1, -1, 4, 5, 6, 7, -1, 0, 1, 5, 4, -1, 1, 2, 6, 5, -1, 2, 3, 7, 6, -1, 3, 0, 4, 7, -1 ] } },
Shape { appearance Appearance { material Material { diffuseColor 0.350 0.360 0.380 specularColor 0.30 0.30 0.30 shininess 0.30 } } geometry IndexedFaceSet { solid FALSE coord Coordinate { point [ -1.9685 -0.7874 5.5315, 1.9685 -0.7874 5.5315, 1.9685 2.7559 5.5315, -1.9685 2.7559 5.5315, -1.9685 -0.7874 5.5394, 1.9685 -0.7874 5.5394, 1.9685 2.7559 5.5394, -1.9685 2.7559 5.5394 ] } coordIndex [ 0, 3, 2, 1, -1, 4, 5, 6, 7, -1, 0, 1, 5, 4, -1, 1, 2, 6, 5, -1, 2, 3, 7, 6, -1, 3, 0, 4, 7, -1 ] } },
Shape { appearance Appearance { material Material { diffuseColor 0.120 0.120 0.140 specularColor 0.30 0.30 0.30 shininess 0.30 } } geometry IndexedFaceSet { solid FALSE coord Coordinate { point [ -2.1654 3.8189 4.9213, 2.1654 3.8189 4.9213, 2.1654 5.0000 4.9213, -2.1654 5.0000 4.9213, -2.1654 3.8189 5.2362, 2.1654 3.8189 5.2362, 2.1654 5.0000 5.2362, -2.1654 5.0000 5.2362 ] } coordIndex [ 0, 3, 2, 1, -1, 4, 5, 6, 7, -1, 0, 1, 5, 4, -1, 1, 2, 6, 5, -1, 2, 3, 7, 6, -1, 3, 0, 4, 7, -1 ] } },
Shape { appearance Appearance { material Material { diffuseColor 0.850 0.850 0.820 specularColor 0.20 0.20 0.20 shininess 0.30 } } geometry IndexedFaceSet { solid FALSE coord Coordinate { point [ -2.1654 4.9016 4.9213, 2.1654 4.9016 4.9213, 2.1654 5.0197 4.9213, -2.1654 5.0197 4.9213, -2.1654 4.9016 5.2362, 2.1654 4.9016 5.2362, 2.1654 5.0197 5.2362, -2.1654 5.0197 5.2362 ] } coordIndex [ 0, 3, 2, 1, -1, 4, 5, 6, 7, -1, 0, 1, 5, 4, -1, 1, 2, 6, 5, -1, 2, 3, 7, 6, -1, 3, 0, 4, 7, -1 ] } },
Shape { appearance Appearance { material Material { diffuseColor 0.050 0.050 0.050 specularColor 0.20 0.20 0.20 shininess 0.30 } } geometry IndexedFaceSet { solid FALSE coord Coordinate { point [ -2.5512 -4.2913 4.8031, -2.1732 -4.2913 4.8031, -2.1732 -3.9764 4.8031, -2.5512 -3.9764 4.8031, -2.5512 -4.2913 5.0000, -2.1732 -4.2913 5.0000, -2.1732 -3.9764 5.0000, -2.5512 -3.9764 5.0000 ] } coordIndex [ 0, 3, 2, 1, -1, 4, 5, 6, 7, -1, 0, 1, 5, 4, -1, 1, 2, 6, 5, -1, 2, 3, 7, 6, -1, 3, 0, 4, 7, -1 ] } },
Shape { appearance Appearance { material Material { diffuseColor 0.600 0.610 0.640 specularColor 0.60 0.60 0.60 shininess 0.30 } } geometry IndexedFaceSet { solid FALSE coord Coordinate { point [ -2.6772 -4.2913 4.8031, -2.5512 -4.2913 4.8031, -2.5512 -3.9764 4.8031, -2.6772 -3.9764 4.8031, -2.6772 -4.2913 5.0000, -2.5512 -4.2913 5.0000, -2.5512 -3.9764 5.0000, -2.6772 -3.9764 5.0000 ] } coordIndex [ 0, 3, 2, 1, -1, 4, 5, 6, 7, -1, 0, 1, 5, 4, -1, 1, 2, 6, 5, -1, 2, 3, 7, 6, -1, 3, 0, 4, 7, -1 ] } },
Shape { appearance Appearance { material Material { diffuseColor 0.600 0.610 0.640 specularColor 0.60 0.60 0.60 shininess 0.30 } } geometry IndexedFaceSet { solid FALSE coord Coordinate { point [ -2.1732 -4.2913 4.8031, -2.0472 -4.2913 4.8031, -2.0472 -3.9764 4.8031, -2.1732 -3.9764 4.8031, -2.1732 -4.2913 5.0000, -2.0472 -4.2913 5.0000, -2.0472 -3.9764 5.0000, -2.1732 -3.9764 5.0000 ] } coordIndex [ 0, 3, 2, 1, -1, 4, 5, 6, 7, -1, 0, 1, 5, 4, -1, 1, 2, 6, 5, -1, 2, 3, 7, 6, -1, 3, 0, 4, 7, -1 ] } },
Shape { appearance Appearance { material Material { diffuseColor 0.050 0.050 0.050 specularColor 0.20 0.20 0.20 shininess 0.30 } } geometry IndexedFaceSet { solid FALSE coord Coordinate { point [ -1.3701 -4.2913 4.8031, -0.9921 -4.2913 4.8031, -0.9921 -3.9764 4.8031, -1.3701 -3.9764 4.8031, -1.3701 -4.2913 5.0000, -0.9921 -4.2913 5.0000, -0.9921 -3.9764 5.0000, -1.3701 -3.9764 5.0000 ] } coordIndex [ 0, 3, 2, 1, -1, 4, 5, 6, 7, -1, 0, 1, 5, 4, -1, 1, 2, 6, 5, -1, 2, 3, 7, 6, -1, 3, 0, 4, 7, -1 ] } },
Shape { appearance Appearance { material Material { diffuseColor 0.600 0.610 0.640 specularColor 0.60 0.60 0.60 shininess 0.30 } } geometry IndexedFaceSet { solid FALSE coord Coordinate { point [ -1.4961 -4.2913 4.8031, -1.3701 -4.2913 4.8031, -1.3701 -3.9764 4.8031, -1.4961 -3.9764 4.8031, -1.4961 -4.2913 5.0000, -1.3701 -4.2913 5.0000, -1.3701 -3.9764 5.0000, -1.4961 -3.9764 5.0000 ] } coordIndex [ 0, 3, 2, 1, -1, 4, 5, 6, 7, -1, 0, 1, 5, 4, -1, 1, 2, 6, 5, -1, 2, 3, 7, 6, -1, 3, 0, 4, 7, -1 ] } },
Shape { appearance Appearance { material Material { diffuseColor 0.600 0.610 0.640 specularColor 0.60 0.60 0.60 shininess 0.30 } } geometry IndexedFaceSet { solid FALSE coord Coordinate { point [ -0.9921 -4.2913 4.8031, -0.8661 -4.2913 4.8031, -0.8661 -3.9764 4.8031, -0.9921 -3.9764 4.8031, -0.9921 -4.2913 5.0000, -0.8661 -4.2913 5.0000, -0.8661 -3.9764 5.0000, -0.9921 -3.9764 5.0000 ] } coordIndex [ 0, 3, 2, 1, -1, 4, 5, 6, 7, -1, 0, 1, 5, 4, -1, 1, 2, 6, 5, -1, 2, 3, 7, 6, -1, 3, 0, 4, 7, -1 ] } },
Shape { appearance Appearance { material Material { diffuseColor 0.550 0.400 0.250 specularColor 0.20 0.20 0.20 shininess 0.30 } } geometry IndexedFaceSet { solid FALSE coord Coordinate { point [ 0.9921 -4.2913 4.8031, 1.3701 -4.2913 4.8031, 1.3701 -3.9764 4.8031, 0.9921 -3.9764 4.8031, 0.9921 -4.2913 5.0000, 1.3701 -4.2913 5.0000, 1.3701 -3.9764 5.0000, 0.9921 -3.9764 5.0000 ] } coordIndex [ 0, 3, 2, 1, -1, 4, 5, 6, 7, -1, 0, 1, 5, 4, -1, 1, 2, 6, 5, -1, 2, 3, 7, 6, -1, 3, 0, 4, 7, -1 ] } },
Shape { appearance Appearance { material Material { diffuseColor 0.600 0.610 0.640 specularColor 0.60 0.60 0.60 shininess 0.30 } } geometry IndexedFaceSet { solid FALSE coord Coordinate { point [ 0.8661 -4.2913 4.8031, 0.9921 -4.2913 4.8031, 0.9921 -3.9764 4.8031, 0.8661 -3.9764 4.8031, 0.8661 -4.2913 5.0000, 0.9921 -4.2913 5.0000, 0.9921 -3.9764 5.0000, 0.8661 -3.9764 5.0000 ] } coordIndex [ 0, 3, 2, 1, -1, 4, 5, 6, 7, -1, 0, 1, 5, 4, -1, 1, 2, 6, 5, -1, 2, 3, 7, 6, -1, 3, 0, 4, 7, -1 ] } },
Shape { appearance Appearance { material Material { diffuseColor 0.600 0.610 0.640 specularColor 0.60 0.60 0.60 shininess 0.30 } } geometry IndexedFaceSet { solid FALSE coord Coordinate { point [ 1.3701 -4.2913 4.8031, 1.4961 -4.2913 4.8031, 1.4961 -3.9764 4.8031, 1.3701 -3.9764 4.8031, 1.3701 -4.2913 5.0000, 1.4961 -4.2913 5.0000, 1.4961 -3.9764 5.0000, 1.3701 -3.9764 5.0000 ] } coordIndex [ 0, 3, 2, 1, -1, 4, 5, 6, 7, -1, 0, 1, 5, 4, -1, 1, 2, 6, 5, -1, 2, 3, 7, 6, -1, 3, 0, 4, 7, -1 ] } },
Shape { appearance Appearance { material Material { diffuseColor 0.050 0.050 0.050 specularColor 0.20 0.20 0.20 shininess 0.30 } } geometry IndexedFaceSet { solid FALSE coord Coordinate { point [ 2.1732 -4.2913 4.8031, 2.5512 -4.2913 4.8031, 2.5512 -3.9764 4.8031, 2.1732 -3.9764 4.8031, 2.1732 -4.2913 5.0000, 2.5512 -4.2913 5.0000, 2.5512 -3.9764 5.0000, 2.1732 -3.9764 5.0000 ] } coordIndex [ 0, 3, 2, 1, -1, 4, 5, 6, 7, -1, 0, 1, 5, 4, -1, 1, 2, 6, 5, -1, 2, 3, 7, 6, -1, 3, 0, 4, 7, -1 ] } },
Shape { appearance Appearance { material Material { diffuseColor 0.600 0.610 0.640 specularColor 0.60 0.60 0.60 shininess 0.30 } } geometry IndexedFaceSet { solid FALSE coord Coordinate { point [ 2.0472 -4.2913 4.8031, 2.1732 -4.2913 4.8031, 2.1732 -3.9764 4.8031, 2.0472 -3.9764 4.8031, 2.0472 -4.2913 5.0000, 2.1732 -4.2913 5.0000, 2.1732 -3.9764 5.0000, 2.0472 -3.9764 5.0000 ] } coordIndex [ 0, 3, 2, 1, -1, 4, 5, 6, 7, -1, 0, 1, 5, 4, -1, 1, 2, 6, 5, -1, 2, 3, 7, 6, -1, 3, 0, 4, 7, -1 ] } },
Shape { appearance Appearance { material Material { diffuseColor 0.600 0.610 0.640 specularColor 0.60 0.60 0.60 shininess 0.30 } } geometry IndexedFaceSet { solid FALSE coord Coordinate { point [ 2.5512 -4.2913 4.8031, 2.6772 -4.2913 4.8031, 2.6772 -3.9764 4.8031, 2.5512 -3.9764 4.8031, 2.5512 -4.2913 5.0000, 2.6772 -4.2913 5.0000, 2.6772 -3.9764 5.0000, 2.5512 -3.9764 5.0000 ] } coordIndex [ 0, 3, 2, 1, -1, 4, 5, 6, 7, -1, 0, 1, 5, 4, -1, 1, 2, 6, 5, -1, 2, 3, 7, 6, -1, 3, 0, 4, 7, -1 ] } },
Shape { appearance Appearance { material Material { diffuseColor 0.850 0.850 0.820 specularColor 0.20 0.20 0.20 shininess 0.30 } } geometry IndexedFaceSet { solid FALSE coord Coordinate { point [ -0.3150 -5.8661 4.8031, 0.3150 -5.8661 4.8031, 0.3150 -5.5512 4.8031, -0.3150 -5.5512 4.8031, -0.3150 -5.8661 4.9409, 0.3150 -5.8661 4.9409, 0.3150 -5.5512 4.9409, -0.3150 -5.5512 4.9409 ] } coordIndex [ 0, 3, 2, 1, -1, 4, 5, 6, 7, -1, 0, 1, 5, 4, -1, 1, 2, 6, 5, -1, 2, 3, 7, 6, -1, 3, 0, 4, 7, -1 ] } },
Shape { appearance Appearance { material Material { diffuseColor 0.850 0.080 0.050 specularColor 0.60 0.60 0.60 shininess 0.30 } } geometry IndexedFaceSet { solid FALSE coord Coordinate { point [ -0.1969 -5.8465 4.9409, 0.1969 -5.8465 4.9409, 0.1969 -5.5709 4.9409, -0.1969 -5.5709 4.9409, -0.1969 -5.8465 5.0394, 0.1969 -5.8465 5.0394, 0.1969 -5.5709 5.0394, -0.1969 -5.5709 5.0394 ] } coordIndex [ 0, 3, 2, 1, -1, 4, 5, 6, 7, -1, 0, 1, 5, 4, -1, 1, 2, 6, 5, -1, 2, 3, 7, 6, -1, 3, 0, 4, 7, -1 ] } }
] }
