#VRML V2.0 utf8
Transform { children [
Shape { appearance Appearance { material Material { diffuseColor 0.070 0.070 0.080 specularColor 0.15 0.15 0.15 shininess 0.30 } } geometry IndexedFaceSet { solid FALSE coord Coordinate { point [ -2.2835 -1.4173 0.9843, 2.2835 -1.4173 0.9843, 2.2835 1.4173 0.9843, -2.2835 1.4173 0.9843, -2.2835 -1.4173 5.0000, 2.2835 -1.4173 5.0000, 2.2835 1.4173 5.0000, -2.2835 1.4173 5.0000 ] } coordIndex [ 0, 3, 2, 1, -1, 4, 5, 6, 7, -1, 0, 1, 5, 4, -1, 1, 2, 6, 5, -1, 2, 3, 7, 6, -1, 3, 0, 4, 7, -1 ] } },
Shape { appearance Appearance { material Material { diffuseColor 0.850 0.850 0.820 specularColor 0.10 0.10 0.10 shininess 0.30 } } geometry IndexedFaceSet { solid FALSE coord Coordinate { point [ -1.7717 -1.4331 1.9685, 1.7717 -1.4331 1.9685, 1.7717 -1.4173 1.9685, -1.7717 -1.4173 1.9685, -1.7717 -1.4331 4.1339, 1.7717 -1.4331 4.1339, 1.7717 -1.4173 4.1339, -1.7717 -1.4173 4.1339 ] } coordIndex [ 0, 3, 2, 1, -1, 4, 5, 6, 7, -1, 0, 1, 5, 4, -1, 1, 2, 6, 5, -1, 2, 3, 7, 6, -1, 3, 0, 4, 7, -1 ] } },
Shape { appearance Appearance { material Material { diffuseColor 0.100 0.100 0.100 specularColor 0.25 0.25 0.25 shininess 0.30 } } geometry IndexedFaceSet { solid FALSE coord Coordinate { point [ -1.8701 -1.4488 3.6614, -0.0984 -1.4488 3.6614, -0.0984 -1.4331 3.6614, -1.8701 -1.4331 3.6614, -1.8701 -1.4488 4.0551, -0.0984 -1.4488 4.0551, -0.0984 -1.4331 4.0551, -1.8701 -1.4331 4.0551 ] } coordIndex [ 0, 3, 2, 1, -1, 4, 5, 6, 7, -1, 0, 1, 5, 4, -1, 1, 2, 6, 5, -1, 2, 3, 7, 6, -1, 3, 0, 4, 7, -1 ] } },
Shape { appearance Appearance { material Material { diffuseColor 0.600 0.610 0.640 specularColor 0.80 0.80 0.80 shininess 0.30 } } geometry IndexedFaceSet { solid FALSE coord Coordinate { point [ -1.1181 -0.0787 0.0000, -0.8819 -0.0787 0.0000, -0.8819 0.0787 0.0000, -1.1181 0.0787 0.0000, -1.1181 -0.0787 0.9843, -0.8819 -0.0787 0.9843, -0.8819 0.0787 0.9843, -1.1181 0.0787 0.9843 ] } coordIndex [ 0, 3, 2, 1, -1, 4, 5, 6, 7, -1, 0, 1, 5, 4, -1, 1, 2, 6, 5, -1, 2, 3, 7, 6, -1, 3, 0, 4, 7, -1 ] } },
Shape { appearance Appearance { material Material { diffuseColor 0.600 0.610 0.640 specularColor 0.80 0.80 0.80 shininess 0.30 } } geometry IndexedFaceSet { solid FALSE coord Coordinate { point [ -0.1181 -0.0787 0.0000, 0.1181 -0.0787 0.0000, 0.1181 0.0787 0.0000, -0.1181 0.0787 0.0000, -0.1181 -0.0787 0.9843, 0.1181 -0.0787 0.9843, 0.1181 0.0787 0.9843, -0.1181 0.0787 0.9843 ] } coordIndex [ 0, 3, 2, 1, -1, 4, 5, 6, 7, -1, 0, 1, 5, 4, -1, 1, 2, 6, 5, -1, 2, 3, 7, 6, -1, 3, 0, 4, 7, -1 ] } },
Shape { appearance Appearance { material Material { diffuseColor 0.600 0.610 0.640 specularColor 0.80 0.80 0.80 shininess 0.30 } } geometry IndexedFaceSet { solid FALSE coord Coordinate { point [ 0.8819 -0.0787 0.0000, 1.1181 -0.0787 0.0000, 1.1181 0.0787 0.0000, 0.8819 0.0787 0.0000, 0.8819 -0.0787 0.9843, 1.1181 -0.0787 0.9843, 1.1181 0.0787 0.9843, 0.8819 0.0787 0.9843 ] } coordIndex [ 0, 3, 2, 1, -1, 4, 5, 6, 7, -1, 0, 1, 5, 4, -1, 1, 2, 6, 5, -1, 2, 3, 7, 6, -1, 3, 0, 4, 7, -1 ] } }
] }
