#VRML V2.0 utf8
Transform { children [
Shape { appearance Appearance { material Material { diffuseColor 0.040 0.220 0.620 specularColor 0.20 0.20 0.20 shininess 0.30 } } geometry IndexedFaceSet { solid FALSE coord Coordinate { point [ -14.4488 -4.3307 4.3307, 0.5118 -4.3307 4.3307, 0.5118 4.3307 4.3307, -14.4488 4.3307 4.3307, -14.4488 -4.3307 4.9606, 0.5118 -4.3307 4.9606, 0.5118 4.3307 4.9606, -14.4488 4.3307 4.9606 ] } coordIndex [ 0, 3, 2, 1, -1, 4, 5, 6, 7, -1, 0, 1, 5, 4, -1, 1, 2, 6, 5, -1, 2, 3, 7, 6, -1, 3, 0, 4, 7, -1 ] } },
Shape { appearance Appearance { material Material { diffuseColor 0.080 0.080 0.080 specularColor 0.25 0.25 0.25 shininess 0.30 } } geometry IndexedFaceSet { solid FALSE coord Coordinate { point [ -0.4921 -2.9921 3.3465, 0.4921 -2.9921 3.3465, 0.4921 2.9921 3.3465, -0.4921 2.9921 3.3465, -0.4921 -2.9921 4.3307, 0.4921 -2.9921 4.3307, 0.4921 2.9921 4.3307, -0.4921 2.9921 4.3307 ] } coordIndex [ 0, 3, 2, 1, -1, 4, 5, 6, 7, -1, 0, 1, 5, 4, -1, 1, 2, 6, 5, -1, 2, 3, 7, 6, -1, 3, 0, 4, 7, -1 ] } },
Shape { appearance Appearance { material Material { diffuseColor 0.720 0.720 0.700 specularColor 0.80 0.80 0.80 shininess 0.30 } } geometry IndexedFaceSet { solid FALSE coord Coordinate { point [ 0.3740 2.5000 4.9606, 0.3740 2.5000 5.1378, 0.3239 2.6870 4.9606, 0.3239 2.6870 5.1378, 0.1870 2.8239 4.9606, 0.1870 2.8239 5.1378, 0.0000 2.8740 4.9606, 0.0000 2.8740 5.1378, -0.1870 2.8239 4.9606, -0.1870 2.8239 5.1378, -0.3239 2.6870 4.9606, -0.3239 2.6870 5.1378, -0.3740 2.5000 4.9606, -0.3740 2.5000 5.1378, -0.3239 2.3130 4.9606, -0.3239 2.3130 5.1378, -0.1870 2.1761 4.9606, -0.1870 2.1761 5.1378, -0.0000 2.1260 4.9606, -0.0000 2.1260 5.1378, 0.1870 2.1761 4.9606, 0.1870 2.1761 5.1378, 0.3239 2.3130 4.9606, 0.3239 2.3130 5.1378 ] } coordIndex [ 0, 2, 3, 1, -1, 2, 4, 5, 3, -1, 4, 6, 7, 5, -1, 6, 8, 9, 7, -1, 8, 10, 11, 9, -1, 10, 12, 13, 11, -1, 12, 14, 15, 13, -1, 14, 16, 17, 15, -1, 16, 18, 19, 17, -1, 18, 20, 21, 19, -1, 20, 22, 23, 21, -1, 22, 0, 1, 23, -1, 22, 20, 18, 16, 14, 12, 10, 8, 6, 4, 2, 0, -1, 1, 3, 5, 7, 9, 11, 13, 15, 17, 19, 21, 23, -1 ] } },
Shape { appearance Appearance { material Material { diffuseColor 0.830 0.680 0.280 specularColor 0.70 0.70 0.70 shininess 0.30 } } geometry IndexedFaceSet { solid FALSE coord Coordinate { point [ -0.1260 2.3740 4.9606, 0.1260 2.3740 4.9606, 0.1260 2.6260 4.9606, -0.1260 2.6260 4.9606, -0.1260 2.3740 5.8268, 0.1260 2.3740 5.8268, 0.1260 2.6260 5.8268, -0.1260 2.6260 5.8268 ] } coordIndex [ 0, 3, 2, 1, -1, 4, 5, 6, 7, -1, 0, 1, 5, 4, -1, 1, 2, 6, 5, -1, 2, 3, 7, 6, -1, 3, 0, 4, 7, -1 ] } },
Shape { appearance Appearance { material Material { diffuseColor 0.720 0.720 0.700 specularColor 0.80 0.80 0.80 shininess 0.30 } } geometry IndexedFaceSet { solid FALSE coord Coordinate { point [ 0.3740 1.5000 4.9606, 0.3740 1.5000 5.1378, 0.3239 1.6870 4.9606, 0.3239 1.6870 5.1378, 0.1870 1.8239 4.9606, 0.1870 1.8239 5.1378, 0.0000 1.8740 4.9606, 0.0000 1.8740 5.1378, -0.1870 1.8239 4.9606, -0.1870 1.8239 5.1378, -0.3239 1.6870 4.9606, -0.3239 1.6870 5.1378, -0.3740 1.5000 4.9606, -0.3740 1.5000 5.1378, -0.3239 1.3130 4.9606, -0.3239 1.3130 5.1378, -0.1870 1.1761 4.9606, -0.1870 1.1761 5.1378, -0.0000 1.1260 4.9606, -0.0000 1.1260 5.1378, 0.1870 1.1761 4.9606, 0.1870 1.1761 5.1378, 0.3239 1.3130 4.9606, 0.3239 1.3130 5.1378 ] } coordIndex [ 0, 2, 3, 1, -1, 2, 4, 5, 3, -1, 4, 6, 7, 5, -1, 6, 8, 9, 7, -1, 8, 10, 11, 9, -1, 10, 12, 13, 11, -1, 12, 14, 15, 13, -1, 14, 16, 17, 15, -1, 16, 18, 19, 17, -1, 18, 20, 21, 19, -1, 20, 22, 23, 21, -1, 22, 0, 1, 23, -1, 22, 20, 18, 16, 14, 12, 10, 8, 6, 4, 2, 0, -1, 1, 3, 5, 7, 9, 11, 13, 15, 17, 19, 21, 23, -1 ] } },
Shape { appearance Appearance { material Material { diffuseColor 0.830 0.680 0.280 specularColor 0.70 0.70 0.70 shininess 0.30 } } geometry IndexedFaceSet { solid FALSE coord Coordinate { point [ -0.1260 1.3740 4.9606, 0.1260 1.3740 4.9606, 0.1260 1.6260 4.9606, -0.1260 1.6260 4.9606, -0.1260 1.3740 5.8268, 0.1260 1.3740 5.8268, 0.1260 1.6260 5.8268, -0.1260 1.6260 5.8268 ] } coordIndex [ 0, 3, 2, 1, -1, 4, 5, 6, 7, -1, 0, 1, 5, 4, -1, 1, 2, 6, 5, -1, 2, 3, 7, 6, -1, 3, 0, 4, 7, -1 ] } },
Shape { appearance Appearance { material Material { diffuseColor 0.720 0.720 0.700 specularColor 0.80 0.80 0.80 shininess 0.30 } } geometry IndexedFaceSet { solid FALSE coord Coordinate { point [ 0.3740 0.5000 4.9606, 0.3740 0.5000 5.1378, 0.3239 0.6870 4.9606, 0.3239 0.6870 5.1378, 0.1870 0.8239 4.9606, 0.1870 0.8239 5.1378, 0.0000 0.8740 4.9606, 0.0000 0.8740 5.1378, -0.1870 0.8239 4.9606, -0.1870 0.8239 5.1378, -0.3239 0.6870 4.9606, -0.3239 0.6870 5.1378, -0.3740 0.5000 4.9606, -0.3740 0.5000 5.1378, -0.3239 0.3130 4.9606, -0.3239 0.3130 5.1378, -0.1870 0.1761 4.9606, -0.1870 0.1761 5.1378, -0.0000 0.1260 4.9606, -0.0000 0.1260 5.1378, 0.1870 0.1761 4.9606, 0.1870 0.1761 5.1378, 0.3239 0.3130 4.9606, 0.3239 0.3130 5.1378 ] } coordIndex [ 0, 2, 3, 1, -1, 2, 4, 5, 3, -1, 4, 6, 7, 5, -1, 6, 8, 9, 7, -1, 8, 10, 11, 9, -1, 10, 12, 13, 11, -1, 12, 14, 15, 13, -1, 14, 16, 17, 15, -1, 16, 18, 19, 17, -1, 18, 20, 21, 19, -1, 20, 22, 23, 21, -1, 22, 0, 1, 23, -1, 22, 20, 18, 16, 14, 12, 10, 8, 6, 4, 2, 0, -1, 1, 3, 5, 7, 9, 11, 13, 15, 17, 19, 21, 23, -1 ] } },
Shape { appearance Appearance { material Material { diffuseColor 0.830 0.680 0.280 specularColor 0.70 0.70 0.70 shininess 0.30 } } geometry IndexedFaceSet { solid FALSE coord Coordinate { point [ -0.1260 0.3740 4.9606, 0.1260 0.3740 4.9606, 0.1260 0.6260 4.9606, -0.1260 0.6260 4.9606, -0.1260 0.3740 5.8268, 0.1260 0.3740 5.8268, 0.1260 0.6260 5.8268, -0.1260 0.6260 5.8268 ] } coordIndex [ 0, 3, 2, 1, -1, 4, 5, 6, 7, -1, 0, 1, 5, 4, -1, 1, 2, 6, 5, -1, 2, 3, 7, 6, -1, 3, 0, 4, 7, -1 ] } },
Shape { appearance Appearance { material Material { diffuseColor 0.720 0.720 0.700 specularColor 0.80 0.80 0.80 shininess 0.30 } } geometry IndexedFaceSet { solid FALSE coord Coordinate { point [ 0.3740 -0.5000 4.9606, 0.3740 -0.5000 5.1378, 0.3239 -0.3130 4.9606, 0.3239 -0.3130 5.1378, 0.1870 -0.1761 4.9606, 0.1870 -0.1761 5.1378, 0.0000 -0.1260 4.9606, 0.0000 -0.1260 5.1378, -0.1870 -0.1761 4.9606, -0.1870 -0.1761 5.1378, -0.3239 -0.3130 4.9606, -0.3239 -0.3130 5.1378, -0.3740 -0.5000 4.9606, -0.3740 -0.5000 5.1378, -0.3239 -0.6870 4.9606, -0.3239 -0.6870 5.1378, -0.1870 -0.8239 4.9606, -0.1870 -0.8239 5.1378, -0.0000 -0.8740 4.9606, -0.0000 -0.8740 5.1378, 0.1870 -0.8239 4.9606, 0.1870 -0.8239 5.1378, 0.3239 -0.6870 4.9606, 0.3239 -0.6870 5.1378 ] } coordIndex [ 0, 2, 3, 1, -1, 2, 4, 5, 3, -1, 4, 6, 7, 5, -1, 6, 8, 9, 7, -1, 8, 10, 11, 9, -1, 10, 12, 13, 11, -1, 12, 14, 15, 13, -1, 14, 16, 17, 15, -1, 16, 18, 19, 17, -1, 18, 20, 21, 19, -1, 20, 22, 23, 21, -1, 22, 0, 1, 23, -1, 22, 20, 18, 16, 14, 12, 10, 8, 6, 4, 2, 0, -1, 1, 3, 5, 7, 9, 11, 13, 15, 17, 19, 21, 23, -1 ] } },
Shape { appearance Appearance { material Material { diffuseColor 0.830 0.680 0.280 specularColor 0.70 0.70 0.70 shininess 0.30 } } geometry IndexedFaceSet { solid FALSE coord Coordinate { point [ -0.1260 -0.6260 4.9606, 0.1260 -0.6260 4.9606, 0.1260 -0.3740 4.9606, -0.1260 -0.3740 4.9606, -0.1260 -0.6260 5.8268, 0.1260 -0.6260 5.8268, 0.1260 -0.3740 5.8268, -0.1260 -0.3740 5.8268 ] } coordIndex [ 0, 3, 2, 1, -1, 4, 5, 6, 7, -1, 0, 1, 5, 4, -1, 1, 2, 6, 5, -1, 2, 3, 7, 6, -1, 3, 0, 4, 7, -1 ] } },
Shape { appearance Appearance { material Material { diffuseColor 0.720 0.720 0.700 specularColor 0.80 0.80 0.80 shininess 0.30 } } geometry IndexedFaceSet { solid FALSE coord Coordinate { point [ 0.3740 -1.5000 4.9606, 0.3740 -1.5000 5.1378, 0.3239 -1.3130 4.9606, 0.3239 -1.3130 5.1378, 0.1870 -1.1761 4.9606, 0.1870 -1.1761 5.1378, 0.0000 -1.1260 4.9606, 0.0000 -1.1260 5.1378, -0.1870 -1.1761 4.9606, -0.1870 -1.1761 5.1378, -0.3239 -1.3130 4.9606, -0.3239 -1.3130 5.1378, -0.3740 -1.5000 4.9606, -0.3740 -1.5000 5.1378, -0.3239 -1.6870 4.9606, -0.3239 -1.6870 5.1378, -0.1870 -1.8239 4.9606, -0.1870 -1.8239 5.1378, -0.0000 -1.8740 4.9606, -0.0000 -1.8740 5.1378, 0.1870 -1.8239 4.9606, 0.1870 -1.8239 5.1378, 0.3239 -1.6870 4.9606, 0.3239 -1.6870 5.1378 ] } coordIndex [ 0, 2, 3, 1, -1, 2, 4, 5, 3, -1, 4, 6, 7, 5, -1, 6, 8, 9, 7, -1, 8, 10, 11, 9, -1, 10, 12, 13, 11, -1, 12, 14, 15, 13, -1, 14, 16, 17, 15, -1, 16, 18, 19, 17, -1, 18, 20, 21, 19, -1, 20, 22, 23, 21, -1, 22, 0, 1, 23, -1, 22, 20, 18, 16, 14, 12, 10, 8, 6, 4, 2, 0, -1, 1, 3, 5, 7, 9, 11, 13, 15, 17, 19, 21, 23, -1 ] } },
Shape { appearance Appearance { material Material { diffuseColor 0.830 0.680 0.280 specularColor 0.70 0.70 0.70 shininess 0.30 } } geometry IndexedFaceSet { solid FALSE coord Coordinate { point [ -0.1260 -1.6260 4.9606, 0.1260 -1.6260 4.9606, 0.1260 -1.3740 4.9606, -0.1260 -1.3740 4.9606, -0.1260 -1.6260 5.8268, 0.1260 -1.6260 5.8268, 0.1260 -1.3740 5.8268, -0.1260 -1.3740 5.8268 ] } coordIndex [ 0, 3, 2, 1, -1, 4, 5, 6, 7, -1, 0, 1, 5, 4, -1, 1, 2, 6, 5, -1, 2, 3, 7, 6, -1, 3, 0, 4, 7, -1 ] } },
Shape { appearance Appearance { material Material { diffuseColor 0.720 0.720 0.700 specularColor 0.80 0.80 0.80 shininess 0.30 } } geometry IndexedFaceSet { solid FALSE coord Coordinate { point [ 0.3740 -2.5000 4.9606, 0.3740 -2.5000 5.1378, 0.3239 -2.3130 4.9606, 0.3239 -2.3130 5.1378, 0.1870 -2.1761 4.9606, 0.1870 -2.1761 5.1378, 0.0000 -2.1260 4.9606, 0.0000 -2.1260 5.1378, -0.1870 -2.1761 4.9606, -0.1870 -2.1761 5.1378, -0.3239 -2.3130 4.9606, -0.3239 -2.3130 5.1378, -0.3740 -2.5000 4.9606, -0.3740 -2.5000 5.1378, -0.3239 -2.6870 4.9606, -0.3239 -2.6870 5.1378, -0.1870 -2.8239 4.9606, -0.1870 -2.8239 5.1378, -0.0000 -2.8740 4.9606, -0.0000 -2.8740 5.1378, 0.1870 -2.8239 4.9606, 0.1870 -2.8239 5.1378, 0.3239 -2.6870 4.9606, 0.3239 -2.6870 5.1378 ] } coordIndex [ 0, 2, 3, 1, -1, 2, 4, 5, 3, -1, 4, 6, 7, 5, -1, 6, 8, 9, 7, -1, 8, 10, 11, 9, -1, 10, 12, 13, 11, -1, 12, 14, 15, 13, -1, 14, 16, 17, 15, -1, 16, 18, 19, 17, -1, 18, 20, 21, 19, -1, 20, 22, 23, 21, -1, 22, 0, 1, 23, -1, 22, 20, 18, 16, 14, 12, 10, 8, 6, 4, 2, 0, -1, 1, 3, 5, 7, 9, 11, 13, 15, 17, 19, 21, 23, -1 ] } },
Shape { appearance Appearance { material Material { diffuseColor 0.830 0.680 0.280 specularColor 0.70 0.70 0.70 shininess 0.30 } } geometry IndexedFaceSet { solid FALSE coord Coordinate { point [ -0.1260 -2.6260 4.9606, 0.1260 -2.6260 4.9606, 0.1260 -2.3740 4.9606, -0.1260 -2.3740 4.9606, -0.1260 -2.6260 5.8268, 0.1260 -2.6260 5.8268, 0.1260 -2.3740 5.8268, -0.1260 -2.3740 5.8268 ] } coordIndex [ 0, 3, 2, 1, -1, 4, 5, 6, 7, -1, 0, 1, 5, 4, -1, 1, 2, 6, 5, -1, 2, 3, 7, 6, -1, 3, 0, 4, 7, -1 ] } },
Shape { appearance Appearance { material Material { diffuseColor 0.080 0.080 0.080 specularColor 0.10 0.10 0.10 shininess 0.30 } } geometry IndexedFaceSet { solid FALSE coord Coordinate { point [ -5.2756 0.0000 4.9606, -5.2756 0.0000 5.8268, -5.3113 0.5447 4.9606, -5.3113 0.5447 5.8268, -5.4178 1.0801 4.9606, -5.4178 1.0801 5.8268, -5.5933 1.5970 4.9606, -5.5933 1.5970 5.8268, -5.8347 2.0866 4.9606, -5.8347 2.0866 5.8268, -6.1380 2.5405 4.9606, -6.1380 2.5405 5.8268, -6.4979 2.9509 4.9606, -6.4979 2.9509 5.8268, -6.9083 3.3108 4.9606, -6.9083 3.3108 5.8268, -7.3622 3.6141 4.9606, -7.3622 3.6141 5.8268, -7.8518 3.8556 4.9606, -7.8518 3.8556 5.8268, -8.3687 4.0310 4.9606, -8.3687 4.0310 5.8268, -8.9041 4.1375 4.9606, -8.9041 4.1375 5.8268, -9.4488 4.1732 4.9606, -9.4488 4.1732 5.8268, -9.9935 4.1375 4.9606, -9.9935 4.1375 5.8268, -10.5289 4.0310 4.9606, -10.5289 4.0310 5.8268, -11.0458 3.8556 4.9606, -11.0458 3.8556 5.8268, -11.5354 3.6141 4.9606, -11.5354 3.6141 5.8268, -11.9893 3.3108 4.9606, -11.9893 3.3108 5.8268, -12.3997 2.9509 4.9606, -12.3997 2.9509 5.8268, -12.7597 2.5405 4.9606, -12.7597 2.5405 5.8268, -13.0629 2.0866 4.9606, -13.0629 2.0866 5.8268, -13.3044 1.5970 4.9606, -13.3044 1.5970 5.8268, -13.4798 1.0801 4.9606, -13.4798 1.0801 5.8268, -13.5863 0.5447 4.9606, -13.5863 0.5447 5.8268, -13.6220 0.0000 4.9606, -13.6220 0.0000 5.8268, -13.5863 -0.5447 4.9606, -13.5863 -0.5447 5.8268, -13.4798 -1.0801 4.9606, -13.4798 -1.0801 5.8268, -13.3044 -1.5970 4.9606, -13.3044 -1.5970 5.8268, -13.0629 -2.0866 4.9606, -13.0629 -2.0866 5.8268, -12.7597 -2.5405 4.9606, -12.7597 -2.5405 5.8268, -12.3997 -2.9509 4.9606, -12.3997 -2.9509 5.8268, -11.9893 -3.3108 4.9606, -11.9893 -3.3108 5.8268, -11.5354 -3.6141 4.9606, -11.5354 -3.6141 5.8268, -11.0458 -3.8556 4.9606, -11.0458 -3.8556 5.8268, -10.5289 -4.0310 4.9606, -10.5289 -4.0310 5.8268, -9.9935 -4.1375 4.9606, -9.9935 -4.1375 5.8268, -9.4488 -4.1732 4.9606, -9.4488 -4.1732 5.8268, -8.9041 -4.1375 4.9606, -8.9041 -4.1375 5.8268, -8.3687 -4.0310 4.9606, -8.3687 -4.0310 5.8268, -7.8518 -3.8556 4.9606, -7.8518 -3.8556 5.8268, -7.3622 -3.6141 4.9606, -7.3622 -3.6141 5.8268, -6.9083 -3.3108 4.9606, -6.9083 -3.3108 5.8268, -6.4979 -2.9509 4.9606, -6.4979 -2.9509 5.8268, -6.1380 -2.5405 4.9606, -6.1380 -2.5405 5.8268, -5.8347 -2.0866 4.9606, -5.8347 -2.0866 5.8268, -5.5933 -1.5970 4.9606, -5.5933 -1.5970 5.8268, -5.4178 -1.0801 4.9606, -5.4178 -1.0801 5.8268, -5.3113 -0.5447 4.9606, -5.3113 -0.5447 5.8268 ] } coordIndex [ 0, 2, 3, 1, -1, 2, 4, 5, 3, -1, 4, 6, 7, 5, -1, 6, 8, 9, 7, -1, 8, 10, 11, 9, -1, 10, 12, 13, 11, -1, 12, 14, 15, 13, -1, 14, 16, 17, 15, -1, 16, 18, 19, 17, -1, 18, 20, 21, 19, -1, 20, 22, 23, 21, -1, 22, 24, 25, 23, -1, 24, 26, 27, 25, -1, 26, 28, 29, 27, -1, 28, 30, 31, 29, -1, 30, 32, 33, 31, -1, 32, 34, 35, 33, -1, 34, 36, 37, 35, -1, 36, 38, 39, 37, -1, 38, 40, 41, 39, -1, 40, 42, 43, 41, -1, 42, 44, 45, 43, -1, 44, 46, 47, 45, -1, 46, 48, 49, 47, -1, 48, 50, 51, 49, -1, 50, 52, 53, 51, -1, 52, 54, 55, 53, -1, 54, 56, 57, 55, -1, 56, 58, 59, 57, -1, 58, 60, 61, 59, -1, 60, 62, 63, 61, -1, 62, 64, 65, 63, -1, 64, 66, 67, 65, -1, 66, 68, 69, 67, -1, 68, 70, 71, 69, -1, 70, 72, 73, 71, -1, 72, 74, 75, 73, -1, 74, 76, 77, 75, -1, 76, 78, 79, 77, -1, 78, 80, 81, 79, -1, 80, 82, 83, 81, -1, 82, 84, 85, 83, -1, 84, 86, 87, 85, -1, 86, 88, 89, 87, -1, 88, 90, 91, 89, -1, 90, 92, 93, 91, -1, 92, 94, 95, 93, -1, 94, 0, 1, 95, -1, 94, 92, 90, 88, 86, 84, 82, 80, 78, 76, 74, 72, 70, 68, 66, 64, 62, 60, 58, 56, 54, 52, 50, 48, 46, 44, 42, 40, 38, 36, 34, 32, 30, 28, 26, 24, 22, 20, 18, 16, 14, 12, 10, 8, 6, 4, 2, 0, -1, 1, 3, 5, 7, 9, 11, 13, 15, 17, 19, 21, 23, 25, 27, 29, 31, 33, 35, 37, 39, 41, 43, 45, 47, 49, 51, 53, 55, 57, 59, 61, 63, 65, 67, 69, 71, 73, 75, 77, 79, 81, 83, 85, 87, 89, 91, 93, 95, -1 ] } },
Shape { appearance Appearance { material Material { diffuseColor 0.600 0.610 0.640 specularColor 0.90 0.90 0.90 shininess 0.30 } } geometry IndexedFaceSet { solid FALSE coord Coordinate { point [ -5.5118 0.0000 5.8268, -5.5118 0.0000 7.0866, -5.5455 0.5139 5.8268, -5.5455 0.5139 7.0866, -5.6460 1.0190 5.8268, -5.6460 1.0190 7.0866, -5.8115 1.5066 5.8268, -5.8115 1.5066 7.0866, -6.0393 1.9685 5.8268, -6.0393 1.9685 7.0866, -6.3254 2.3967 5.8268, -6.3254 2.3967 7.0866, -6.6649 2.7839 5.8268, -6.6649 2.7839 7.0866, -7.0521 3.1234 5.8268, -7.0521 3.1234 7.0866, -7.4803 3.4095 5.8268, -7.4803 3.4095 7.0866, -7.9422 3.6373 5.8268, -7.9422 3.6373 7.0866, -8.4298 3.8029 5.8268, -8.4298 3.8029 7.0866, -8.9349 3.9033 5.8268, -8.9349 3.9033 7.0866, -9.4488 3.9370 5.8268, -9.4488 3.9370 7.0866, -9.9627 3.9033 5.8268, -9.9627 3.9033 7.0866, -10.4678 3.8029 5.8268, -10.4678 3.8029 7.0866, -10.9554 3.6373 5.8268, -10.9554 3.6373 7.0866, -11.4173 3.4095 5.8268, -11.4173 3.4095 7.0866, -11.8455 3.1234 5.8268, -11.8455 3.1234 7.0866, -12.2327 2.7839 5.8268, -12.2327 2.7839 7.0866, -12.5723 2.3967 5.8268, -12.5723 2.3967 7.0866, -12.8584 1.9685 5.8268, -12.8584 1.9685 7.0866, -13.0861 1.5066 5.8268, -13.0861 1.5066 7.0866, -13.2517 1.0190 5.8268, -13.2517 1.0190 7.0866, -13.3521 0.5139 5.8268, -13.3521 0.5139 7.0866, -13.3858 0.0000 5.8268, -13.3858 0.0000 7.0866, -13.3521 -0.5139 5.8268, -13.3521 -0.5139 7.0866, -13.2517 -1.0190 5.8268, -13.2517 -1.0190 7.0866, -13.0861 -1.5066 5.8268, -13.0861 -1.5066 7.0866, -12.8584 -1.9685 5.8268, -12.8584 -1.9685 7.0866, -12.5723 -2.3967 5.8268, -12.5723 -2.3967 7.0866, -12.2327 -2.7839 5.8268, -12.2327 -2.7839 7.0866, -11.8455 -3.1234 5.8268, -11.8455 -3.1234 7.0866, -11.4173 -3.4095 5.8268, -11.4173 -3.4095 7.0866, -10.9554 -3.6373 5.8268, -10.9554 -3.6373 7.0866, -10.4678 -3.8029 5.8268, -10.4678 -3.8029 7.0866, -9.9627 -3.9033 5.8268, -9.9627 -3.9033 7.0866, -9.4488 -3.9370 5.8268, -9.4488 -3.9370 7.0866, -8.9349 -3.9033 5.8268, -8.9349 -3.9033 7.0866, -8.4298 -3.8029 5.8268, -8.4298 -3.8029 7.0866, -7.9422 -3.6373 5.8268, -7.9422 -3.6373 7.0866, -7.4803 -3.4095 5.8268, -7.4803 -3.4095 7.0866, -7.0521 -3.1234 5.8268, -7.0521 -3.1234 7.0866, -6.6649 -2.7839 5.8268, -6.6649 -2.7839 7.0866, -6.3254 -2.3967 5.8268, -6.3254 -2.3967 7.0866, -6.0393 -1.9685 5.8268, -6.0393 -1.9685 7.0866, -5.8115 -1.5066 5.8268, -5.8115 -1.5066 7.0866, -5.6460 -1.0190 5.8268, -5.6460 -1.0190 7.0866, -5.5455 -0.5139 5.8268, -5.5455 -0.5139 7.0866 ] } coordIndex [ 0, 2, 3, 1, -1, 2, 4, 5, 3, -1, 4, 6, 7, 5, -1, 6, 8, 9, 7, -1, 8, 10, 11, 9, -1, 10, 12, 13, 11, -1, 12, 14, 15, 13, -1, 14, 16, 17, 15, -1, 16, 18, 19, 17, -1, 18, 20, 21, 19, -1, 20, 22, 23, 21, -1, 22, 24, 25, 23, -1, 24, 26, 27, 25, -1, 26, 28, 29, 27, -1, 28, 30, 31, 29, -1, 30, 32, 33, 31, -1, 32, 34, 35, 33, -1, 34, 36, 37, 35, -1, 36, 38, 39, 37, -1, 38, 40, 41, 39, -1, 40, 42, 43, 41, -1, 42, 44, 45, 43, -1, 44, 46, 47, 45, -1, 46, 48, 49, 47, -1, 48, 50, 51, 49, -1, 50, 52, 53, 51, -1, 52, 54, 55, 53, -1, 54, 56, 57, 55, -1, 56, 58, 59, 57, -1, 58, 60, 61, 59, -1, 60, 62, 63, 61, -1, 62, 64, 65, 63, -1, 64, 66, 67, 65, -1, 66, 68, 69, 67, -1, 68, 70, 71, 69, -1, 70, 72, 73, 71, -1, 72, 74, 75, 73, -1, 74, 76, 77, 75, -1, 76, 78, 79, 77, -1, 78, 80, 81, 79, -1, 80, 82, 83, 81, -1, 82, 84, 85, 83, -1, 84, 86, 87, 85, -1, 86, 88, 89, 87, -1, 88, 90, 91, 89, -1, 90, 92, 93, 91, -1, 92, 94, 95, 93, -1, 94, 0, 1, 95, -1, 94, 92, 90, 88, 86, 84, 82, 80, 78, 76, 74, 72, 70, 68, 66, 64, 62, 60, 58, 56, 54, 52, 50, 48, 46, 44, 42, 40, 38, 36, 34, 32, 30, 28, 26, 24, 22, 20, 18, 16, 14, 12, 10, 8, 6, 4, 2, 0, -1, 1, 3, 5, 7, 9, 11, 13, 15, 17, 19, 21, 23, 25, 27, 29, 31, 33, 35, 37, 39, 41, 43, 45, 47, 49, 51, 53, 55, 57, 59, 61, 63, 65, 67, 69, 71, 73, 75, 77, 79, 81, 83, 85, 87, 89, 91, 93, 95, -1 ] } },
Shape { appearance Appearance { material Material { diffuseColor 0.350 0.360 0.380 specularColor 0.40 0.40 0.40 shininess 0.30 } } geometry IndexedFaceSet { solid FALSE coord Coordinate { point [ -6.1024 0.0000 7.0866, -6.1024 0.0000 7.0945, -6.1310 0.4368 7.0866, -6.1310 0.4368 7.0945, -6.2164 0.8661 7.0866, -6.2164 0.8661 7.0945, -6.3571 1.2806 7.0866, -6.3571 1.2806 7.0945, -6.5507 1.6732 7.0866, -6.5507 1.6732 7.0945, -6.7939 2.0372 7.0866, -6.7939 2.0372 7.0945, -7.0825 2.3663 7.0866, -7.0825 2.3663 7.0945, -7.4116 2.6549 7.0866, -7.4116 2.6549 7.0945, -7.7756 2.8981 7.0866, -7.7756 2.8981 7.0945, -8.1682 3.0917 7.0866, -8.1682 3.0917 7.0945, -8.5827 3.2324 7.0866, -8.5827 3.2324 7.0945, -9.0120 3.3178 7.0866, -9.0120 3.3178 7.0945, -9.4488 3.3465 7.0866, -9.4488 3.3465 7.0945, -9.8856 3.3178 7.0866, -9.8856 3.3178 7.0945, -10.3149 3.2324 7.0866, -10.3149 3.2324 7.0945, -10.7295 3.0917 7.0866, -10.7295 3.0917 7.0945, -11.1220 2.8981 7.0866, -11.1220 2.8981 7.0945, -11.4860 2.6549 7.0866, -11.4860 2.6549 7.0945, -11.8151 2.3663 7.0866, -11.8151 2.3663 7.0945, -12.1037 2.0372 7.0866, -12.1037 2.0372 7.0945, -12.3469 1.6732 7.0866, -12.3469 1.6732 7.0945, -12.5405 1.2806 7.0866, -12.5405 1.2806 7.0945, -12.6812 0.8661 7.0866, -12.6812 0.8661 7.0945, -12.7666 0.4368 7.0866, -12.7666 0.4368 7.0945, -12.7953 0.0000 7.0866, -12.7953 0.0000 7.0945, -12.7666 -0.4368 7.0866, -12.7666 -0.4368 7.0945, -12.6812 -0.8661 7.0866, -12.6812 -0.8661 7.0945, -12.5405 -1.2806 7.0866, -12.5405 -1.2806 7.0945, -12.3469 -1.6732 7.0866, -12.3469 -1.6732 7.0945, -12.1037 -2.0372 7.0866, -12.1037 -2.0372 7.0945, -11.8151 -2.3663 7.0866, -11.8151 -2.3663 7.0945, -11.4860 -2.6549 7.0866, -11.4860 -2.6549 7.0945, -11.1220 -2.8981 7.0866, -11.1220 -2.8981 7.0945, -10.7295 -3.0917 7.0866, -10.7295 -3.0917 7.0945, -10.3149 -3.2324 7.0866, -10.3149 -3.2324 7.0945, -9.8856 -3.3178 7.0866, -9.8856 -3.3178 7.0945, -9.4488 -3.3465 7.0866, -9.4488 -3.3465 7.0945, -9.0120 -3.3178 7.0866, -9.0120 -3.3178 7.0945, -8.5827 -3.2324 7.0866, -8.5827 -3.2324 7.0945, -8.1682 -3.0917 7.0866, -8.1682 -3.0917 7.0945, -7.7756 -2.8981 7.0866, -7.7756 -2.8981 7.0945, -7.4116 -2.6549 7.0866, -7.4116 -2.6549 7.0945, -7.0825 -2.3663 7.0866, -7.0825 -2.3663 7.0945, -6.7939 -2.0372 7.0866, -6.7939 -2.0372 7.0945, -6.5507 -1.6732 7.0866, -6.5507 -1.6732 7.0945, -6.3571 -1.2806 7.0866, -6.3571 -1.2806 7.0945, -6.2164 -0.8661 7.0866, -6.2164 -0.8661 7.0945, -6.1310 -0.4368 7.0866, -6.1310 -0.4368 7.0945 ] } coordIndex [ 0, 2, 3, 1, -1, 2, 4, 5, 3, -1, 4, 6, 7, 5, -1, 6, 8, 9, 7, -1, 8, 10, 11, 9, -1, 10, 12, 13, 11, -1, 12, 14, 15, 13, -1, 14, 16, 17, 15, -1, 16, 18, 19, 17, -1, 18, 20, 21, 19, -1, 20, 22, 23, 21, -1, 22, 24, 25, 23, -1, 24, 26, 27, 25, -1, 26, 28, 29, 27, -1, 28, 30, 31, 29, -1, 30, 32, 33, 31, -1, 32, 34, 35, 33, -1, 34, 36, 37, 35, -1, 36, 38, 39, 37, -1, 38, 40, 41, 39, -1, 40, 42, 43, 41, -1, 42, 44, 45, 43, -1, 44, 46, 47, 45, -1, 46, 48, 49, 47, -1, 48, 50, 51, 49, -1, 50, 52, 53, 51, -1, 52, 54, 55, 53, -1, 54, 56, 57, 55, -1, 56, 58, 59, 57, -1, 58, 60, 61, 59, -1, 60, 62, 63, 61, -1, 62, 64, 65, 63, -1, 64, 66, 67, 65, -1, 66, 68, 69, 67, -1, 68, 70, 71, 69, -1, 70, 72, 73, 71, -1, 72, 74, 75, 73, -1, 74, 76, 77, 75, -1, 76, 78, 79, 77, -1, 78, 80, 81, 79, -1, 80, 82, 83, 81, -1, 82, 84, 85, 83, -1, 84, 86, 87, 85, -1, 86, 88, 89, 87, -1, 88, 90, 91, 89, -1, 90, 92, 93, 91, -1, 92, 94, 95, 93, -1, 94, 0, 1, 95, -1, 94, 92, 90, 88, 86, 84, 82, 80, 78, 76, 74, 72, 70, 68, 66, 64, 62, 60, 58, 56, 54, 52, 50, 48, 46, 44, 42, 40, 38, 36, 34, 32, 30, 28, 26, 24, 22, 20, 18, 16, 14, 12, 10, 8, 6, 4, 2, 0, -1, 1, 3, 5, 7, 9, 11, 13, 15, 17, 19, 21, 23, 25, 27, 29, 31, 33, 35, 37, 39, 41, 43, 45, 47, 49, 51, 53, 55, 57, 59, 61, 63, 65, 67, 69, 71, 73, 75, 77, 79, 81, 83, 85, 87, 89, 91, 93, 95, -1 ] } },
Shape { appearance Appearance { material Material { diffuseColor 0.600 0.610 0.640 specularColor 0.90 0.90 0.90 shininess 0.30 } } geometry IndexedFaceSet { solid FALSE coord Coordinate { point [ -10.0394 -4.3307 7.1063, -8.8583 -4.3307 7.1063, -8.8583 4.3307 7.1063, -10.0394 4.3307 7.1063, -10.0394 -4.3307 7.2441, -8.8583 -4.3307 7.2441, -8.8583 4.3307 7.2441, -10.0394 4.3307 7.2441 ] } coordIndex [ 0, 3, 2, 1, -1, 4, 5, 6, 7, -1, 0, 1, 5, 4, -1, 1, 2, 6, 5, -1, 2, 3, 7, 6, -1, 3, 0, 4, 7, -1 ] } },
Shape { appearance Appearance { material Material { diffuseColor 0.050 0.050 0.050 specularColor 0.15 0.15 0.15 shininess 0.30 } } geometry IndexedFaceSet { solid FALSE coord Coordinate { point [ -4.7835 -0.6890 5.0000, -0.7283 -0.6890 5.0000, -0.7283 2.2638 5.0000, -4.7835 2.2638 5.0000, -4.7835 -0.6890 5.5906, -0.7283 -0.6890 5.5906, -0.7283 2.2638 5.5906, -4.7835 2.2638 5.5906 ] } coordIndex [ 0, 3, 2, 1, -1, 4, 5, 6, 7, -1, 0, 1, 5, 4, -1, 1, 2, 6, 5, -1, 2, 3, 7, 6, -1, 3, 0, 4, 7, -1 ] } },
Shape { appearance Appearance { material Material { diffuseColor 0.600 0.610 0.640 specularColor 0.60 0.60 0.60 shininess 0.30 } } geometry IndexedFaceSet { solid FALSE coord Coordinate { point [ -4.5846 -1.0827 4.9606, -4.4272 -1.0827 4.9606, -4.4272 -0.6890 4.9606, -4.5846 -0.6890 4.9606, -4.5846 -1.0827 5.1575, -4.4272 -1.0827 5.1575, -4.4272 -0.6890 5.1575, -4.5846 -0.6890 5.1575 ] } coordIndex [ 0, 3, 2, 1, -1, 4, 5, 6, 7, -1, 0, 1, 5, 4, -1, 1, 2, 6, 5, -1, 2, 3, 7, 6, -1, 3, 0, 4, 7, -1 ] } },
Shape { appearance Appearance { material Material { diffuseColor 0.600 0.610 0.640 specularColor 0.60 0.60 0.60 shininess 0.30 } } geometry IndexedFaceSet { solid FALSE coord Coordinate { point [ -4.5846 2.2638 4.9606, -4.4272 2.2638 4.9606, -4.4272 2.6575 4.9606, -4.5846 2.6575 4.9606, -4.5846 2.2638 5.1575, -4.4272 2.2638 5.1575, -4.4272 2.6575 5.1575, -4.5846 2.6575 5.1575 ] } coordIndex [ 0, 3, 2, 1, -1, 4, 5, 6, 7, -1, 0, 1, 5, 4, -1, 1, 2, 6, 5, -1, 2, 3, 7, 6, -1, 3, 0, 4, 7, -1 ] } },
Shape { appearance Appearance { material Material { diffuseColor 0.600 0.610 0.640 specularColor 0.60 0.60 0.60 shininess 0.30 } } geometry IndexedFaceSet { solid FALSE coord Coordinate { point [ -4.0846 -1.0827 4.9606, -3.9272 -1.0827 4.9606, -3.9272 -0.6890 4.9606, -4.0846 -0.6890 4.9606, -4.0846 -1.0827 5.1575, -3.9272 -1.0827 5.1575, -3.9272 -0.6890 5.1575, -4.0846 -0.6890 5.1575 ] } coordIndex [ 0, 3, 2, 1, -1, 4, 5, 6, 7, -1, 0, 1, 5, 4, -1, 1, 2, 6, 5, -1, 2, 3, 7, 6, -1, 3, 0, 4, 7, -1 ] } },
Shape { appearance Appearance { material Material { diffuseColor 0.600 0.610 0.640 specularColor 0.60 0.60 0.60 shininess 0.30 } } geometry IndexedFaceSet { solid FALSE coord Coordinate { point [ -4.0846 2.2638 4.9606, -3.9272 2.2638 4.9606, -3.9272 2.6575 4.9606, -4.0846 2.6575 4.9606, -4.0846 2.2638 5.1575, -3.9272 2.2638 5.1575, -3.9272 2.6575 5.1575, -4.0846 2.6575 5.1575 ] } coordIndex [ 0, 3, 2, 1, -1, 4, 5, 6, 7, -1, 0, 1, 5, 4, -1, 1, 2, 6, 5, -1, 2, 3, 7, 6, -1, 3, 0, 4, 7, -1 ] } },
Shape { appearance Appearance { material Material { diffuseColor 0.600 0.610 0.640 specularColor 0.60 0.60 0.60 shininess 0.30 } } geometry IndexedFaceSet { solid FALSE coord Coordinate { point [ -3.5846 -1.0827 4.9606, -3.4272 -1.0827 4.9606, -3.4272 -0.6890 4.9606, -3.5846 -0.6890 4.9606, -3.5846 -1.0827 5.1575, -3.4272 -1.0827 5.1575, -3.4272 -0.6890 5.1575, -3.5846 -0.6890 5.1575 ] } coordIndex [ 0, 3, 2, 1, -1, 4, 5, 6, 7, -1, 0, 1, 5, 4, -1, 1, 2, 6, 5, -1, 2, 3, 7, 6, -1, 3, 0, 4, 7, -1 ] } },
Shape { appearance Appearance { material Material { diffuseColor 0.600 0.610 0.640 specularColor 0.60 0.60 0.60 shininess 0.30 } } geometry IndexedFaceSet { solid FALSE coord Coordinate { point [ -3.5846 2.2638 4.9606, -3.4272 2.2638 4.9606, -3.4272 2.6575 4.9606, -3.5846 2.6575 4.9606, -3.5846 2.2638 5.1575, -3.4272 2.2638 5.1575, -3.4272 2.6575 5.1575, -3.5846 2.6575 5.1575 ] } coordIndex [ 0, 3, 2, 1, -1, 4, 5, 6, 7, -1, 0, 1, 5, 4, -1, 1, 2, 6, 5, -1, 2, 3, 7, 6, -1, 3, 0, 4, 7, -1 ] } },
Shape { appearance Appearance { material Material { diffuseColor 0.600 0.610 0.640 specularColor 0.60 0.60 0.60 shininess 0.30 } } geometry IndexedFaceSet { solid FALSE coord Coordinate { point [ -3.0846 -1.0827 4.9606, -2.9272 -1.0827 4.9606, -2.9272 -0.6890 4.9606, -3.0846 -0.6890 4.9606, -3.0846 -1.0827 5.1575, -2.9272 -1.0827 5.1575, -2.9272 -0.6890 5.1575, -3.0846 -0.6890 5.1575 ] } coordIndex [ 0, 3, 2, 1, -1, 4, 5, 6, 7, -1, 0, 1, 5, 4, -1, 1, 2, 6, 5, -1, 2, 3, 7, 6, -1, 3, 0, 4, 7, -1 ] } },
Shape { appearance Appearance { material Material { diffuseColor 0.600 0.610 0.640 specularColor 0.60 0.60 0.60 shininess 0.30 } } geometry IndexedFaceSet { solid FALSE coord Coordinate { point [ -3.0846 2.2638 4.9606, -2.9272 2.2638 4.9606, -2.9272 2.6575 4.9606, -3.0846 2.6575 4.9606, -3.0846 2.2638 5.1575, -2.9272 2.2638 5.1575, -2.9272 2.6575 5.1575, -3.0846 2.6575 5.1575 ] } coordIndex [ 0, 3, 2, 1, -1, 4, 5, 6, 7, -1, 0, 1, 5, 4, -1, 1, 2, 6, 5, -1, 2, 3, 7, 6, -1, 3, 0, 4, 7, -1 ] } },
Shape { appearance Appearance { material Material { diffuseColor 0.600 0.610 0.640 specularColor 0.60 0.60 0.60 shininess 0.30 } } geometry IndexedFaceSet { solid FALSE coord Coordinate { point [ -2.5846 -1.0827 4.9606, -2.4272 -1.0827 4.9606, -2.4272 -0.6890 4.9606, -2.5846 -0.6890 4.9606, -2.5846 -1.0827 5.1575, -2.4272 -1.0827 5.1575, -2.4272 -0.6890 5.1575, -2.5846 -0.6890 5.1575 ] } coordIndex [ 0, 3, 2, 1, -1, 4, 5, 6, 7, -1, 0, 1, 5, 4, -1, 1, 2, 6, 5, -1, 2, 3, 7, 6, -1, 3, 0, 4, 7, -1 ] } },
Shape { appearance Appearance { material Material { diffuseColor 0.600 0.610 0.640 specularColor 0.60 0.60 0.60 shininess 0.30 } } geometry IndexedFaceSet { solid FALSE coord Coordinate { point [ -2.5846 2.2638 4.9606, -2.4272 2.2638 4.9606, -2.4272 2.6575 4.9606, -2.5846 2.6575 4.9606, -2.5846 2.2638 5.1575, -2.4272 2.2638 5.1575, -2.4272 2.6575 5.1575, -2.5846 2.6575 5.1575 ] } coordIndex [ 0, 3, 2, 1, -1, 4, 5, 6, 7, -1, 0, 1, 5, 4, -1, 1, 2, 6, 5, -1, 2, 3, 7, 6, -1, 3, 0, 4, 7, -1 ] } },
Shape { appearance Appearance { material Material { diffuseColor 0.600 0.610 0.640 specularColor 0.60 0.60 0.60 shininess 0.30 } } geometry IndexedFaceSet { solid FALSE coord Coordinate { point [ -2.0846 -1.0827 4.9606, -1.9272 -1.0827 4.9606, -1.9272 -0.6890 4.9606, -2.0846 -0.6890 4.9606, -2.0846 -1.0827 5.1575, -1.9272 -1.0827 5.1575, -1.9272 -0.6890 5.1575, -2.0846 -0.6890 5.1575 ] } coordIndex [ 0, 3, 2, 1, -1, 4, 5, 6, 7, -1, 0, 1, 5, 4, -1, 1, 2, 6, 5, -1, 2, 3, 7, 6, -1, 3, 0, 4, 7, -1 ] } },
Shape { appearance Appearance { material Material { diffuseColor 0.600 0.610 0.640 specularColor 0.60 0.60 0.60 shininess 0.30 } } geometry IndexedFaceSet { solid FALSE coord Coordinate { point [ -2.0846 2.2638 4.9606, -1.9272 2.2638 4.9606, -1.9272 2.6575 4.9606, -2.0846 2.6575 4.9606, -2.0846 2.2638 5.1575, -1.9272 2.2638 5.1575, -1.9272 2.6575 5.1575, -2.0846 2.6575 5.1575 ] } coordIndex [ 0, 3, 2, 1, -1, 4, 5, 6, 7, -1, 0, 1, 5, 4, -1, 1, 2, 6, 5, -1, 2, 3, 7, 6, -1, 3, 0, 4, 7, -1 ] } },
Shape { appearance Appearance { material Material { diffuseColor 0.600 0.610 0.640 specularColor 0.60 0.60 0.60 shininess 0.30 } } geometry IndexedFaceSet { solid FALSE coord Coordinate { point [ -1.5846 -1.0827 4.9606, -1.4272 -1.0827 4.9606, -1.4272 -0.6890 4.9606, -1.5846 -0.6890 4.9606, -1.5846 -1.0827 5.1575, -1.4272 -1.0827 5.1575, -1.4272 -0.6890 5.1575, -1.5846 -0.6890 5.1575 ] } coordIndex [ 0, 3, 2, 1, -1, 4, 5, 6, 7, -1, 0, 1, 5, 4, -1, 1, 2, 6, 5, -1, 2, 3, 7, 6, -1, 3, 0, 4, 7, -1 ] } },
Shape { appearance Appearance { material Material { diffuseColor 0.600 0.610 0.640 specularColor 0.60 0.60 0.60 shininess 0.30 } } geometry IndexedFaceSet { solid FALSE coord Coordinate { point [ -1.5846 2.2638 4.9606, -1.4272 2.2638 4.9606, -1.4272 2.6575 4.9606, -1.5846 2.6575 4.9606, -1.5846 2.2638 5.1575, -1.4272 2.2638 5.1575, -1.4272 2.6575 5.1575, -1.5846 2.6575 5.1575 ] } coordIndex [ 0, 3, 2, 1, -1, 4, 5, 6, 7, -1, 0, 1, 5, 4, -1, 1, 2, 6, 5, -1, 2, 3, 7, 6, -1, 3, 0, 4, 7, -1 ] } },
Shape { appearance Appearance { material Material { diffuseColor 0.600 0.610 0.640 specularColor 0.60 0.60 0.60 shininess 0.30 } } geometry IndexedFaceSet { solid FALSE coord Coordinate { point [ -1.0846 -1.0827 4.9606, -0.9272 -1.0827 4.9606, -0.9272 -0.6890 4.9606, -1.0846 -0.6890 4.9606, -1.0846 -1.0827 5.1575, -0.9272 -1.0827 5.1575, -0.9272 -0.6890 5.1575, -1.0846 -0.6890 5.1575 ] } coordIndex [ 0, 3, 2, 1, -1, 4, 5, 6, 7, -1, 0, 1, 5, 4, -1, 1, 2, 6, 5, -1, 2, 3, 7, 6, -1, 3, 0, 4, 7, -1 ] } },
Shape { appearance Appearance { material Material { diffuseColor 0.600 0.610 0.640 specularColor 0.60 0.60 0.60 shininess 0.30 } } geometry IndexedFaceSet { solid FALSE coord Coordinate { point [ -1.0846 2.2638 4.9606, -0.9272 2.2638 4.9606, -0.9272 2.6575 4.9606, -1.0846 2.6575 4.9606, -1.0846 2.2638 5.1575, -0.9272 2.2638 5.1575, -0.9272 2.6575 5.1575, -1.0846 2.6575 5.1575 ] } coordIndex [ 0, 3, 2, 1, -1, 4, 5, 6, 7, -1, 0, 1, 5, 4, -1, 1, 2, 6, 5, -1, 2, 3, 7, 6, -1, 3, 0, 4, 7, -1 ] } },
Shape { appearance Appearance { material Material { diffuseColor 0.250 0.250 0.250 specularColor 0.50 0.50 0.50 shininess 0.30 } } geometry IndexedFaceSet { solid FALSE coord Coordinate { point [ -4.2520 0.7874 5.5906, -4.2520 0.7874 5.5984, -4.2783 0.8684 5.5906, -4.2783 0.8684 5.5984, -4.3472 0.9185 5.5906, -4.3472 0.9185 5.5984, -4.4323 0.9185 5.5906, -4.4323 0.9185 5.5984, -4.5012 0.8684 5.5906, -4.5012 0.8684 5.5984, -4.5276 0.7874 5.5906, -4.5276 0.7874 5.5984, -4.5012 0.7064 5.5906, -4.5012 0.7064 5.5984, -4.4323 0.6564 5.5906, -4.4323 0.6564 5.5984, -4.3472 0.6564 5.5906, -4.3472 0.6564 5.5984, -4.2783 0.7064 5.5906, -4.2783 0.7064 5.5984 ] } coordIndex [ 0, 2, 3, 1, -1, 2, 4, 5, 3, -1, 4, 6, 7, 5, -1, 6, 8, 9, 7, -1, 8, 10, 11, 9, -1, 10, 12, 13, 11, -1, 12, 14, 15, 13, -1, 14, 16, 17, 15, -1, 16, 18, 19, 17, -1, 18, 0, 1, 19, -1, 18, 16, 14, 12, 10, 8, 6, 4, 2, 0, -1, 1, 3, 5, 7, 9, 11, 13, 15, 17, 19, -1 ] } },
Shape { appearance Appearance { material Material { diffuseColor 0.050 0.050 0.050 specularColor 0.20 0.20 0.20 shininess 0.30 } } geometry IndexedFaceSet { solid FALSE coord Coordinate { point [ -2.9449 -2.5197 4.9606, -2.5669 -2.5197 4.9606, -2.5669 -2.2047 4.9606, -2.9449 -2.2047 4.9606, -2.9449 -2.5197 5.1575, -2.5669 -2.5197 5.1575, -2.5669 -2.2047 5.1575, -2.9449 -2.2047 5.1575 ] } coordIndex [ 0, 3, 2, 1, -1, 4, 5, 6, 7, -1, 0, 1, 5, 4, -1, 1, 2, 6, 5, -1, 2, 3, 7, 6, -1, 3, 0, 4, 7, -1 ] } },
Shape { appearance Appearance { material Material { diffuseColor 0.600 0.610 0.640 specularColor 0.60 0.60 0.60 shininess 0.30 } } geometry IndexedFaceSet { solid FALSE coord Coordinate { point [ -3.0709 -2.5197 4.9606, -2.9449 -2.5197 4.9606, -2.9449 -2.2047 4.9606, -3.0709 -2.2047 4.9606, -3.0709 -2.5197 5.1575, -2.9449 -2.5197 5.1575, -2.9449 -2.2047 5.1575, -3.0709 -2.2047 5.1575 ] } coordIndex [ 0, 3, 2, 1, -1, 4, 5, 6, 7, -1, 0, 1, 5, 4, -1, 1, 2, 6, 5, -1, 2, 3, 7, 6, -1, 3, 0, 4, 7, -1 ] } },
Shape { appearance Appearance { material Material { diffuseColor 0.600 0.610 0.640 specularColor 0.60 0.60 0.60 shininess 0.30 } } geometry IndexedFaceSet { solid FALSE coord Coordinate { point [ -2.5669 -2.5197 4.9606, -2.4409 -2.5197 4.9606, -2.4409 -2.2047 4.9606, -2.5669 -2.2047 4.9606, -2.5669 -2.5197 5.1575, -2.4409 -2.5197 5.1575, -2.4409 -2.2047 5.1575, -2.5669 -2.2047 5.1575 ] } coordIndex [ 0, 3, 2, 1, -1, 4, 5, 6, 7, -1, 0, 1, 5, 4, -1, 1, 2, 6, 5, -1, 2, 3, 7, 6, -1, 3, 0, 4, 7, -1 ] } },
Shape { appearance Appearance { material Material { diffuseColor 0.050 0.050 0.050 specularColor 0.20 0.20 0.20 shininess 0.30 } } geometry IndexedFaceSet { solid FALSE coord Coordinate { point [ -1.7638 -2.5197 4.9606, -1.3858 -2.5197 4.9606, -1.3858 -2.2047 4.9606, -1.7638 -2.2047 4.9606, -1.7638 -2.5197 5.1575, -1.3858 -2.5197 5.1575, -1.3858 -2.2047 5.1575, -1.7638 -2.2047 5.1575 ] } coordIndex [ 0, 3, 2, 1, -1, 4, 5, 6, 7, -1, 0, 1, 5, 4, -1, 1, 2, 6, 5, -1, 2, 3, 7, 6, -1, 3, 0, 4, 7, -1 ] } },
Shape { appearance Appearance { material Material { diffuseColor 0.600 0.610 0.640 specularColor 0.60 0.60 0.60 shininess 0.30 } } geometry IndexedFaceSet { solid FALSE coord Coordinate { point [ -1.8898 -2.5197 4.9606, -1.7638 -2.5197 4.9606, -1.7638 -2.2047 4.9606, -1.8898 -2.2047 4.9606, -1.8898 -2.5197 5.1575, -1.7638 -2.5197 5.1575, -1.7638 -2.2047 5.1575, -1.8898 -2.2047 5.1575 ] } coordIndex [ 0, 3, 2, 1, -1, 4, 5, 6, 7, -1, 0, 1, 5, 4, -1, 1, 2, 6, 5, -1, 2, 3, 7, 6, -1, 3, 0, 4, 7, -1 ] } },
Shape { appearance Appearance { material Material { diffuseColor 0.600 0.610 0.640 specularColor 0.60 0.60 0.60 shininess 0.30 } } geometry IndexedFaceSet { solid FALSE coord Coordinate { point [ -1.3858 -2.5197 4.9606, -1.2598 -2.5197 4.9606, -1.2598 -2.2047 4.9606, -1.3858 -2.2047 4.9606, -1.3858 -2.5197 5.1575, -1.2598 -2.5197 5.1575, -1.2598 -2.2047 5.1575, -1.3858 -2.2047 5.1575 ] } coordIndex [ 0, 3, 2, 1, -1, 4, 5, 6, 7, -1, 0, 1, 5, 4, -1, 1, 2, 6, 5, -1, 2, 3, 7, 6, -1, 3, 0, 4, 7, -1 ] } },
Shape { appearance Appearance { material Material { diffuseColor 0.550 0.400 0.250 specularColor 0.20 0.20 0.20 shininess 0.30 } } geometry IndexedFaceSet { solid FALSE coord Coordinate { point [ -4.1260 -2.5197 4.9606, -3.7480 -2.5197 4.9606, -3.7480 -2.2047 4.9606, -4.1260 -2.2047 4.9606, -4.1260 -2.5197 5.1575, -3.7480 -2.5197 5.1575, -3.7480 -2.2047 5.1575, -4.1260 -2.2047 5.1575 ] } coordIndex [ 0, 3, 2, 1, -1, 4, 5, 6, 7, -1, 0, 1, 5, 4, -1, 1, 2, 6, 5, -1, 2, 3, 7, 6, -1, 3, 0, 4, 7, -1 ] } },
Shape { appearance Appearance { material Material { diffuseColor 0.600 0.610 0.640 specularColor 0.60 0.60 0.60 shininess 0.30 } } geometry IndexedFaceSet { solid FALSE coord Coordinate { point [ -4.2520 -2.5197 4.9606, -4.1260 -2.5197 4.9606, -4.1260 -2.2047 4.9606, -4.2520 -2.2047 4.9606, -4.2520 -2.5197 5.1575, -4.1260 -2.5197 5.1575, -4.1260 -2.2047 5.1575, -4.2520 -2.2047 5.1575 ] } coordIndex [ 0, 3, 2, 1, -1, 4, 5, 6, 7, -1, 0, 1, 5, 4, -1, 1, 2, 6, 5, -1, 2, 3, 7, 6, -1, 3, 0, 4, 7, -1 ] } },
Shape { appearance Appearance { material Material { diffuseColor 0.600 0.610 0.640 specularColor 0.60 0.60 0.60 shininess 0.30 } } geometry IndexedFaceSet { solid FALSE coord Coordinate { point [ -3.7480 -2.5197 4.9606, -3.6220 -2.5197 4.9606, -3.6220 -2.2047 4.9606, -3.7480 -2.2047 4.9606, -3.7480 -2.5197 5.1575, -3.6220 -2.5197 5.1575, -3.6220 -2.2047 5.1575, -3.7480 -2.2047 5.1575 ] } coordIndex [ 0, 3, 2, 1, -1, 4, 5, 6, 7, -1, 0, 1, 5, 4, -1, 1, 2, 6, 5, -1, 2, 3, 7, 6, -1, 3, 0, 4, 7, -1 ] } },
Shape { appearance Appearance { material Material { diffuseColor 0.050 0.050 0.050 specularColor 0.15 0.15 0.15 shininess 0.30 } } geometry IndexedFaceSet { solid FALSE coord Coordinate { point [ -2.2047 2.6378 4.9606, -0.9449 2.6378 4.9606, -0.9449 3.2677 4.9606, -2.2047 3.2677 4.9606, -2.2047 2.6378 5.3543, -0.9449 2.6378 5.3543, -0.9449 3.2677 5.3543, -2.2047 3.2677 5.3543 ] } coordIndex [ 0, 3, 2, 1, -1, 4, 5, 6, 7, -1, 0, 1, 5, 4, -1, 1, 2, 6, 5, -1, 2, 3, 7, 6, -1, 3, 0, 4, 7, -1 ] } },
Shape { appearance Appearance { material Material { diffuseColor 0.850 0.850 0.820 specularColor 0.20 0.20 0.20 shininess 0.30 } } geometry IndexedFaceSet { solid FALSE coord Coordinate { point [ -1.2992 -3.5039 4.9606, -0.6693 -3.5039 4.9606, -0.6693 -3.1890 4.9606, -1.2992 -3.1890 4.9606, -1.2992 -3.5039 5.0984, -0.6693 -3.5039 5.0984, -0.6693 -3.1890 5.0984, -1.2992 -3.1890 5.0984 ] } coordIndex [ 0, 3, 2, 1, -1, 4, 5, 6, 7, -1, 0, 1, 5, 4, -1, 1, 2, 6, 5, -1, 2, 3, 7, 6, -1, 3, 0, 4, 7, -1 ] } },
Shape { appearance Appearance { material Material { diffuseColor 0.850 0.080 0.050 specularColor 0.60 0.60 0.60 shininess 0.30 } } geometry IndexedFaceSet { solid FALSE coord Coordinate { point [ -1.1811 -3.4843 5.0984, -0.7874 -3.4843 5.0984, -0.7874 -3.2087 5.0984, -1.1811 -3.2087 5.0984, -1.1811 -3.4843 5.1969, -0.7874 -3.4843 5.1969, -0.7874 -3.2087 5.1969, -1.1811 -3.2087 5.1969 ] } coordIndex [ 0, 3, 2, 1, -1, 4, 5, 6, 7, -1, 0, 1, 5, 4, -1, 1, 2, 6, 5, -1, 2, 3, 7, 6, -1, 3, 0, 4, 7, -1 ] } }
] }
