#VRML V2.0 utf8
Transform { children [
Shape { appearance Appearance { material Material { diffuseColor 0.060 0.060 0.070 specularColor 0.10 0.10 0.10 shininess 0.30 } } geometry IndexedFaceSet { solid FALSE coord Coordinate { point [ -5.5118 -10.1378 4.3307, 5.5118 -10.1378 4.3307, 5.5118 10.1378 4.3307, -5.5118 10.1378 4.3307, -5.5118 -10.1378 4.9606, 5.5118 -10.1378 4.9606, 5.5118 10.1378 4.9606, -5.5118 10.1378 4.9606 ] } coordIndex [ 0, 3, 2, 1, -1, 4, 5, 6, 7, -1, 0, 1, 5, 4, -1, 1, 2, 6, 5, -1, 2, 3, 7, 6, -1, 3, 0, 4, 7, -1 ] } },
Shape { appearance Appearance { material Material { diffuseColor 0.080 0.080 0.080 specularColor 0.25 0.25 0.25 shininess 0.30 } } geometry IndexedFaceSet { solid FALSE coord Coordinate { point [ -5.4921 -9.5079 3.3465, -4.5079 -9.5079 3.3465, -4.5079 9.5079 3.3465, -5.4921 9.5079 3.3465, -5.4921 -9.5079 4.3307, -4.5079 -9.5079 4.3307, -4.5079 9.5079 4.3307, -5.4921 9.5079 4.3307 ] } coordIndex [ 0, 3, 2, 1, -1, 4, 5, 6, 7, -1, 0, 1, 5, 4, -1, 1, 2, 6, 5, -1, 2, 3, 7, 6, -1, 3, 0, 4, 7, -1 ] } },
Shape { appearance Appearance { material Material { diffuseColor 0.080 0.080 0.080 specularColor 0.25 0.25 0.25 shininess 0.30 } } geometry IndexedFaceSet { solid FALSE coord Coordinate { point [ 4.5079 -9.5079 3.3465, 5.4921 -9.5079 3.3465, 5.4921 9.5079 3.3465, 4.5079 9.5079 3.3465, 4.5079 -9.5079 4.3307, 5.4921 -9.5079 4.3307, 5.4921 9.5079 4.3307, 4.5079 9.5079 4.3307 ] } coordIndex [ 0, 3, 2, 1, -1, 4, 5, 6, 7, -1, 0, 1, 5, 4, -1, 1, 2, 6, 5, -1, 2, 3, 7, 6, -1, 3, 0, 4, 7, -1 ] } },
Shape { appearance Appearance { material Material { diffuseColor 0.720 0.720 0.700 specularColor 0.80 0.80 0.80 shininess 0.30 } } geometry IndexedFaceSet { solid FALSE coord Coordinate { point [ -4.6260 9.0000 4.9606, -4.6260 9.0000 5.1378, -4.6761 9.1870 4.9606, -4.6761 9.1870 5.1378, -4.8130 9.3239 4.9606, -4.8130 9.3239 5.1378, -5.0000 9.3740 4.9606, -5.0000 9.3740 5.1378, -5.1870 9.3239 4.9606, -5.1870 9.3239 5.1378, -5.3239 9.1870 4.9606, -5.3239 9.1870 5.1378, -5.3740 9.0000 4.9606, -5.3740 9.0000 5.1378, -5.3239 8.8130 4.9606, -5.3239 8.8130 5.1378, -5.1870 8.6761 4.9606, -5.1870 8.6761 5.1378, -5.0000 8.6260 4.9606, -5.0000 8.6260 5.1378, -4.8130 8.6761 4.9606, -4.8130 8.6761 5.1378, -4.6761 8.8130 4.9606, -4.6761 8.8130 5.1378 ] } coordIndex [ 0, 2, 3, 1, -1, 2, 4, 5, 3, -1, 4, 6, 7, 5, -1, 6, 8, 9, 7, -1, 8, 10, 11, 9, -1, 10, 12, 13, 11, -1, 12, 14, 15, 13, -1, 14, 16, 17, 15, -1, 16, 18, 19, 17, -1, 18, 20, 21, 19, -1, 20, 22, 23, 21, -1, 22, 0, 1, 23, -1, 22, 20, 18, 16, 14, 12, 10, 8, 6, 4, 2, 0, -1, 1, 3, 5, 7, 9, 11, 13, 15, 17, 19, 21, 23, -1 ] } },
Shape { appearance Appearance { material Material { diffuseColor 0.830 0.680 0.280 specularColor 0.70 0.70 0.70 shininess 0.30 } } geometry IndexedFaceSet { solid FALSE coord Coordinate { point [ -5.1260 8.8740 4.9606, -4.8740 8.8740 4.9606, -4.8740 9.1260 4.9606, -5.1260 9.1260 4.9606, -5.1260 8.8740 5.8268, -4.8740 8.8740 5.8268, -4.8740 9.1260 5.8268, -5.1260 9.1260 5.8268 ] } coordIndex [ 0, 3, 2, 1, -1, 4, 5, 6, 7, -1, 0, 1, 5, 4, -1, 1, 2, 6, 5, -1, 2, 3, 7, 6, -1, 3, 0, 4, 7, -1 ] } },
Shape { appearance Appearance { material Material { diffuseColor 0.720 0.720 0.700 specularColor 0.80 0.80 0.80 shininess 0.30 } } geometry IndexedFaceSet { solid FALSE coord Coordinate { point [ -4.6260 8.0000 4.9606, -4.6260 8.0000 5.1378, -4.6761 8.1870 4.9606, -4.6761 8.1870 5.1378, -4.8130 8.3239 4.9606, -4.8130 8.3239 5.1378, -5.0000 8.3740 4.9606, -5.0000 8.3740 5.1378, -5.1870 8.3239 4.9606, -5.1870 8.3239 5.1378, -5.3239 8.1870 4.9606, -5.3239 8.1870 5.1378, -5.3740 8.0000 4.9606, -5.3740 8.0000 5.1378, -5.3239 7.8130 4.9606, -5.3239 7.8130 5.1378, -5.1870 7.6761 4.9606, -5.1870 7.6761 5.1378, -5.0000 7.6260 4.9606, -5.0000 7.6260 5.1378, -4.8130 7.6761 4.9606, -4.8130 7.6761 5.1378, -4.6761 7.8130 4.9606, -4.6761 7.8130 5.1378 ] } coordIndex [ 0, 2, 3, 1, -1, 2, 4, 5, 3, -1, 4, 6, 7, 5, -1, 6, 8, 9, 7, -1, 8, 10, 11, 9, -1, 10, 12, 13, 11, -1, 12, 14, 15, 13, -1, 14, 16, 17, 15, -1, 16, 18, 19, 17, -1, 18, 20, 21, 19, -1, 20, 22, 23, 21, -1, 22, 0, 1, 23, -1, 22, 20, 18, 16, 14, 12, 10, 8, 6, 4, 2, 0, -1, 1, 3, 5, 7, 9, 11, 13, 15, 17, 19, 21, 23, -1 ] } },
Shape { appearance Appearance { material Material { diffuseColor 0.830 0.680 0.280 specularColor 0.70 0.70 0.70 shininess 0.30 } } geometry IndexedFaceSet { solid FALSE coord Coordinate { point [ -5.1260 7.8740 4.9606, -4.8740 7.8740 4.9606, -4.8740 8.1260 4.9606, -5.1260 8.1260 4.9606, -5.1260 7.8740 5.8268, -4.8740 7.8740 5.8268, -4.8740 8.1260 5.8268, -5.1260 8.1260 5.8268 ] } coordIndex [ 0, 3, 2, 1, -1, 4, 5, 6, 7, -1, 0, 1, 5, 4, -1, 1, 2, 6, 5, -1, 2, 3, 7, 6, -1, 3, 0, 4, 7, -1 ] } },
Shape { appearance Appearance { material Material { diffuseColor 0.720 0.720 0.700 specularColor 0.80 0.80 0.80 shininess 0.30 } } geometry IndexedFaceSet { solid FALSE coord Coordinate { point [ -4.6260 7.0000 4.9606, -4.6260 7.0000 5.1378, -4.6761 7.1870 4.9606, -4.6761 7.1870 5.1378, -4.8130 7.3239 4.9606, -4.8130 7.3239 5.1378, -5.0000 7.3740 4.9606, -5.0000 7.3740 5.1378, -5.1870 7.3239 4.9606, -5.1870 7.3239 5.1378, -5.3239 7.1870 4.9606, -5.3239 7.1870 5.1378, -5.3740 7.0000 4.9606, -5.3740 7.0000 5.1378, -5.3239 6.8130 4.9606, -5.3239 6.8130 5.1378, -5.1870 6.6761 4.9606, -5.1870 6.6761 5.1378, -5.0000 6.6260 4.9606, -5.0000 6.6260 5.1378, -4.8130 6.6761 4.9606, -4.8130 6.6761 5.1378, -4.6761 6.8130 4.9606, -4.6761 6.8130 5.1378 ] } coordIndex [ 0, 2, 3, 1, -1, 2, 4, 5, 3, -1, 4, 6, 7, 5, -1, 6, 8, 9, 7, -1, 8, 10, 11, 9, -1, 10, 12, 13, 11, -1, 12, 14, 15, 13, -1, 14, 16, 17, 15, -1, 16, 18, 19, 17, -1, 18, 20, 21, 19, -1, 20, 22, 23, 21, -1, 22, 0, 1, 23, -1, 22, 20, 18, 16, 14, 12, 10, 8, 6, 4, 2, 0, -1, 1, 3, 5, 7, 9, 11, 13, 15, 17, 19, 21, 23, -1 ] } },
Shape { appearance Appearance { material Material { diffuseColor 0.830 0.680 0.280 specularColor 0.70 0.70 0.70 shininess 0.30 } } geometry IndexedFaceSet { solid FALSE coord Coordinate { point [ -5.1260 6.8740 4.9606, -4.8740 6.8740 4.9606, -4.8740 7.1260 4.9606, -5.1260 7.1260 4.9606, -5.1260 6.8740 5.8268, -4.8740 6.8740 5.8268, -4.8740 7.1260 5.8268, -5.1260 7.1260 5.8268 ] } coordIndex [ 0, 3, 2, 1, -1, 4, 5, 6, 7, -1, 0, 1, 5, 4, -1, 1, 2, 6, 5, -1, 2, 3, 7, 6, -1, 3, 0, 4, 7, -1 ] } },
Shape { appearance Appearance { material Material { diffuseColor 0.720 0.720 0.700 specularColor 0.80 0.80 0.80 shininess 0.30 } } geometry IndexedFaceSet { solid FALSE coord Coordinate { point [ -4.6260 6.0000 4.9606, -4.6260 6.0000 5.1378, -4.6761 6.1870 4.9606, -4.6761 6.1870 5.1378, -4.8130 6.3239 4.9606, -4.8130 6.3239 5.1378, -5.0000 6.3740 4.9606, -5.0000 6.3740 5.1378, -5.1870 6.3239 4.9606, -5.1870 6.3239 5.1378, -5.3239 6.1870 4.9606, -5.3239 6.1870 5.1378, -5.3740 6.0000 4.9606, -5.3740 6.0000 5.1378, -5.3239 5.8130 4.9606, -5.3239 5.8130 5.1378, -5.1870 5.6761 4.9606, -5.1870 5.6761 5.1378, -5.0000 5.6260 4.9606, -5.0000 5.6260 5.1378, -4.8130 5.6761 4.9606, -4.8130 5.6761 5.1378, -4.6761 5.8130 4.9606, -4.6761 5.8130 5.1378 ] } coordIndex [ 0, 2, 3, 1, -1, 2, 4, 5, 3, -1, 4, 6, 7, 5, -1, 6, 8, 9, 7, -1, 8, 10, 11, 9, -1, 10, 12, 13, 11, -1, 12, 14, 15, 13, -1, 14, 16, 17, 15, -1, 16, 18, 19, 17, -1, 18, 20, 21, 19, -1, 20, 22, 23, 21, -1, 22, 0, 1, 23, -1, 22, 20, 18, 16, 14, 12, 10, 8, 6, 4, 2, 0, -1, 1, 3, 5, 7, 9, 11, 13, 15, 17, 19, 21, 23, -1 ] } },
Shape { appearance Appearance { material Material { diffuseColor 0.830 0.680 0.280 specularColor 0.70 0.70 0.70 shininess 0.30 } } geometry IndexedFaceSet { solid FALSE coord Coordinate { point [ -5.1260 5.8740 4.9606, -4.8740 5.8740 4.9606, -4.8740 6.1260 4.9606, -5.1260 6.1260 4.9606, -5.1260 5.8740 5.8268, -4.8740 5.8740 5.8268, -4.8740 6.1260 5.8268, -5.1260 6.1260 5.8268 ] } coordIndex [ 0, 3, 2, 1, -1, 4, 5, 6, 7, -1, 0, 1, 5, 4, -1, 1, 2, 6, 5, -1, 2, 3, 7, 6, -1, 3, 0, 4, 7, -1 ] } },
Shape { appearance Appearance { material Material { diffuseColor 0.720 0.720 0.700 specularColor 0.80 0.80 0.80 shininess 0.30 } } geometry IndexedFaceSet { solid FALSE coord Coordinate { point [ -4.6260 5.0000 4.9606, -4.6260 5.0000 5.1378, -4.6761 5.1870 4.9606, -4.6761 5.1870 5.1378, -4.8130 5.3239 4.9606, -4.8130 5.3239 5.1378, -5.0000 5.3740 4.9606, -5.0000 5.3740 5.1378, -5.1870 5.3239 4.9606, -5.1870 5.3239 5.1378, -5.3239 5.1870 4.9606, -5.3239 5.1870 5.1378, -5.3740 5.0000 4.9606, -5.3740 5.0000 5.1378, -5.3239 4.8130 4.9606, -5.3239 4.8130 5.1378, -5.1870 4.6761 4.9606, -5.1870 4.6761 5.1378, -5.0000 4.6260 4.9606, -5.0000 4.6260 5.1378, -4.8130 4.6761 4.9606, -4.8130 4.6761 5.1378, -4.6761 4.8130 4.9606, -4.6761 4.8130 5.1378 ] } coordIndex [ 0, 2, 3, 1, -1, 2, 4, 5, 3, -1, 4, 6, 7, 5, -1, 6, 8, 9, 7, -1, 8, 10, 11, 9, -1, 10, 12, 13, 11, -1, 12, 14, 15, 13, -1, 14, 16, 17, 15, -1, 16, 18, 19, 17, -1, 18, 20, 21, 19, -1, 20, 22, 23, 21, -1, 22, 0, 1, 23, -1, 22, 20, 18, 16, 14, 12, 10, 8, 6, 4, 2, 0, -1, 1, 3, 5, 7, 9, 11, 13, 15, 17, 19, 21, 23, -1 ] } },
Shape { appearance Appearance { material Material { diffuseColor 0.830 0.680 0.280 specularColor 0.70 0.70 0.70 shininess 0.30 } } geometry IndexedFaceSet { solid FALSE coord Coordinate { point [ -5.1260 4.8740 4.9606, -4.8740 4.8740 4.9606, -4.8740 5.1260 4.9606, -5.1260 5.1260 4.9606, -5.1260 4.8740 5.8268, -4.8740 4.8740 5.8268, -4.8740 5.1260 5.8268, -5.1260 5.1260 5.8268 ] } coordIndex [ 0, 3, 2, 1, -1, 4, 5, 6, 7, -1, 0, 1, 5, 4, -1, 1, 2, 6, 5, -1, 2, 3, 7, 6, -1, 3, 0, 4, 7, -1 ] } },
Shape { appearance Appearance { material Material { diffuseColor 0.720 0.720 0.700 specularColor 0.80 0.80 0.80 shininess 0.30 } } geometry IndexedFaceSet { solid FALSE coord Coordinate { point [ -4.6260 4.0000 4.9606, -4.6260 4.0000 5.1378, -4.6761 4.1870 4.9606, -4.6761 4.1870 5.1378, -4.8130 4.3239 4.9606, -4.8130 4.3239 5.1378, -5.0000 4.3740 4.9606, -5.0000 4.3740 5.1378, -5.1870 4.3239 4.9606, -5.1870 4.3239 5.1378, -5.3239 4.1870 4.9606, -5.3239 4.1870 5.1378, -5.3740 4.0000 4.9606, -5.3740 4.0000 5.1378, -5.3239 3.8130 4.9606, -5.3239 3.8130 5.1378, -5.1870 3.6761 4.9606, -5.1870 3.6761 5.1378, -5.0000 3.6260 4.9606, -5.0000 3.6260 5.1378, -4.8130 3.6761 4.9606, -4.8130 3.6761 5.1378, -4.6761 3.8130 4.9606, -4.6761 3.8130 5.1378 ] } coordIndex [ 0, 2, 3, 1, -1, 2, 4, 5, 3, -1, 4, 6, 7, 5, -1, 6, 8, 9, 7, -1, 8, 10, 11, 9, -1, 10, 12, 13, 11, -1, 12, 14, 15, 13, -1, 14, 16, 17, 15, -1, 16, 18, 19, 17, -1, 18, 20, 21, 19, -1, 20, 22, 23, 21, -1, 22, 0, 1, 23, -1, 22, 20, 18, 16, 14, 12, 10, 8, 6, 4, 2, 0, -1, 1, 3, 5, 7, 9, 11, 13, 15, 17, 19, 21, 23, -1 ] } },
Shape { appearance Appearance { material Material { diffuseColor 0.830 0.680 0.280 specularColor 0.70 0.70 0.70 shininess 0.30 } } geometry IndexedFaceSet { solid FALSE coord Coordinate { point [ -5.1260 3.8740 4.9606, -4.8740 3.8740 4.9606, -4.8740 4.1260 4.9606, -5.1260 4.1260 4.9606, -5.1260 3.8740 5.8268, -4.8740 3.8740 5.8268, -4.8740 4.1260 5.8268, -5.1260 4.1260 5.8268 ] } coordIndex [ 0, 3, 2, 1, -1, 4, 5, 6, 7, -1, 0, 1, 5, 4, -1, 1, 2, 6, 5, -1, 2, 3, 7, 6, -1, 3, 0, 4, 7, -1 ] } },
Shape { appearance Appearance { material Material { diffuseColor 0.720 0.720 0.700 specularColor 0.80 0.80 0.80 shininess 0.30 } } geometry IndexedFaceSet { solid FALSE coord Coordinate { point [ -4.6260 3.0000 4.9606, -4.6260 3.0000 5.1378, -4.6761 3.1870 4.9606, -4.6761 3.1870 5.1378, -4.8130 3.3239 4.9606, -4.8130 3.3239 5.1378, -5.0000 3.3740 4.9606, -5.0000 3.3740 5.1378, -5.1870 3.3239 4.9606, -5.1870 3.3239 5.1378, -5.3239 3.1870 4.9606, -5.3239 3.1870 5.1378, -5.3740 3.0000 4.9606, -5.3740 3.0000 5.1378, -5.3239 2.8130 4.9606, -5.3239 2.8130 5.1378, -5.1870 2.6761 4.9606, -5.1870 2.6761 5.1378, -5.0000 2.6260 4.9606, -5.0000 2.6260 5.1378, -4.8130 2.6761 4.9606, -4.8130 2.6761 5.1378, -4.6761 2.8130 4.9606, -4.6761 2.8130 5.1378 ] } coordIndex [ 0, 2, 3, 1, -1, 2, 4, 5, 3, -1, 4, 6, 7, 5, -1, 6, 8, 9, 7, -1, 8, 10, 11, 9, -1, 10, 12, 13, 11, -1, 12, 14, 15, 13, -1, 14, 16, 17, 15, -1, 16, 18, 19, 17, -1, 18, 20, 21, 19, -1, 20, 22, 23, 21, -1, 22, 0, 1, 23, -1, 22, 20, 18, 16, 14, 12, 10, 8, 6, 4, 2, 0, -1, 1, 3, 5, 7, 9, 11, 13, 15, 17, 19, 21, 23, -1 ] } },
Shape { appearance Appearance { material Material { diffuseColor 0.830 0.680 0.280 specularColor 0.70 0.70 0.70 shininess 0.30 } } geometry IndexedFaceSet { solid FALSE coord Coordinate { point [ -5.1260 2.8740 4.9606, -4.8740 2.8740 4.9606, -4.8740 3.1260 4.9606, -5.1260 3.1260 4.9606, -5.1260 2.8740 5.8268, -4.8740 2.8740 5.8268, -4.8740 3.1260 5.8268, -5.1260 3.1260 5.8268 ] } coordIndex [ 0, 3, 2, 1, -1, 4, 5, 6, 7, -1, 0, 1, 5, 4, -1, 1, 2, 6, 5, -1, 2, 3, 7, 6, -1, 3, 0, 4, 7, -1 ] } },
Shape { appearance Appearance { material Material { diffuseColor 0.720 0.720 0.700 specularColor 0.80 0.80 0.80 shininess 0.30 } } geometry IndexedFaceSet { solid FALSE coord Coordinate { point [ -4.6260 2.0000 4.9606, -4.6260 2.0000 5.1378, -4.6761 2.1870 4.9606, -4.6761 2.1870 5.1378, -4.8130 2.3239 4.9606, -4.8130 2.3239 5.1378, -5.0000 2.3740 4.9606, -5.0000 2.3740 5.1378, -5.1870 2.3239 4.9606, -5.1870 2.3239 5.1378, -5.3239 2.1870 4.9606, -5.3239 2.1870 5.1378, -5.3740 2.0000 4.9606, -5.3740 2.0000 5.1378, -5.3239 1.8130 4.9606, -5.3239 1.8130 5.1378, -5.1870 1.6761 4.9606, -5.1870 1.6761 5.1378, -5.0000 1.6260 4.9606, -5.0000 1.6260 5.1378, -4.8130 1.6761 4.9606, -4.8130 1.6761 5.1378, -4.6761 1.8130 4.9606, -4.6761 1.8130 5.1378 ] } coordIndex [ 0, 2, 3, 1, -1, 2, 4, 5, 3, -1, 4, 6, 7, 5, -1, 6, 8, 9, 7, -1, 8, 10, 11, 9, -1, 10, 12, 13, 11, -1, 12, 14, 15, 13, -1, 14, 16, 17, 15, -1, 16, 18, 19, 17, -1, 18, 20, 21, 19, -1, 20, 22, 23, 21, -1, 22, 0, 1, 23, -1, 22, 20, 18, 16, 14, 12, 10, 8, 6, 4, 2, 0, -1, 1, 3, 5, 7, 9, 11, 13, 15, 17, 19, 21, 23, -1 ] } },
Shape { appearance Appearance { material Material { diffuseColor 0.830 0.680 0.280 specularColor 0.70 0.70 0.70 shininess 0.30 } } geometry IndexedFaceSet { solid FALSE coord Coordinate { point [ -5.1260 1.8740 4.9606, -4.8740 1.8740 4.9606, -4.8740 2.1260 4.9606, -5.1260 2.1260 4.9606, -5.1260 1.8740 5.8268, -4.8740 1.8740 5.8268, -4.8740 2.1260 5.8268, -5.1260 2.1260 5.8268 ] } coordIndex [ 0, 3, 2, 1, -1, 4, 5, 6, 7, -1, 0, 1, 5, 4, -1, 1, 2, 6, 5, -1, 2, 3, 7, 6, -1, 3, 0, 4, 7, -1 ] } },
Shape { appearance Appearance { material Material { diffuseColor 0.720 0.720 0.700 specularColor 0.80 0.80 0.80 shininess 0.30 } } geometry IndexedFaceSet { solid FALSE coord Coordinate { point [ -4.6260 1.0000 4.9606, -4.6260 1.0000 5.1378, -4.6761 1.1870 4.9606, -4.6761 1.1870 5.1378, -4.8130 1.3239 4.9606, -4.8130 1.3239 5.1378, -5.0000 1.3740 4.9606, -5.0000 1.3740 5.1378, -5.1870 1.3239 4.9606, -5.1870 1.3239 5.1378, -5.3239 1.1870 4.9606, -5.3239 1.1870 5.1378, -5.3740 1.0000 4.9606, -5.3740 1.0000 5.1378, -5.3239 0.8130 4.9606, -5.3239 0.8130 5.1378, -5.1870 0.6761 4.9606, -5.1870 0.6761 5.1378, -5.0000 0.6260 4.9606, -5.0000 0.6260 5.1378, -4.8130 0.6761 4.9606, -4.8130 0.6761 5.1378, -4.6761 0.8130 4.9606, -4.6761 0.8130 5.1378 ] } coordIndex [ 0, 2, 3, 1, -1, 2, 4, 5, 3, -1, 4, 6, 7, 5, -1, 6, 8, 9, 7, -1, 8, 10, 11, 9, -1, 10, 12, 13, 11, -1, 12, 14, 15, 13, -1, 14, 16, 17, 15, -1, 16, 18, 19, 17, -1, 18, 20, 21, 19, -1, 20, 22, 23, 21, -1, 22, 0, 1, 23, -1, 22, 20, 18, 16, 14, 12, 10, 8, 6, 4, 2, 0, -1, 1, 3, 5, 7, 9, 11, 13, 15, 17, 19, 21, 23, -1 ] } },
Shape { appearance Appearance { material Material { diffuseColor 0.830 0.680 0.280 specularColor 0.70 0.70 0.70 shininess 0.30 } } geometry IndexedFaceSet { solid FALSE coord Coordinate { point [ -5.1260 0.8740 4.9606, -4.8740 0.8740 4.9606, -4.8740 1.1260 4.9606, -5.1260 1.1260 4.9606, -5.1260 0.8740 5.8268, -4.8740 0.8740 5.8268, -4.8740 1.1260 5.8268, -5.1260 1.1260 5.8268 ] } coordIndex [ 0, 3, 2, 1, -1, 4, 5, 6, 7, -1, 0, 1, 5, 4, -1, 1, 2, 6, 5, -1, 2, 3, 7, 6, -1, 3, 0, 4, 7, -1 ] } },
Shape { appearance Appearance { material Material { diffuseColor 0.720 0.720 0.700 specularColor 0.80 0.80 0.80 shininess 0.30 } } geometry IndexedFaceSet { solid FALSE coord Coordinate { point [ -4.6260 0.0000 4.9606, -4.6260 0.0000 5.1378, -4.6761 0.1870 4.9606, -4.6761 0.1870 5.1378, -4.8130 0.3239 4.9606, -4.8130 0.3239 5.1378, -5.0000 0.3740 4.9606, -5.0000 0.3740 5.1378, -5.1870 0.3239 4.9606, -5.1870 0.3239 5.1378, -5.3239 0.1870 4.9606, -5.3239 0.1870 5.1378, -5.3740 0.0000 4.9606, -5.3740 0.0000 5.1378, -5.3239 -0.1870 4.9606, -5.3239 -0.1870 5.1378, -5.1870 -0.3239 4.9606, -5.1870 -0.3239 5.1378, -5.0000 -0.3740 4.9606, -5.0000 -0.3740 5.1378, -4.8130 -0.3239 4.9606, -4.8130 -0.3239 5.1378, -4.6761 -0.1870 4.9606, -4.6761 -0.1870 5.1378 ] } coordIndex [ 0, 2, 3, 1, -1, 2, 4, 5, 3, -1, 4, 6, 7, 5, -1, 6, 8, 9, 7, -1, 8, 10, 11, 9, -1, 10, 12, 13, 11, -1, 12, 14, 15, 13, -1, 14, 16, 17, 15, -1, 16, 18, 19, 17, -1, 18, 20, 21, 19, -1, 20, 22, 23, 21, -1, 22, 0, 1, 23, -1, 22, 20, 18, 16, 14, 12, 10, 8, 6, 4, 2, 0, -1, 1, 3, 5, 7, 9, 11, 13, 15, 17, 19, 21, 23, -1 ] } },
Shape { appearance Appearance { material Material { diffuseColor 0.830 0.680 0.280 specularColor 0.70 0.70 0.70 shininess 0.30 } } geometry IndexedFaceSet { solid FALSE coord Coordinate { point [ -5.1260 -0.1260 4.9606, -4.8740 -0.1260 4.9606, -4.8740 0.1260 4.9606, -5.1260 0.1260 4.9606, -5.1260 -0.1260 5.8268, -4.8740 -0.1260 5.8268, -4.8740 0.1260 5.8268, -5.1260 0.1260 5.8268 ] } coordIndex [ 0, 3, 2, 1, -1, 4, 5, 6, 7, -1, 0, 1, 5, 4, -1, 1, 2, 6, 5, -1, 2, 3, 7, 6, -1, 3, 0, 4, 7, -1 ] } },
Shape { appearance Appearance { material Material { diffuseColor 0.720 0.720 0.700 specularColor 0.80 0.80 0.80 shininess 0.30 } } geometry IndexedFaceSet { solid FALSE coord Coordinate { point [ -4.6260 -1.0000 4.9606, -4.6260 -1.0000 5.1378, -4.6761 -0.8130 4.9606, -4.6761 -0.8130 5.1378, -4.8130 -0.6761 4.9606, -4.8130 -0.6761 5.1378, -5.0000 -0.6260 4.9606, -5.0000 -0.6260 5.1378, -5.1870 -0.6761 4.9606, -5.1870 -0.6761 5.1378, -5.3239 -0.8130 4.9606, -5.3239 -0.8130 5.1378, -5.3740 -1.0000 4.9606, -5.3740 -1.0000 5.1378, -5.3239 -1.1870 4.9606, -5.3239 -1.1870 5.1378, -5.1870 -1.3239 4.9606, -5.1870 -1.3239 5.1378, -5.0000 -1.3740 4.9606, -5.0000 -1.3740 5.1378, -4.8130 -1.3239 4.9606, -4.8130 -1.3239 5.1378, -4.6761 -1.1870 4.9606, -4.6761 -1.1870 5.1378 ] } coordIndex [ 0, 2, 3, 1, -1, 2, 4, 5, 3, -1, 4, 6, 7, 5, -1, 6, 8, 9, 7, -1, 8, 10, 11, 9, -1, 10, 12, 13, 11, -1, 12, 14, 15, 13, -1, 14, 16, 17, 15, -1, 16, 18, 19, 17, -1, 18, 20, 21, 19, -1, 20, 22, 23, 21, -1, 22, 0, 1, 23, -1, 22, 20, 18, 16, 14, 12, 10, 8, 6, 4, 2, 0, -1, 1, 3, 5, 7, 9, 11, 13, 15, 17, 19, 21, 23, -1 ] } },
Shape { appearance Appearance { material Material { diffuseColor 0.830 0.680 0.280 specularColor 0.70 0.70 0.70 shininess 0.30 } } geometry IndexedFaceSet { solid FALSE coord Coordinate { point [ -5.1260 -1.1260 4.9606, -4.8740 -1.1260 4.9606, -4.8740 -0.8740 4.9606, -5.1260 -0.8740 4.9606, -5.1260 -1.1260 5.8268, -4.8740 -1.1260 5.8268, -4.8740 -0.8740 5.8268, -5.1260 -0.8740 5.8268 ] } coordIndex [ 0, 3, 2, 1, -1, 4, 5, 6, 7, -1, 0, 1, 5, 4, -1, 1, 2, 6, 5, -1, 2, 3, 7, 6, -1, 3, 0, 4, 7, -1 ] } },
Shape { appearance Appearance { material Material { diffuseColor 0.720 0.720 0.700 specularColor 0.80 0.80 0.80 shininess 0.30 } } geometry IndexedFaceSet { solid FALSE coord Coordinate { point [ -4.6260 -2.0000 4.9606, -4.6260 -2.0000 5.1378, -4.6761 -1.8130 4.9606, -4.6761 -1.8130 5.1378, -4.8130 -1.6761 4.9606, -4.8130 -1.6761 5.1378, -5.0000 -1.6260 4.9606, -5.0000 -1.6260 5.1378, -5.1870 -1.6761 4.9606, -5.1870 -1.6761 5.1378, -5.3239 -1.8130 4.9606, -5.3239 -1.8130 5.1378, -5.3740 -2.0000 4.9606, -5.3740 -2.0000 5.1378, -5.3239 -2.1870 4.9606, -5.3239 -2.1870 5.1378, -5.1870 -2.3239 4.9606, -5.1870 -2.3239 5.1378, -5.0000 -2.3740 4.9606, -5.0000 -2.3740 5.1378, -4.8130 -2.3239 4.9606, -4.8130 -2.3239 5.1378, -4.6761 -2.1870 4.9606, -4.6761 -2.1870 5.1378 ] } coordIndex [ 0, 2, 3, 1, -1, 2, 4, 5, 3, -1, 4, 6, 7, 5, -1, 6, 8, 9, 7, -1, 8, 10, 11, 9, -1, 10, 12, 13, 11, -1, 12, 14, 15, 13, -1, 14, 16, 17, 15, -1, 16, 18, 19, 17, -1, 18, 20, 21, 19, -1, 20, 22, 23, 21, -1, 22, 0, 1, 23, -1, 22, 20, 18, 16, 14, 12, 10, 8, 6, 4, 2, 0, -1, 1, 3, 5, 7, 9, 11, 13, 15, 17, 19, 21, 23, -1 ] } },
Shape { appearance Appearance { material Material { diffuseColor 0.830 0.680 0.280 specularColor 0.70 0.70 0.70 shininess 0.30 } } geometry IndexedFaceSet { solid FALSE coord Coordinate { point [ -5.1260 -2.1260 4.9606, -4.8740 -2.1260 4.9606, -4.8740 -1.8740 4.9606, -5.1260 -1.8740 4.9606, -5.1260 -2.1260 5.8268, -4.8740 -2.1260 5.8268, -4.8740 -1.8740 5.8268, -5.1260 -1.8740 5.8268 ] } coordIndex [ 0, 3, 2, 1, -1, 4, 5, 6, 7, -1, 0, 1, 5, 4, -1, 1, 2, 6, 5, -1, 2, 3, 7, 6, -1, 3, 0, 4, 7, -1 ] } },
Shape { appearance Appearance { material Material { diffuseColor 0.720 0.720 0.700 specularColor 0.80 0.80 0.80 shininess 0.30 } } geometry IndexedFaceSet { solid FALSE coord Coordinate { point [ -4.6260 -3.0000 4.9606, -4.6260 -3.0000 5.1378, -4.6761 -2.8130 4.9606, -4.6761 -2.8130 5.1378, -4.8130 -2.6761 4.9606, -4.8130 -2.6761 5.1378, -5.0000 -2.6260 4.9606, -5.0000 -2.6260 5.1378, -5.1870 -2.6761 4.9606, -5.1870 -2.6761 5.1378, -5.3239 -2.8130 4.9606, -5.3239 -2.8130 5.1378, -5.3740 -3.0000 4.9606, -5.3740 -3.0000 5.1378, -5.3239 -3.1870 4.9606, -5.3239 -3.1870 5.1378, -5.1870 -3.3239 4.9606, -5.1870 -3.3239 5.1378, -5.0000 -3.3740 4.9606, -5.0000 -3.3740 5.1378, -4.8130 -3.3239 4.9606, -4.8130 -3.3239 5.1378, -4.6761 -3.1870 4.9606, -4.6761 -3.1870 5.1378 ] } coordIndex [ 0, 2, 3, 1, -1, 2, 4, 5, 3, -1, 4, 6, 7, 5, -1, 6, 8, 9, 7, -1, 8, 10, 11, 9, -1, 10, 12, 13, 11, -1, 12, 14, 15, 13, -1, 14, 16, 17, 15, -1, 16, 18, 19, 17, -1, 18, 20, 21, 19, -1, 20, 22, 23, 21, -1, 22, 0, 1, 23, -1, 22, 20, 18, 16, 14, 12, 10, 8, 6, 4, 2, 0, -1, 1, 3, 5, 7, 9, 11, 13, 15, 17, 19, 21, 23, -1 ] } },
Shape { appearance Appearance { material Material { diffuseColor 0.830 0.680 0.280 specularColor 0.70 0.70 0.70 shininess 0.30 } } geometry IndexedFaceSet { solid FALSE coord Coordinate { point [ -5.1260 -3.1260 4.9606, -4.8740 -3.1260 4.9606, -4.8740 -2.8740 4.9606, -5.1260 -2.8740 4.9606, -5.1260 -3.1260 5.8268, -4.8740 -3.1260 5.8268, -4.8740 -2.8740 5.8268, -5.1260 -2.8740 5.8268 ] } coordIndex [ 0, 3, 2, 1, -1, 4, 5, 6, 7, -1, 0, 1, 5, 4, -1, 1, 2, 6, 5, -1, 2, 3, 7, 6, -1, 3, 0, 4, 7, -1 ] } },
Shape { appearance Appearance { material Material { diffuseColor 0.720 0.720 0.700 specularColor 0.80 0.80 0.80 shininess 0.30 } } geometry IndexedFaceSet { solid FALSE coord Coordinate { point [ -4.6260 -4.0000 4.9606, -4.6260 -4.0000 5.1378, -4.6761 -3.8130 4.9606, -4.6761 -3.8130 5.1378, -4.8130 -3.6761 4.9606, -4.8130 -3.6761 5.1378, -5.0000 -3.6260 4.9606, -5.0000 -3.6260 5.1378, -5.1870 -3.6761 4.9606, -5.1870 -3.6761 5.1378, -5.3239 -3.8130 4.9606, -5.3239 -3.8130 5.1378, -5.3740 -4.0000 4.9606, -5.3740 -4.0000 5.1378, -5.3239 -4.1870 4.9606, -5.3239 -4.1870 5.1378, -5.1870 -4.3239 4.9606, -5.1870 -4.3239 5.1378, -5.0000 -4.3740 4.9606, -5.0000 -4.3740 5.1378, -4.8130 -4.3239 4.9606, -4.8130 -4.3239 5.1378, -4.6761 -4.1870 4.9606, -4.6761 -4.1870 5.1378 ] } coordIndex [ 0, 2, 3, 1, -1, 2, 4, 5, 3, -1, 4, 6, 7, 5, -1, 6, 8, 9, 7, -1, 8, 10, 11, 9, -1, 10, 12, 13, 11, -1, 12, 14, 15, 13, -1, 14, 16, 17, 15, -1, 16, 18, 19, 17, -1, 18, 20, 21, 19, -1, 20, 22, 23, 21, -1, 22, 0, 1, 23, -1, 22, 20, 18, 16, 14, 12, 10, 8, 6, 4, 2, 0, -1, 1, 3, 5, 7, 9, 11, 13, 15, 17, 19, 21, 23, -1 ] } },
Shape { appearance Appearance { material Material { diffuseColor 0.830 0.680 0.280 specularColor 0.70 0.70 0.70 shininess 0.30 } } geometry IndexedFaceSet { solid FALSE coord Coordinate { point [ -5.1260 -4.1260 4.9606, -4.8740 -4.1260 4.9606, -4.8740 -3.8740 4.9606, -5.1260 -3.8740 4.9606, -5.1260 -4.1260 5.8268, -4.8740 -4.1260 5.8268, -4.8740 -3.8740 5.8268, -5.1260 -3.8740 5.8268 ] } coordIndex [ 0, 3, 2, 1, -1, 4, 5, 6, 7, -1, 0, 1, 5, 4, -1, 1, 2, 6, 5, -1, 2, 3, 7, 6, -1, 3, 0, 4, 7, -1 ] } },
Shape { appearance Appearance { material Material { diffuseColor 0.720 0.720 0.700 specularColor 0.80 0.80 0.80 shininess 0.30 } } geometry IndexedFaceSet { solid FALSE coord Coordinate { point [ -4.6260 -5.0000 4.9606, -4.6260 -5.0000 5.1378, -4.6761 -4.8130 4.9606, -4.6761 -4.8130 5.1378, -4.8130 -4.6761 4.9606, -4.8130 -4.6761 5.1378, -5.0000 -4.6260 4.9606, -5.0000 -4.6260 5.1378, -5.1870 -4.6761 4.9606, -5.1870 -4.6761 5.1378, -5.3239 -4.8130 4.9606, -5.3239 -4.8130 5.1378, -5.3740 -5.0000 4.9606, -5.3740 -5.0000 5.1378, -5.3239 -5.1870 4.9606, -5.3239 -5.1870 5.1378, -5.1870 -5.3239 4.9606, -5.1870 -5.3239 5.1378, -5.0000 -5.3740 4.9606, -5.0000 -5.3740 5.1378, -4.8130 -5.3239 4.9606, -4.8130 -5.3239 5.1378, -4.6761 -5.1870 4.9606, -4.6761 -5.1870 5.1378 ] } coordIndex [ 0, 2, 3, 1, -1, 2, 4, 5, 3, -1, 4, 6, 7, 5, -1, 6, 8, 9, 7, -1, 8, 10, 11, 9, -1, 10, 12, 13, 11, -1, 12, 14, 15, 13, -1, 14, 16, 17, 15, -1, 16, 18, 19, 17, -1, 18, 20, 21, 19, -1, 20, 22, 23, 21, -1, 22, 0, 1, 23, -1, 22, 20, 18, 16, 14, 12, 10, 8, 6, 4, 2, 0, -1, 1, 3, 5, 7, 9, 11, 13, 15, 17, 19, 21, 23, -1 ] } },
Shape { appearance Appearance { material Material { diffuseColor 0.830 0.680 0.280 specularColor 0.70 0.70 0.70 shininess 0.30 } } geometry IndexedFaceSet { solid FALSE coord Coordinate { point [ -5.1260 -5.1260 4.9606, -4.8740 -5.1260 4.9606, -4.8740 -4.8740 4.9606, -5.1260 -4.8740 4.9606, -5.1260 -5.1260 5.8268, -4.8740 -5.1260 5.8268, -4.8740 -4.8740 5.8268, -5.1260 -4.8740 5.8268 ] } coordIndex [ 0, 3, 2, 1, -1, 4, 5, 6, 7, -1, 0, 1, 5, 4, -1, 1, 2, 6, 5, -1, 2, 3, 7, 6, -1, 3, 0, 4, 7, -1 ] } },
Shape { appearance Appearance { material Material { diffuseColor 0.720 0.720 0.700 specularColor 0.80 0.80 0.80 shininess 0.30 } } geometry IndexedFaceSet { solid FALSE coord Coordinate { point [ -4.6260 -6.0000 4.9606, -4.6260 -6.0000 5.1378, -4.6761 -5.8130 4.9606, -4.6761 -5.8130 5.1378, -4.8130 -5.6761 4.9606, -4.8130 -5.6761 5.1378, -5.0000 -5.6260 4.9606, -5.0000 -5.6260 5.1378, -5.1870 -5.6761 4.9606, -5.1870 -5.6761 5.1378, -5.3239 -5.8130 4.9606, -5.3239 -5.8130 5.1378, -5.3740 -6.0000 4.9606, -5.3740 -6.0000 5.1378, -5.3239 -6.1870 4.9606, -5.3239 -6.1870 5.1378, -5.1870 -6.3239 4.9606, -5.1870 -6.3239 5.1378, -5.0000 -6.3740 4.9606, -5.0000 -6.3740 5.1378, -4.8130 -6.3239 4.9606, -4.8130 -6.3239 5.1378, -4.6761 -6.1870 4.9606, -4.6761 -6.1870 5.1378 ] } coordIndex [ 0, 2, 3, 1, -1, 2, 4, 5, 3, -1, 4, 6, 7, 5, -1, 6, 8, 9, 7, -1, 8, 10, 11, 9, -1, 10, 12, 13, 11, -1, 12, 14, 15, 13, -1, 14, 16, 17, 15, -1, 16, 18, 19, 17, -1, 18, 20, 21, 19, -1, 20, 22, 23, 21, -1, 22, 0, 1, 23, -1, 22, 20, 18, 16, 14, 12, 10, 8, 6, 4, 2, 0, -1, 1, 3, 5, 7, 9, 11, 13, 15, 17, 19, 21, 23, -1 ] } },
Shape { appearance Appearance { material Material { diffuseColor 0.830 0.680 0.280 specularColor 0.70 0.70 0.70 shininess 0.30 } } geometry IndexedFaceSet { solid FALSE coord Coordinate { point [ -5.1260 -6.1260 4.9606, -4.8740 -6.1260 4.9606, -4.8740 -5.8740 4.9606, -5.1260 -5.8740 4.9606, -5.1260 -6.1260 5.8268, -4.8740 -6.1260 5.8268, -4.8740 -5.8740 5.8268, -5.1260 -5.8740 5.8268 ] } coordIndex [ 0, 3, 2, 1, -1, 4, 5, 6, 7, -1, 0, 1, 5, 4, -1, 1, 2, 6, 5, -1, 2, 3, 7, 6, -1, 3, 0, 4, 7, -1 ] } },
Shape { appearance Appearance { material Material { diffuseColor 0.720 0.720 0.700 specularColor 0.80 0.80 0.80 shininess 0.30 } } geometry IndexedFaceSet { solid FALSE coord Coordinate { point [ -4.6260 -7.0000 4.9606, -4.6260 -7.0000 5.1378, -4.6761 -6.8130 4.9606, -4.6761 -6.8130 5.1378, -4.8130 -6.6761 4.9606, -4.8130 -6.6761 5.1378, -5.0000 -6.6260 4.9606, -5.0000 -6.6260 5.1378, -5.1870 -6.6761 4.9606, -5.1870 -6.6761 5.1378, -5.3239 -6.8130 4.9606, -5.3239 -6.8130 5.1378, -5.3740 -7.0000 4.9606, -5.3740 -7.0000 5.1378, -5.3239 -7.1870 4.9606, -5.3239 -7.1870 5.1378, -5.1870 -7.3239 4.9606, -5.1870 -7.3239 5.1378, -5.0000 -7.3740 4.9606, -5.0000 -7.3740 5.1378, -4.8130 -7.3239 4.9606, -4.8130 -7.3239 5.1378, -4.6761 -7.1870 4.9606, -4.6761 -7.1870 5.1378 ] } coordIndex [ 0, 2, 3, 1, -1, 2, 4, 5, 3, -1, 4, 6, 7, 5, -1, 6, 8, 9, 7, -1, 8, 10, 11, 9, -1, 10, 12, 13, 11, -1, 12, 14, 15, 13, -1, 14, 16, 17, 15, -1, 16, 18, 19, 17, -1, 18, 20, 21, 19, -1, 20, 22, 23, 21, -1, 22, 0, 1, 23, -1, 22, 20, 18, 16, 14, 12, 10, 8, 6, 4, 2, 0, -1, 1, 3, 5, 7, 9, 11, 13, 15, 17, 19, 21, 23, -1 ] } },
Shape { appearance Appearance { material Material { diffuseColor 0.830 0.680 0.280 specularColor 0.70 0.70 0.70 shininess 0.30 } } geometry IndexedFaceSet { solid FALSE coord Coordinate { point [ -5.1260 -7.1260 4.9606, -4.8740 -7.1260 4.9606, -4.8740 -6.8740 4.9606, -5.1260 -6.8740 4.9606, -5.1260 -7.1260 5.8268, -4.8740 -7.1260 5.8268, -4.8740 -6.8740 5.8268, -5.1260 -6.8740 5.8268 ] } coordIndex [ 0, 3, 2, 1, -1, 4, 5, 6, 7, -1, 0, 1, 5, 4, -1, 1, 2, 6, 5, -1, 2, 3, 7, 6, -1, 3, 0, 4, 7, -1 ] } },
Shape { appearance Appearance { material Material { diffuseColor 0.720 0.720 0.700 specularColor 0.80 0.80 0.80 shininess 0.30 } } geometry IndexedFaceSet { solid FALSE coord Coordinate { point [ -4.6260 -8.0000 4.9606, -4.6260 -8.0000 5.1378, -4.6761 -7.8130 4.9606, -4.6761 -7.8130 5.1378, -4.8130 -7.6761 4.9606, -4.8130 -7.6761 5.1378, -5.0000 -7.6260 4.9606, -5.0000 -7.6260 5.1378, -5.1870 -7.6761 4.9606, -5.1870 -7.6761 5.1378, -5.3239 -7.8130 4.9606, -5.3239 -7.8130 5.1378, -5.3740 -8.0000 4.9606, -5.3740 -8.0000 5.1378, -5.3239 -8.1870 4.9606, -5.3239 -8.1870 5.1378, -5.1870 -8.3239 4.9606, -5.1870 -8.3239 5.1378, -5.0000 -8.3740 4.9606, -5.0000 -8.3740 5.1378, -4.8130 -8.3239 4.9606, -4.8130 -8.3239 5.1378, -4.6761 -8.1870 4.9606, -4.6761 -8.1870 5.1378 ] } coordIndex [ 0, 2, 3, 1, -1, 2, 4, 5, 3, -1, 4, 6, 7, 5, -1, 6, 8, 9, 7, -1, 8, 10, 11, 9, -1, 10, 12, 13, 11, -1, 12, 14, 15, 13, -1, 14, 16, 17, 15, -1, 16, 18, 19, 17, -1, 18, 20, 21, 19, -1, 20, 22, 23, 21, -1, 22, 0, 1, 23, -1, 22, 20, 18, 16, 14, 12, 10, 8, 6, 4, 2, 0, -1, 1, 3, 5, 7, 9, 11, 13, 15, 17, 19, 21, 23, -1 ] } },
Shape { appearance Appearance { material Material { diffuseColor 0.830 0.680 0.280 specularColor 0.70 0.70 0.70 shininess 0.30 } } geometry IndexedFaceSet { solid FALSE coord Coordinate { point [ -5.1260 -8.1260 4.9606, -4.8740 -8.1260 4.9606, -4.8740 -7.8740 4.9606, -5.1260 -7.8740 4.9606, -5.1260 -8.1260 5.8268, -4.8740 -8.1260 5.8268, -4.8740 -7.8740 5.8268, -5.1260 -7.8740 5.8268 ] } coordIndex [ 0, 3, 2, 1, -1, 4, 5, 6, 7, -1, 0, 1, 5, 4, -1, 1, 2, 6, 5, -1, 2, 3, 7, 6, -1, 3, 0, 4, 7, -1 ] } },
Shape { appearance Appearance { material Material { diffuseColor 0.720 0.720 0.700 specularColor 0.80 0.80 0.80 shininess 0.30 } } geometry IndexedFaceSet { solid FALSE coord Coordinate { point [ -4.6260 -9.0000 4.9606, -4.6260 -9.0000 5.1378, -4.6761 -8.8130 4.9606, -4.6761 -8.8130 5.1378, -4.8130 -8.6761 4.9606, -4.8130 -8.6761 5.1378, -5.0000 -8.6260 4.9606, -5.0000 -8.6260 5.1378, -5.1870 -8.6761 4.9606, -5.1870 -8.6761 5.1378, -5.3239 -8.8130 4.9606, -5.3239 -8.8130 5.1378, -5.3740 -9.0000 4.9606, -5.3740 -9.0000 5.1378, -5.3239 -9.1870 4.9606, -5.3239 -9.1870 5.1378, -5.1870 -9.3239 4.9606, -5.1870 -9.3239 5.1378, -5.0000 -9.3740 4.9606, -5.0000 -9.3740 5.1378, -4.8130 -9.3239 4.9606, -4.8130 -9.3239 5.1378, -4.6761 -9.1870 4.9606, -4.6761 -9.1870 5.1378 ] } coordIndex [ 0, 2, 3, 1, -1, 2, 4, 5, 3, -1, 4, 6, 7, 5, -1, 6, 8, 9, 7, -1, 8, 10, 11, 9, -1, 10, 12, 13, 11, -1, 12, 14, 15, 13, -1, 14, 16, 17, 15, -1, 16, 18, 19, 17, -1, 18, 20, 21, 19, -1, 20, 22, 23, 21, -1, 22, 0, 1, 23, -1, 22, 20, 18, 16, 14, 12, 10, 8, 6, 4, 2, 0, -1, 1, 3, 5, 7, 9, 11, 13, 15, 17, 19, 21, 23, -1 ] } },
Shape { appearance Appearance { material Material { diffuseColor 0.830 0.680 0.280 specularColor 0.70 0.70 0.70 shininess 0.30 } } geometry IndexedFaceSet { solid FALSE coord Coordinate { point [ -5.1260 -9.1260 4.9606, -4.8740 -9.1260 4.9606, -4.8740 -8.8740 4.9606, -5.1260 -8.8740 4.9606, -5.1260 -9.1260 5.8268, -4.8740 -9.1260 5.8268, -4.8740 -8.8740 5.8268, -5.1260 -8.8740 5.8268 ] } coordIndex [ 0, 3, 2, 1, -1, 4, 5, 6, 7, -1, 0, 1, 5, 4, -1, 1, 2, 6, 5, -1, 2, 3, 7, 6, -1, 3, 0, 4, 7, -1 ] } },
Shape { appearance Appearance { material Material { diffuseColor 0.720 0.720 0.700 specularColor 0.80 0.80 0.80 shininess 0.30 } } geometry IndexedFaceSet { solid FALSE coord Coordinate { point [ 5.3740 9.0000 4.9606, 5.3740 9.0000 5.1378, 5.3239 9.1870 4.9606, 5.3239 9.1870 5.1378, 5.1870 9.3239 4.9606, 5.1870 9.3239 5.1378, 5.0000 9.3740 4.9606, 5.0000 9.3740 5.1378, 4.8130 9.3239 4.9606, 4.8130 9.3239 5.1378, 4.6761 9.1870 4.9606, 4.6761 9.1870 5.1378, 4.6260 9.0000 4.9606, 4.6260 9.0000 5.1378, 4.6761 8.8130 4.9606, 4.6761 8.8130 5.1378, 4.8130 8.6761 4.9606, 4.8130 8.6761 5.1378, 5.0000 8.6260 4.9606, 5.0000 8.6260 5.1378, 5.1870 8.6761 4.9606, 5.1870 8.6761 5.1378, 5.3239 8.8130 4.9606, 5.3239 8.8130 5.1378 ] } coordIndex [ 0, 2, 3, 1, -1, 2, 4, 5, 3, -1, 4, 6, 7, 5, -1, 6, 8, 9, 7, -1, 8, 10, 11, 9, -1, 10, 12, 13, 11, -1, 12, 14, 15, 13, -1, 14, 16, 17, 15, -1, 16, 18, 19, 17, -1, 18, 20, 21, 19, -1, 20, 22, 23, 21, -1, 22, 0, 1, 23, -1, 22, 20, 18, 16, 14, 12, 10, 8, 6, 4, 2, 0, -1, 1, 3, 5, 7, 9, 11, 13, 15, 17, 19, 21, 23, -1 ] } },
Shape { appearance Appearance { material Material { diffuseColor 0.830 0.680 0.280 specularColor 0.70 0.70 0.70 shininess 0.30 } } geometry IndexedFaceSet { solid FALSE coord Coordinate { point [ 4.8740 8.8740 4.9606, 5.1260 8.8740 4.9606, 5.1260 9.1260 4.9606, 4.8740 9.1260 4.9606, 4.8740 8.8740 5.8268, 5.1260 8.8740 5.8268, 5.1260 9.1260 5.8268, 4.8740 9.1260 5.8268 ] } coordIndex [ 0, 3, 2, 1, -1, 4, 5, 6, 7, -1, 0, 1, 5, 4, -1, 1, 2, 6, 5, -1, 2, 3, 7, 6, -1, 3, 0, 4, 7, -1 ] } },
Shape { appearance Appearance { material Material { diffuseColor 0.720 0.720 0.700 specularColor 0.80 0.80 0.80 shininess 0.30 } } geometry IndexedFaceSet { solid FALSE coord Coordinate { point [ 5.3740 8.0000 4.9606, 5.3740 8.0000 5.1378, 5.3239 8.1870 4.9606, 5.3239 8.1870 5.1378, 5.1870 8.3239 4.9606, 5.1870 8.3239 5.1378, 5.0000 8.3740 4.9606, 5.0000 8.3740 5.1378, 4.8130 8.3239 4.9606, 4.8130 8.3239 5.1378, 4.6761 8.1870 4.9606, 4.6761 8.1870 5.1378, 4.6260 8.0000 4.9606, 4.6260 8.0000 5.1378, 4.6761 7.8130 4.9606, 4.6761 7.8130 5.1378, 4.8130 7.6761 4.9606, 4.8130 7.6761 5.1378, 5.0000 7.6260 4.9606, 5.0000 7.6260 5.1378, 5.1870 7.6761 4.9606, 5.1870 7.6761 5.1378, 5.3239 7.8130 4.9606, 5.3239 7.8130 5.1378 ] } coordIndex [ 0, 2, 3, 1, -1, 2, 4, 5, 3, -1, 4, 6, 7, 5, -1, 6, 8, 9, 7, -1, 8, 10, 11, 9, -1, 10, 12, 13, 11, -1, 12, 14, 15, 13, -1, 14, 16, 17, 15, -1, 16, 18, 19, 17, -1, 18, 20, 21, 19, -1, 20, 22, 23, 21, -1, 22, 0, 1, 23, -1, 22, 20, 18, 16, 14, 12, 10, 8, 6, 4, 2, 0, -1, 1, 3, 5, 7, 9, 11, 13, 15, 17, 19, 21, 23, -1 ] } },
Shape { appearance Appearance { material Material { diffuseColor 0.830 0.680 0.280 specularColor 0.70 0.70 0.70 shininess 0.30 } } geometry IndexedFaceSet { solid FALSE coord Coordinate { point [ 4.8740 7.8740 4.9606, 5.1260 7.8740 4.9606, 5.1260 8.1260 4.9606, 4.8740 8.1260 4.9606, 4.8740 7.8740 5.8268, 5.1260 7.8740 5.8268, 5.1260 8.1260 5.8268, 4.8740 8.1260 5.8268 ] } coordIndex [ 0, 3, 2, 1, -1, 4, 5, 6, 7, -1, 0, 1, 5, 4, -1, 1, 2, 6, 5, -1, 2, 3, 7, 6, -1, 3, 0, 4, 7, -1 ] } },
Shape { appearance Appearance { material Material { diffuseColor 0.720 0.720 0.700 specularColor 0.80 0.80 0.80 shininess 0.30 } } geometry IndexedFaceSet { solid FALSE coord Coordinate { point [ 5.3740 7.0000 4.9606, 5.3740 7.0000 5.1378, 5.3239 7.1870 4.9606, 5.3239 7.1870 5.1378, 5.1870 7.3239 4.9606, 5.1870 7.3239 5.1378, 5.0000 7.3740 4.9606, 5.0000 7.3740 5.1378, 4.8130 7.3239 4.9606, 4.8130 7.3239 5.1378, 4.6761 7.1870 4.9606, 4.6761 7.1870 5.1378, 4.6260 7.0000 4.9606, 4.6260 7.0000 5.1378, 4.6761 6.8130 4.9606, 4.6761 6.8130 5.1378, 4.8130 6.6761 4.9606, 4.8130 6.6761 5.1378, 5.0000 6.6260 4.9606, 5.0000 6.6260 5.1378, 5.1870 6.6761 4.9606, 5.1870 6.6761 5.1378, 5.3239 6.8130 4.9606, 5.3239 6.8130 5.1378 ] } coordIndex [ 0, 2, 3, 1, -1, 2, 4, 5, 3, -1, 4, 6, 7, 5, -1, 6, 8, 9, 7, -1, 8, 10, 11, 9, -1, 10, 12, 13, 11, -1, 12, 14, 15, 13, -1, 14, 16, 17, 15, -1, 16, 18, 19, 17, -1, 18, 20, 21, 19, -1, 20, 22, 23, 21, -1, 22, 0, 1, 23, -1, 22, 20, 18, 16, 14, 12, 10, 8, 6, 4, 2, 0, -1, 1, 3, 5, 7, 9, 11, 13, 15, 17, 19, 21, 23, -1 ] } },
Shape { appearance Appearance { material Material { diffuseColor 0.830 0.680 0.280 specularColor 0.70 0.70 0.70 shininess 0.30 } } geometry IndexedFaceSet { solid FALSE coord Coordinate { point [ 4.8740 6.8740 4.9606, 5.1260 6.8740 4.9606, 5.1260 7.1260 4.9606, 4.8740 7.1260 4.9606, 4.8740 6.8740 5.8268, 5.1260 6.8740 5.8268, 5.1260 7.1260 5.8268, 4.8740 7.1260 5.8268 ] } coordIndex [ 0, 3, 2, 1, -1, 4, 5, 6, 7, -1, 0, 1, 5, 4, -1, 1, 2, 6, 5, -1, 2, 3, 7, 6, -1, 3, 0, 4, 7, -1 ] } },
Shape { appearance Appearance { material Material { diffuseColor 0.720 0.720 0.700 specularColor 0.80 0.80 0.80 shininess 0.30 } } geometry IndexedFaceSet { solid FALSE coord Coordinate { point [ 5.3740 6.0000 4.9606, 5.3740 6.0000 5.1378, 5.3239 6.1870 4.9606, 5.3239 6.1870 5.1378, 5.1870 6.3239 4.9606, 5.1870 6.3239 5.1378, 5.0000 6.3740 4.9606, 5.0000 6.3740 5.1378, 4.8130 6.3239 4.9606, 4.8130 6.3239 5.1378, 4.6761 6.1870 4.9606, 4.6761 6.1870 5.1378, 4.6260 6.0000 4.9606, 4.6260 6.0000 5.1378, 4.6761 5.8130 4.9606, 4.6761 5.8130 5.1378, 4.8130 5.6761 4.9606, 4.8130 5.6761 5.1378, 5.0000 5.6260 4.9606, 5.0000 5.6260 5.1378, 5.1870 5.6761 4.9606, 5.1870 5.6761 5.1378, 5.3239 5.8130 4.9606, 5.3239 5.8130 5.1378 ] } coordIndex [ 0, 2, 3, 1, -1, 2, 4, 5, 3, -1, 4, 6, 7, 5, -1, 6, 8, 9, 7, -1, 8, 10, 11, 9, -1, 10, 12, 13, 11, -1, 12, 14, 15, 13, -1, 14, 16, 17, 15, -1, 16, 18, 19, 17, -1, 18, 20, 21, 19, -1, 20, 22, 23, 21, -1, 22, 0, 1, 23, -1, 22, 20, 18, 16, 14, 12, 10, 8, 6, 4, 2, 0, -1, 1, 3, 5, 7, 9, 11, 13, 15, 17, 19, 21, 23, -1 ] } },
Shape { appearance Appearance { material Material { diffuseColor 0.830 0.680 0.280 specularColor 0.70 0.70 0.70 shininess 0.30 } } geometry IndexedFaceSet { solid FALSE coord Coordinate { point [ 4.8740 5.8740 4.9606, 5.1260 5.8740 4.9606, 5.1260 6.1260 4.9606, 4.8740 6.1260 4.9606, 4.8740 5.8740 5.8268, 5.1260 5.8740 5.8268, 5.1260 6.1260 5.8268, 4.8740 6.1260 5.8268 ] } coordIndex [ 0, 3, 2, 1, -1, 4, 5, 6, 7, -1, 0, 1, 5, 4, -1, 1, 2, 6, 5, -1, 2, 3, 7, 6, -1, 3, 0, 4, 7, -1 ] } },
Shape { appearance Appearance { material Material { diffuseColor 0.720 0.720 0.700 specularColor 0.80 0.80 0.80 shininess 0.30 } } geometry IndexedFaceSet { solid FALSE coord Coordinate { point [ 5.3740 5.0000 4.9606, 5.3740 5.0000 5.1378, 5.3239 5.1870 4.9606, 5.3239 5.1870 5.1378, 5.1870 5.3239 4.9606, 5.1870 5.3239 5.1378, 5.0000 5.3740 4.9606, 5.0000 5.3740 5.1378, 4.8130 5.3239 4.9606, 4.8130 5.3239 5.1378, 4.6761 5.1870 4.9606, 4.6761 5.1870 5.1378, 4.6260 5.0000 4.9606, 4.6260 5.0000 5.1378, 4.6761 4.8130 4.9606, 4.6761 4.8130 5.1378, 4.8130 4.6761 4.9606, 4.8130 4.6761 5.1378, 5.0000 4.6260 4.9606, 5.0000 4.6260 5.1378, 5.1870 4.6761 4.9606, 5.1870 4.6761 5.1378, 5.3239 4.8130 4.9606, 5.3239 4.8130 5.1378 ] } coordIndex [ 0, 2, 3, 1, -1, 2, 4, 5, 3, -1, 4, 6, 7, 5, -1, 6, 8, 9, 7, -1, 8, 10, 11, 9, -1, 10, 12, 13, 11, -1, 12, 14, 15, 13, -1, 14, 16, 17, 15, -1, 16, 18, 19, 17, -1, 18, 20, 21, 19, -1, 20, 22, 23, 21, -1, 22, 0, 1, 23, -1, 22, 20, 18, 16, 14, 12, 10, 8, 6, 4, 2, 0, -1, 1, 3, 5, 7, 9, 11, 13, 15, 17, 19, 21, 23, -1 ] } },
Shape { appearance Appearance { material Material { diffuseColor 0.830 0.680 0.280 specularColor 0.70 0.70 0.70 shininess 0.30 } } geometry IndexedFaceSet { solid FALSE coord Coordinate { point [ 4.8740 4.8740 4.9606, 5.1260 4.8740 4.9606, 5.1260 5.1260 4.9606, 4.8740 5.1260 4.9606, 4.8740 4.8740 5.8268, 5.1260 4.8740 5.8268, 5.1260 5.1260 5.8268, 4.8740 5.1260 5.8268 ] } coordIndex [ 0, 3, 2, 1, -1, 4, 5, 6, 7, -1, 0, 1, 5, 4, -1, 1, 2, 6, 5, -1, 2, 3, 7, 6, -1, 3, 0, 4, 7, -1 ] } },
Shape { appearance Appearance { material Material { diffuseColor 0.720 0.720 0.700 specularColor 0.80 0.80 0.80 shininess 0.30 } } geometry IndexedFaceSet { solid FALSE coord Coordinate { point [ 5.3740 4.0000 4.9606, 5.3740 4.0000 5.1378, 5.3239 4.1870 4.9606, 5.3239 4.1870 5.1378, 5.1870 4.3239 4.9606, 5.1870 4.3239 5.1378, 5.0000 4.3740 4.9606, 5.0000 4.3740 5.1378, 4.8130 4.3239 4.9606, 4.8130 4.3239 5.1378, 4.6761 4.1870 4.9606, 4.6761 4.1870 5.1378, 4.6260 4.0000 4.9606, 4.6260 4.0000 5.1378, 4.6761 3.8130 4.9606, 4.6761 3.8130 5.1378, 4.8130 3.6761 4.9606, 4.8130 3.6761 5.1378, 5.0000 3.6260 4.9606, 5.0000 3.6260 5.1378, 5.1870 3.6761 4.9606, 5.1870 3.6761 5.1378, 5.3239 3.8130 4.9606, 5.3239 3.8130 5.1378 ] } coordIndex [ 0, 2, 3, 1, -1, 2, 4, 5, 3, -1, 4, 6, 7, 5, -1, 6, 8, 9, 7, -1, 8, 10, 11, 9, -1, 10, 12, 13, 11, -1, 12, 14, 15, 13, -1, 14, 16, 17, 15, -1, 16, 18, 19, 17, -1, 18, 20, 21, 19, -1, 20, 22, 23, 21, -1, 22, 0, 1, 23, -1, 22, 20, 18, 16, 14, 12, 10, 8, 6, 4, 2, 0, -1, 1, 3, 5, 7, 9, 11, 13, 15, 17, 19, 21, 23, -1 ] } },
Shape { appearance Appearance { material Material { diffuseColor 0.830 0.680 0.280 specularColor 0.70 0.70 0.70 shininess 0.30 } } geometry IndexedFaceSet { solid FALSE coord Coordinate { point [ 4.8740 3.8740 4.9606, 5.1260 3.8740 4.9606, 5.1260 4.1260 4.9606, 4.8740 4.1260 4.9606, 4.8740 3.8740 5.8268, 5.1260 3.8740 5.8268, 5.1260 4.1260 5.8268, 4.8740 4.1260 5.8268 ] } coordIndex [ 0, 3, 2, 1, -1, 4, 5, 6, 7, -1, 0, 1, 5, 4, -1, 1, 2, 6, 5, -1, 2, 3, 7, 6, -1, 3, 0, 4, 7, -1 ] } },
Shape { appearance Appearance { material Material { diffuseColor 0.720 0.720 0.700 specularColor 0.80 0.80 0.80 shininess 0.30 } } geometry IndexedFaceSet { solid FALSE coord Coordinate { point [ 5.3740 3.0000 4.9606, 5.3740 3.0000 5.1378, 5.3239 3.1870 4.9606, 5.3239 3.1870 5.1378, 5.1870 3.3239 4.9606, 5.1870 3.3239 5.1378, 5.0000 3.3740 4.9606, 5.0000 3.3740 5.1378, 4.8130 3.3239 4.9606, 4.8130 3.3239 5.1378, 4.6761 3.1870 4.9606, 4.6761 3.1870 5.1378, 4.6260 3.0000 4.9606, 4.6260 3.0000 5.1378, 4.6761 2.8130 4.9606, 4.6761 2.8130 5.1378, 4.8130 2.6761 4.9606, 4.8130 2.6761 5.1378, 5.0000 2.6260 4.9606, 5.0000 2.6260 5.1378, 5.1870 2.6761 4.9606, 5.1870 2.6761 5.1378, 5.3239 2.8130 4.9606, 5.3239 2.8130 5.1378 ] } coordIndex [ 0, 2, 3, 1, -1, 2, 4, 5, 3, -1, 4, 6, 7, 5, -1, 6, 8, 9, 7, -1, 8, 10, 11, 9, -1, 10, 12, 13, 11, -1, 12, 14, 15, 13, -1, 14, 16, 17, 15, -1, 16, 18, 19, 17, -1, 18, 20, 21, 19, -1, 20, 22, 23, 21, -1, 22, 0, 1, 23, -1, 22, 20, 18, 16, 14, 12, 10, 8, 6, 4, 2, 0, -1, 1, 3, 5, 7, 9, 11, 13, 15, 17, 19, 21, 23, -1 ] } },
Shape { appearance Appearance { material Material { diffuseColor 0.830 0.680 0.280 specularColor 0.70 0.70 0.70 shininess 0.30 } } geometry IndexedFaceSet { solid FALSE coord Coordinate { point [ 4.8740 2.8740 4.9606, 5.1260 2.8740 4.9606, 5.1260 3.1260 4.9606, 4.8740 3.1260 4.9606, 4.8740 2.8740 5.8268, 5.1260 2.8740 5.8268, 5.1260 3.1260 5.8268, 4.8740 3.1260 5.8268 ] } coordIndex [ 0, 3, 2, 1, -1, 4, 5, 6, 7, -1, 0, 1, 5, 4, -1, 1, 2, 6, 5, -1, 2, 3, 7, 6, -1, 3, 0, 4, 7, -1 ] } },
Shape { appearance Appearance { material Material { diffuseColor 0.720 0.720 0.700 specularColor 0.80 0.80 0.80 shininess 0.30 } } geometry IndexedFaceSet { solid FALSE coord Coordinate { point [ 5.3740 2.0000 4.9606, 5.3740 2.0000 5.1378, 5.3239 2.1870 4.9606, 5.3239 2.1870 5.1378, 5.1870 2.3239 4.9606, 5.1870 2.3239 5.1378, 5.0000 2.3740 4.9606, 5.0000 2.3740 5.1378, 4.8130 2.3239 4.9606, 4.8130 2.3239 5.1378, 4.6761 2.1870 4.9606, 4.6761 2.1870 5.1378, 4.6260 2.0000 4.9606, 4.6260 2.0000 5.1378, 4.6761 1.8130 4.9606, 4.6761 1.8130 5.1378, 4.8130 1.6761 4.9606, 4.8130 1.6761 5.1378, 5.0000 1.6260 4.9606, 5.0000 1.6260 5.1378, 5.1870 1.6761 4.9606, 5.1870 1.6761 5.1378, 5.3239 1.8130 4.9606, 5.3239 1.8130 5.1378 ] } coordIndex [ 0, 2, 3, 1, -1, 2, 4, 5, 3, -1, 4, 6, 7, 5, -1, 6, 8, 9, 7, -1, 8, 10, 11, 9, -1, 10, 12, 13, 11, -1, 12, 14, 15, 13, -1, 14, 16, 17, 15, -1, 16, 18, 19, 17, -1, 18, 20, 21, 19, -1, 20, 22, 23, 21, -1, 22, 0, 1, 23, -1, 22, 20, 18, 16, 14, 12, 10, 8, 6, 4, 2, 0, -1, 1, 3, 5, 7, 9, 11, 13, 15, 17, 19, 21, 23, -1 ] } },
Shape { appearance Appearance { material Material { diffuseColor 0.830 0.680 0.280 specularColor 0.70 0.70 0.70 shininess 0.30 } } geometry IndexedFaceSet { solid FALSE coord Coordinate { point [ 4.8740 1.8740 4.9606, 5.1260 1.8740 4.9606, 5.1260 2.1260 4.9606, 4.8740 2.1260 4.9606, 4.8740 1.8740 5.8268, 5.1260 1.8740 5.8268, 5.1260 2.1260 5.8268, 4.8740 2.1260 5.8268 ] } coordIndex [ 0, 3, 2, 1, -1, 4, 5, 6, 7, -1, 0, 1, 5, 4, -1, 1, 2, 6, 5, -1, 2, 3, 7, 6, -1, 3, 0, 4, 7, -1 ] } },
Shape { appearance Appearance { material Material { diffuseColor 0.720 0.720 0.700 specularColor 0.80 0.80 0.80 shininess 0.30 } } geometry IndexedFaceSet { solid FALSE coord Coordinate { point [ 5.3740 1.0000 4.9606, 5.3740 1.0000 5.1378, 5.3239 1.1870 4.9606, 5.3239 1.1870 5.1378, 5.1870 1.3239 4.9606, 5.1870 1.3239 5.1378, 5.0000 1.3740 4.9606, 5.0000 1.3740 5.1378, 4.8130 1.3239 4.9606, 4.8130 1.3239 5.1378, 4.6761 1.1870 4.9606, 4.6761 1.1870 5.1378, 4.6260 1.0000 4.9606, 4.6260 1.0000 5.1378, 4.6761 0.8130 4.9606, 4.6761 0.8130 5.1378, 4.8130 0.6761 4.9606, 4.8130 0.6761 5.1378, 5.0000 0.6260 4.9606, 5.0000 0.6260 5.1378, 5.1870 0.6761 4.9606, 5.1870 0.6761 5.1378, 5.3239 0.8130 4.9606, 5.3239 0.8130 5.1378 ] } coordIndex [ 0, 2, 3, 1, -1, 2, 4, 5, 3, -1, 4, 6, 7, 5, -1, 6, 8, 9, 7, -1, 8, 10, 11, 9, -1, 10, 12, 13, 11, -1, 12, 14, 15, 13, -1, 14, 16, 17, 15, -1, 16, 18, 19, 17, -1, 18, 20, 21, 19, -1, 20, 22, 23, 21, -1, 22, 0, 1, 23, -1, 22, 20, 18, 16, 14, 12, 10, 8, 6, 4, 2, 0, -1, 1, 3, 5, 7, 9, 11, 13, 15, 17, 19, 21, 23, -1 ] } },
Shape { appearance Appearance { material Material { diffuseColor 0.830 0.680 0.280 specularColor 0.70 0.70 0.70 shininess 0.30 } } geometry IndexedFaceSet { solid FALSE coord Coordinate { point [ 4.8740 0.8740 4.9606, 5.1260 0.8740 4.9606, 5.1260 1.1260 4.9606, 4.8740 1.1260 4.9606, 4.8740 0.8740 5.8268, 5.1260 0.8740 5.8268, 5.1260 1.1260 5.8268, 4.8740 1.1260 5.8268 ] } coordIndex [ 0, 3, 2, 1, -1, 4, 5, 6, 7, -1, 0, 1, 5, 4, -1, 1, 2, 6, 5, -1, 2, 3, 7, 6, -1, 3, 0, 4, 7, -1 ] } },
Shape { appearance Appearance { material Material { diffuseColor 0.720 0.720 0.700 specularColor 0.80 0.80 0.80 shininess 0.30 } } geometry IndexedFaceSet { solid FALSE coord Coordinate { point [ 5.3740 0.0000 4.9606, 5.3740 0.0000 5.1378, 5.3239 0.1870 4.9606, 5.3239 0.1870 5.1378, 5.1870 0.3239 4.9606, 5.1870 0.3239 5.1378, 5.0000 0.3740 4.9606, 5.0000 0.3740 5.1378, 4.8130 0.3239 4.9606, 4.8130 0.3239 5.1378, 4.6761 0.1870 4.9606, 4.6761 0.1870 5.1378, 4.6260 0.0000 4.9606, 4.6260 0.0000 5.1378, 4.6761 -0.1870 4.9606, 4.6761 -0.1870 5.1378, 4.8130 -0.3239 4.9606, 4.8130 -0.3239 5.1378, 5.0000 -0.3740 4.9606, 5.0000 -0.3740 5.1378, 5.1870 -0.3239 4.9606, 5.1870 -0.3239 5.1378, 5.3239 -0.1870 4.9606, 5.3239 -0.1870 5.1378 ] } coordIndex [ 0, 2, 3, 1, -1, 2, 4, 5, 3, -1, 4, 6, 7, 5, -1, 6, 8, 9, 7, -1, 8, 10, 11, 9, -1, 10, 12, 13, 11, -1, 12, 14, 15, 13, -1, 14, 16, 17, 15, -1, 16, 18, 19, 17, -1, 18, 20, 21, 19, -1, 20, 22, 23, 21, -1, 22, 0, 1, 23, -1, 22, 20, 18, 16, 14, 12, 10, 8, 6, 4, 2, 0, -1, 1, 3, 5, 7, 9, 11, 13, 15, 17, 19, 21, 23, -1 ] } },
Shape { appearance Appearance { material Material { diffuseColor 0.830 0.680 0.280 specularColor 0.70 0.70 0.70 shininess 0.30 } } geometry IndexedFaceSet { solid FALSE coord Coordinate { point [ 4.8740 -0.1260 4.9606, 5.1260 -0.1260 4.9606, 5.1260 0.1260 4.9606, 4.8740 0.1260 4.9606, 4.8740 -0.1260 5.8268, 5.1260 -0.1260 5.8268, 5.1260 0.1260 5.8268, 4.8740 0.1260 5.8268 ] } coordIndex [ 0, 3, 2, 1, -1, 4, 5, 6, 7, -1, 0, 1, 5, 4, -1, 1, 2, 6, 5, -1, 2, 3, 7, 6, -1, 3, 0, 4, 7, -1 ] } },
Shape { appearance Appearance { material Material { diffuseColor 0.720 0.720 0.700 specularColor 0.80 0.80 0.80 shininess 0.30 } } geometry IndexedFaceSet { solid FALSE coord Coordinate { point [ 5.3740 -1.0000 4.9606, 5.3740 -1.0000 5.1378, 5.3239 -0.8130 4.9606, 5.3239 -0.8130 5.1378, 5.1870 -0.6761 4.9606, 5.1870 -0.6761 5.1378, 5.0000 -0.6260 4.9606, 5.0000 -0.6260 5.1378, 4.8130 -0.6761 4.9606, 4.8130 -0.6761 5.1378, 4.6761 -0.8130 4.9606, 4.6761 -0.8130 5.1378, 4.6260 -1.0000 4.9606, 4.6260 -1.0000 5.1378, 4.6761 -1.1870 4.9606, 4.6761 -1.1870 5.1378, 4.8130 -1.3239 4.9606, 4.8130 -1.3239 5.1378, 5.0000 -1.3740 4.9606, 5.0000 -1.3740 5.1378, 5.1870 -1.3239 4.9606, 5.1870 -1.3239 5.1378, 5.3239 -1.1870 4.9606, 5.3239 -1.1870 5.1378 ] } coordIndex [ 0, 2, 3, 1, -1, 2, 4, 5, 3, -1, 4, 6, 7, 5, -1, 6, 8, 9, 7, -1, 8, 10, 11, 9, -1, 10, 12, 13, 11, -1, 12, 14, 15, 13, -1, 14, 16, 17, 15, -1, 16, 18, 19, 17, -1, 18, 20, 21, 19, -1, 20, 22, 23, 21, -1, 22, 0, 1, 23, -1, 22, 20, 18, 16, 14, 12, 10, 8, 6, 4, 2, 0, -1, 1, 3, 5, 7, 9, 11, 13, 15, 17, 19, 21, 23, -1 ] } },
Shape { appearance Appearance { material Material { diffuseColor 0.830 0.680 0.280 specularColor 0.70 0.70 0.70 shininess 0.30 } } geometry IndexedFaceSet { solid FALSE coord Coordinate { point [ 4.8740 -1.1260 4.9606, 5.1260 -1.1260 4.9606, 5.1260 -0.8740 4.9606, 4.8740 -0.8740 4.9606, 4.8740 -1.1260 5.8268, 5.1260 -1.1260 5.8268, 5.1260 -0.8740 5.8268, 4.8740 -0.8740 5.8268 ] } coordIndex [ 0, 3, 2, 1, -1, 4, 5, 6, 7, -1, 0, 1, 5, 4, -1, 1, 2, 6, 5, -1, 2, 3, 7, 6, -1, 3, 0, 4, 7, -1 ] } },
Shape { appearance Appearance { material Material { diffuseColor 0.720 0.720 0.700 specularColor 0.80 0.80 0.80 shininess 0.30 } } geometry IndexedFaceSet { solid FALSE coord Coordinate { point [ 5.3740 -2.0000 4.9606, 5.3740 -2.0000 5.1378, 5.3239 -1.8130 4.9606, 5.3239 -1.8130 5.1378, 5.1870 -1.6761 4.9606, 5.1870 -1.6761 5.1378, 5.0000 -1.6260 4.9606, 5.0000 -1.6260 5.1378, 4.8130 -1.6761 4.9606, 4.8130 -1.6761 5.1378, 4.6761 -1.8130 4.9606, 4.6761 -1.8130 5.1378, 4.6260 -2.0000 4.9606, 4.6260 -2.0000 5.1378, 4.6761 -2.1870 4.9606, 4.6761 -2.1870 5.1378, 4.8130 -2.3239 4.9606, 4.8130 -2.3239 5.1378, 5.0000 -2.3740 4.9606, 5.0000 -2.3740 5.1378, 5.1870 -2.3239 4.9606, 5.1870 -2.3239 5.1378, 5.3239 -2.1870 4.9606, 5.3239 -2.1870 5.1378 ] } coordIndex [ 0, 2, 3, 1, -1, 2, 4, 5, 3, -1, 4, 6, 7, 5, -1, 6, 8, 9, 7, -1, 8, 10, 11, 9, -1, 10, 12, 13, 11, -1, 12, 14, 15, 13, -1, 14, 16, 17, 15, -1, 16, 18, 19, 17, -1, 18, 20, 21, 19, -1, 20, 22, 23, 21, -1, 22, 0, 1, 23, -1, 22, 20, 18, 16, 14, 12, 10, 8, 6, 4, 2, 0, -1, 1, 3, 5, 7, 9, 11, 13, 15, 17, 19, 21, 23, -1 ] } },
Shape { appearance Appearance { material Material { diffuseColor 0.830 0.680 0.280 specularColor 0.70 0.70 0.70 shininess 0.30 } } geometry IndexedFaceSet { solid FALSE coord Coordinate { point [ 4.8740 -2.1260 4.9606, 5.1260 -2.1260 4.9606, 5.1260 -1.8740 4.9606, 4.8740 -1.8740 4.9606, 4.8740 -2.1260 5.8268, 5.1260 -2.1260 5.8268, 5.1260 -1.8740 5.8268, 4.8740 -1.8740 5.8268 ] } coordIndex [ 0, 3, 2, 1, -1, 4, 5, 6, 7, -1, 0, 1, 5, 4, -1, 1, 2, 6, 5, -1, 2, 3, 7, 6, -1, 3, 0, 4, 7, -1 ] } },
Shape { appearance Appearance { material Material { diffuseColor 0.720 0.720 0.700 specularColor 0.80 0.80 0.80 shininess 0.30 } } geometry IndexedFaceSet { solid FALSE coord Coordinate { point [ 5.3740 -3.0000 4.9606, 5.3740 -3.0000 5.1378, 5.3239 -2.8130 4.9606, 5.3239 -2.8130 5.1378, 5.1870 -2.6761 4.9606, 5.1870 -2.6761 5.1378, 5.0000 -2.6260 4.9606, 5.0000 -2.6260 5.1378, 4.8130 -2.6761 4.9606, 4.8130 -2.6761 5.1378, 4.6761 -2.8130 4.9606, 4.6761 -2.8130 5.1378, 4.6260 -3.0000 4.9606, 4.6260 -3.0000 5.1378, 4.6761 -3.1870 4.9606, 4.6761 -3.1870 5.1378, 4.8130 -3.3239 4.9606, 4.8130 -3.3239 5.1378, 5.0000 -3.3740 4.9606, 5.0000 -3.3740 5.1378, 5.1870 -3.3239 4.9606, 5.1870 -3.3239 5.1378, 5.3239 -3.1870 4.9606, 5.3239 -3.1870 5.1378 ] } coordIndex [ 0, 2, 3, 1, -1, 2, 4, 5, 3, -1, 4, 6, 7, 5, -1, 6, 8, 9, 7, -1, 8, 10, 11, 9, -1, 10, 12, 13, 11, -1, 12, 14, 15, 13, -1, 14, 16, 17, 15, -1, 16, 18, 19, 17, -1, 18, 20, 21, 19, -1, 20, 22, 23, 21, -1, 22, 0, 1, 23, -1, 22, 20, 18, 16, 14, 12, 10, 8, 6, 4, 2, 0, -1, 1, 3, 5, 7, 9, 11, 13, 15, 17, 19, 21, 23, -1 ] } },
Shape { appearance Appearance { material Material { diffuseColor 0.830 0.680 0.280 specularColor 0.70 0.70 0.70 shininess 0.30 } } geometry IndexedFaceSet { solid FALSE coord Coordinate { point [ 4.8740 -3.1260 4.9606, 5.1260 -3.1260 4.9606, 5.1260 -2.8740 4.9606, 4.8740 -2.8740 4.9606, 4.8740 -3.1260 5.8268, 5.1260 -3.1260 5.8268, 5.1260 -2.8740 5.8268, 4.8740 -2.8740 5.8268 ] } coordIndex [ 0, 3, 2, 1, -1, 4, 5, 6, 7, -1, 0, 1, 5, 4, -1, 1, 2, 6, 5, -1, 2, 3, 7, 6, -1, 3, 0, 4, 7, -1 ] } },
Shape { appearance Appearance { material Material { diffuseColor 0.720 0.720 0.700 specularColor 0.80 0.80 0.80 shininess 0.30 } } geometry IndexedFaceSet { solid FALSE coord Coordinate { point [ 5.3740 -4.0000 4.9606, 5.3740 -4.0000 5.1378, 5.3239 -3.8130 4.9606, 5.3239 -3.8130 5.1378, 5.1870 -3.6761 4.9606, 5.1870 -3.6761 5.1378, 5.0000 -3.6260 4.9606, 5.0000 -3.6260 5.1378, 4.8130 -3.6761 4.9606, 4.8130 -3.6761 5.1378, 4.6761 -3.8130 4.9606, 4.6761 -3.8130 5.1378, 4.6260 -4.0000 4.9606, 4.6260 -4.0000 5.1378, 4.6761 -4.1870 4.9606, 4.6761 -4.1870 5.1378, 4.8130 -4.3239 4.9606, 4.8130 -4.3239 5.1378, 5.0000 -4.3740 4.9606, 5.0000 -4.3740 5.1378, 5.1870 -4.3239 4.9606, 5.1870 -4.3239 5.1378, 5.3239 -4.1870 4.9606, 5.3239 -4.1870 5.1378 ] } coordIndex [ 0, 2, 3, 1, -1, 2, 4, 5, 3, -1, 4, 6, 7, 5, -1, 6, 8, 9, 7, -1, 8, 10, 11, 9, -1, 10, 12, 13, 11, -1, 12, 14, 15, 13, -1, 14, 16, 17, 15, -1, 16, 18, 19, 17, -1, 18, 20, 21, 19, -1, 20, 22, 23, 21, -1, 22, 0, 1, 23, -1, 22, 20, 18, 16, 14, 12, 10, 8, 6, 4, 2, 0, -1, 1, 3, 5, 7, 9, 11, 13, 15, 17, 19, 21, 23, -1 ] } },
Shape { appearance Appearance { material Material { diffuseColor 0.830 0.680 0.280 specularColor 0.70 0.70 0.70 shininess 0.30 } } geometry IndexedFaceSet { solid FALSE coord Coordinate { point [ 4.8740 -4.1260 4.9606, 5.1260 -4.1260 4.9606, 5.1260 -3.8740 4.9606, 4.8740 -3.8740 4.9606, 4.8740 -4.1260 5.8268, 5.1260 -4.1260 5.8268, 5.1260 -3.8740 5.8268, 4.8740 -3.8740 5.8268 ] } coordIndex [ 0, 3, 2, 1, -1, 4, 5, 6, 7, -1, 0, 1, 5, 4, -1, 1, 2, 6, 5, -1, 2, 3, 7, 6, -1, 3, 0, 4, 7, -1 ] } },
Shape { appearance Appearance { material Material { diffuseColor 0.720 0.720 0.700 specularColor 0.80 0.80 0.80 shininess 0.30 } } geometry IndexedFaceSet { solid FALSE coord Coordinate { point [ 5.3740 -5.0000 4.9606, 5.3740 -5.0000 5.1378, 5.3239 -4.8130 4.9606, 5.3239 -4.8130 5.1378, 5.1870 -4.6761 4.9606, 5.1870 -4.6761 5.1378, 5.0000 -4.6260 4.9606, 5.0000 -4.6260 5.1378, 4.8130 -4.6761 4.9606, 4.8130 -4.6761 5.1378, 4.6761 -4.8130 4.9606, 4.6761 -4.8130 5.1378, 4.6260 -5.0000 4.9606, 4.6260 -5.0000 5.1378, 4.6761 -5.1870 4.9606, 4.6761 -5.1870 5.1378, 4.8130 -5.3239 4.9606, 4.8130 -5.3239 5.1378, 5.0000 -5.3740 4.9606, 5.0000 -5.3740 5.1378, 5.1870 -5.3239 4.9606, 5.1870 -5.3239 5.1378, 5.3239 -5.1870 4.9606, 5.3239 -5.1870 5.1378 ] } coordIndex [ 0, 2, 3, 1, -1, 2, 4, 5, 3, -1, 4, 6, 7, 5, -1, 6, 8, 9, 7, -1, 8, 10, 11, 9, -1, 10, 12, 13, 11, -1, 12, 14, 15, 13, -1, 14, 16, 17, 15, -1, 16, 18, 19, 17, -1, 18, 20, 21, 19, -1, 20, 22, 23, 21, -1, 22, 0, 1, 23, -1, 22, 20, 18, 16, 14, 12, 10, 8, 6, 4, 2, 0, -1, 1, 3, 5, 7, 9, 11, 13, 15, 17, 19, 21, 23, -1 ] } },
Shape { appearance Appearance { material Material { diffuseColor 0.830 0.680 0.280 specularColor 0.70 0.70 0.70 shininess 0.30 } } geometry IndexedFaceSet { solid FALSE coord Coordinate { point [ 4.8740 -5.1260 4.9606, 5.1260 -5.1260 4.9606, 5.1260 -4.8740 4.9606, 4.8740 -4.8740 4.9606, 4.8740 -5.1260 5.8268, 5.1260 -5.1260 5.8268, 5.1260 -4.8740 5.8268, 4.8740 -4.8740 5.8268 ] } coordIndex [ 0, 3, 2, 1, -1, 4, 5, 6, 7, -1, 0, 1, 5, 4, -1, 1, 2, 6, 5, -1, 2, 3, 7, 6, -1, 3, 0, 4, 7, -1 ] } },
Shape { appearance Appearance { material Material { diffuseColor 0.720 0.720 0.700 specularColor 0.80 0.80 0.80 shininess 0.30 } } geometry IndexedFaceSet { solid FALSE coord Coordinate { point [ 5.3740 -6.0000 4.9606, 5.3740 -6.0000 5.1378, 5.3239 -5.8130 4.9606, 5.3239 -5.8130 5.1378, 5.1870 -5.6761 4.9606, 5.1870 -5.6761 5.1378, 5.0000 -5.6260 4.9606, 5.0000 -5.6260 5.1378, 4.8130 -5.6761 4.9606, 4.8130 -5.6761 5.1378, 4.6761 -5.8130 4.9606, 4.6761 -5.8130 5.1378, 4.6260 -6.0000 4.9606, 4.6260 -6.0000 5.1378, 4.6761 -6.1870 4.9606, 4.6761 -6.1870 5.1378, 4.8130 -6.3239 4.9606, 4.8130 -6.3239 5.1378, 5.0000 -6.3740 4.9606, 5.0000 -6.3740 5.1378, 5.1870 -6.3239 4.9606, 5.1870 -6.3239 5.1378, 5.3239 -6.1870 4.9606, 5.3239 -6.1870 5.1378 ] } coordIndex [ 0, 2, 3, 1, -1, 2, 4, 5, 3, -1, 4, 6, 7, 5, -1, 6, 8, 9, 7, -1, 8, 10, 11, 9, -1, 10, 12, 13, 11, -1, 12, 14, 15, 13, -1, 14, 16, 17, 15, -1, 16, 18, 19, 17, -1, 18, 20, 21, 19, -1, 20, 22, 23, 21, -1, 22, 0, 1, 23, -1, 22, 20, 18, 16, 14, 12, 10, 8, 6, 4, 2, 0, -1, 1, 3, 5, 7, 9, 11, 13, 15, 17, 19, 21, 23, -1 ] } },
Shape { appearance Appearance { material Material { diffuseColor 0.830 0.680 0.280 specularColor 0.70 0.70 0.70 shininess 0.30 } } geometry IndexedFaceSet { solid FALSE coord Coordinate { point [ 4.8740 -6.1260 4.9606, 5.1260 -6.1260 4.9606, 5.1260 -5.8740 4.9606, 4.8740 -5.8740 4.9606, 4.8740 -6.1260 5.8268, 5.1260 -6.1260 5.8268, 5.1260 -5.8740 5.8268, 4.8740 -5.8740 5.8268 ] } coordIndex [ 0, 3, 2, 1, -1, 4, 5, 6, 7, -1, 0, 1, 5, 4, -1, 1, 2, 6, 5, -1, 2, 3, 7, 6, -1, 3, 0, 4, 7, -1 ] } },
Shape { appearance Appearance { material Material { diffuseColor 0.720 0.720 0.700 specularColor 0.80 0.80 0.80 shininess 0.30 } } geometry IndexedFaceSet { solid FALSE coord Coordinate { point [ 5.3740 -7.0000 4.9606, 5.3740 -7.0000 5.1378, 5.3239 -6.8130 4.9606, 5.3239 -6.8130 5.1378, 5.1870 -6.6761 4.9606, 5.1870 -6.6761 5.1378, 5.0000 -6.6260 4.9606, 5.0000 -6.6260 5.1378, 4.8130 -6.6761 4.9606, 4.8130 -6.6761 5.1378, 4.6761 -6.8130 4.9606, 4.6761 -6.8130 5.1378, 4.6260 -7.0000 4.9606, 4.6260 -7.0000 5.1378, 4.6761 -7.1870 4.9606, 4.6761 -7.1870 5.1378, 4.8130 -7.3239 4.9606, 4.8130 -7.3239 5.1378, 5.0000 -7.3740 4.9606, 5.0000 -7.3740 5.1378, 5.1870 -7.3239 4.9606, 5.1870 -7.3239 5.1378, 5.3239 -7.1870 4.9606, 5.3239 -7.1870 5.1378 ] } coordIndex [ 0, 2, 3, 1, -1, 2, 4, 5, 3, -1, 4, 6, 7, 5, -1, 6, 8, 9, 7, -1, 8, 10, 11, 9, -1, 10, 12, 13, 11, -1, 12, 14, 15, 13, -1, 14, 16, 17, 15, -1, 16, 18, 19, 17, -1, 18, 20, 21, 19, -1, 20, 22, 23, 21, -1, 22, 0, 1, 23, -1, 22, 20, 18, 16, 14, 12, 10, 8, 6, 4, 2, 0, -1, 1, 3, 5, 7, 9, 11, 13, 15, 17, 19, 21, 23, -1 ] } },
Shape { appearance Appearance { material Material { diffuseColor 0.830 0.680 0.280 specularColor 0.70 0.70 0.70 shininess 0.30 } } geometry IndexedFaceSet { solid FALSE coord Coordinate { point [ 4.8740 -7.1260 4.9606, 5.1260 -7.1260 4.9606, 5.1260 -6.8740 4.9606, 4.8740 -6.8740 4.9606, 4.8740 -7.1260 5.8268, 5.1260 -7.1260 5.8268, 5.1260 -6.8740 5.8268, 4.8740 -6.8740 5.8268 ] } coordIndex [ 0, 3, 2, 1, -1, 4, 5, 6, 7, -1, 0, 1, 5, 4, -1, 1, 2, 6, 5, -1, 2, 3, 7, 6, -1, 3, 0, 4, 7, -1 ] } },
Shape { appearance Appearance { material Material { diffuseColor 0.720 0.720 0.700 specularColor 0.80 0.80 0.80 shininess 0.30 } } geometry IndexedFaceSet { solid FALSE coord Coordinate { point [ 5.3740 -8.0000 4.9606, 5.3740 -8.0000 5.1378, 5.3239 -7.8130 4.9606, 5.3239 -7.8130 5.1378, 5.1870 -7.6761 4.9606, 5.1870 -7.6761 5.1378, 5.0000 -7.6260 4.9606, 5.0000 -7.6260 5.1378, 4.8130 -7.6761 4.9606, 4.8130 -7.6761 5.1378, 4.6761 -7.8130 4.9606, 4.6761 -7.8130 5.1378, 4.6260 -8.0000 4.9606, 4.6260 -8.0000 5.1378, 4.6761 -8.1870 4.9606, 4.6761 -8.1870 5.1378, 4.8130 -8.3239 4.9606, 4.8130 -8.3239 5.1378, 5.0000 -8.3740 4.9606, 5.0000 -8.3740 5.1378, 5.1870 -8.3239 4.9606, 5.1870 -8.3239 5.1378, 5.3239 -8.1870 4.9606, 5.3239 -8.1870 5.1378 ] } coordIndex [ 0, 2, 3, 1, -1, 2, 4, 5, 3, -1, 4, 6, 7, 5, -1, 6, 8, 9, 7, -1, 8, 10, 11, 9, -1, 10, 12, 13, 11, -1, 12, 14, 15, 13, -1, 14, 16, 17, 15, -1, 16, 18, 19, 17, -1, 18, 20, 21, 19, -1, 20, 22, 23, 21, -1, 22, 0, 1, 23, -1, 22, 20, 18, 16, 14, 12, 10, 8, 6, 4, 2, 0, -1, 1, 3, 5, 7, 9, 11, 13, 15, 17, 19, 21, 23, -1 ] } },
Shape { appearance Appearance { material Material { diffuseColor 0.830 0.680 0.280 specularColor 0.70 0.70 0.70 shininess 0.30 } } geometry IndexedFaceSet { solid FALSE coord Coordinate { point [ 4.8740 -8.1260 4.9606, 5.1260 -8.1260 4.9606, 5.1260 -7.8740 4.9606, 4.8740 -7.8740 4.9606, 4.8740 -8.1260 5.8268, 5.1260 -8.1260 5.8268, 5.1260 -7.8740 5.8268, 4.8740 -7.8740 5.8268 ] } coordIndex [ 0, 3, 2, 1, -1, 4, 5, 6, 7, -1, 0, 1, 5, 4, -1, 1, 2, 6, 5, -1, 2, 3, 7, 6, -1, 3, 0, 4, 7, -1 ] } },
Shape { appearance Appearance { material Material { diffuseColor 0.720 0.720 0.700 specularColor 0.80 0.80 0.80 shininess 0.30 } } geometry IndexedFaceSet { solid FALSE coord Coordinate { point [ 5.3740 -9.0000 4.9606, 5.3740 -9.0000 5.1378, 5.3239 -8.8130 4.9606, 5.3239 -8.8130 5.1378, 5.1870 -8.6761 4.9606, 5.1870 -8.6761 5.1378, 5.0000 -8.6260 4.9606, 5.0000 -8.6260 5.1378, 4.8130 -8.6761 4.9606, 4.8130 -8.6761 5.1378, 4.6761 -8.8130 4.9606, 4.6761 -8.8130 5.1378, 4.6260 -9.0000 4.9606, 4.6260 -9.0000 5.1378, 4.6761 -9.1870 4.9606, 4.6761 -9.1870 5.1378, 4.8130 -9.3239 4.9606, 4.8130 -9.3239 5.1378, 5.0000 -9.3740 4.9606, 5.0000 -9.3740 5.1378, 5.1870 -9.3239 4.9606, 5.1870 -9.3239 5.1378, 5.3239 -9.1870 4.9606, 5.3239 -9.1870 5.1378 ] } coordIndex [ 0, 2, 3, 1, -1, 2, 4, 5, 3, -1, 4, 6, 7, 5, -1, 6, 8, 9, 7, -1, 8, 10, 11, 9, -1, 10, 12, 13, 11, -1, 12, 14, 15, 13, -1, 14, 16, 17, 15, -1, 16, 18, 19, 17, -1, 18, 20, 21, 19, -1, 20, 22, 23, 21, -1, 22, 0, 1, 23, -1, 22, 20, 18, 16, 14, 12, 10, 8, 6, 4, 2, 0, -1, 1, 3, 5, 7, 9, 11, 13, 15, 17, 19, 21, 23, -1 ] } },
Shape { appearance Appearance { material Material { diffuseColor 0.830 0.680 0.280 specularColor 0.70 0.70 0.70 shininess 0.30 } } geometry IndexedFaceSet { solid FALSE coord Coordinate { point [ 4.8740 -9.1260 4.9606, 5.1260 -9.1260 4.9606, 5.1260 -8.8740 4.9606, 4.8740 -8.8740 4.9606, 4.8740 -9.1260 5.8268, 5.1260 -9.1260 5.8268, 5.1260 -8.8740 5.8268, 4.8740 -8.8740 5.8268 ] } coordIndex [ 0, 3, 2, 1, -1, 4, 5, 6, 7, -1, 0, 1, 5, 4, -1, 1, 2, 6, 5, -1, 2, 3, 7, 6, -1, 3, 0, 4, 7, -1 ] } },
Shape { appearance Appearance { material Material { diffuseColor 0.060 0.060 0.070 specularColor 0.10 0.10 0.10 shininess 0.30 } } geometry IndexedFaceSet { solid FALSE coord Coordinate { point [ -3.5433 1.9685 4.9606, 3.5433 1.9685 4.9606, 3.5433 9.5276 4.9606, -3.5433 9.5276 4.9606, -3.5433 1.9685 5.2756, 3.5433 1.9685 5.2756, 3.5433 9.5276 5.2756, -3.5433 9.5276 5.2756 ] } coordIndex [ 0, 3, 2, 1, -1, 4, 5, 6, 7, -1, 0, 1, 5, 4, -1, 1, 2, 6, 5, -1, 2, 3, 7, 6, -1, 3, 0, 4, 7, -1 ] } },
Shape { appearance Appearance { material Material { diffuseColor 0.600 0.610 0.640 specularColor 0.90 0.90 0.90 shininess 0.30 } } geometry IndexedFaceSet { solid FALSE coord Coordinate { point [ -3.2677 2.0079 5.2756, 3.2677 2.0079 5.2756, 3.2677 8.9370 5.2756, -3.2677 8.9370 5.2756, -3.2677 2.0079 6.2205, 3.2677 2.0079 6.2205, 3.2677 8.9370 6.2205, -3.2677 8.9370 6.2205 ] } coordIndex [ 0, 3, 2, 1, -1, 4, 5, 6, 7, -1, 0, 1, 5, 4, -1, 1, 2, 6, 5, -1, 2, 3, 7, 6, -1, 3, 0, 4, 7, -1 ] } },
Shape { appearance Appearance { material Material { diffuseColor 0.350 0.360 0.380 specularColor 0.20 0.20 0.20 shininess 0.30 } } geometry IndexedFaceSet { solid FALSE coord Coordinate { point [ -2.3622 4.2913 6.2205, 2.3622 4.2913 6.2205, 2.3622 6.6535 6.2205, -2.3622 6.6535 6.2205, -2.3622 4.2913 6.2283, 2.3622 4.2913 6.2283, 2.3622 6.6535 6.2283, -2.3622 6.6535 6.2283 ] } coordIndex [ 0, 3, 2, 1, -1, 4, 5, 6, 7, -1, 0, 1, 5, 4, -1, 1, 2, 6, 5, -1, 2, 3, 7, 6, -1, 3, 0, 4, 7, -1 ] } },
Shape { appearance Appearance { material Material { diffuseColor 0.830 0.680 0.280 specularColor 0.90 0.90 0.90 shininess 0.30 } } geometry IndexedFaceSet { solid FALSE coord Coordinate { point [ 2.8740 8.7402 5.2756, 2.8740 8.7402 5.7087, 2.8440 8.8908 5.2756, 2.8440 8.8908 5.7087, 2.7587 9.0185 5.2756, 2.7587 9.0185 5.7087, 2.6310 9.1039 5.2756, 2.6310 9.1039 5.7087, 2.4803 9.1339 5.2756, 2.4803 9.1339 5.7087, 2.3297 9.1039 5.2756, 2.3297 9.1039 5.7087, 2.2019 9.0185 5.2756, 2.2019 9.0185 5.7087, 2.1166 8.8908 5.2756, 2.1166 8.8908 5.7087, 2.0866 8.7402 5.2756, 2.0866 8.7402 5.7087, 2.1166 8.5895 5.2756, 2.1166 8.5895 5.7087, 2.2019 8.4618 5.2756, 2.2019 8.4618 5.7087, 2.3297 8.3764 5.2756, 2.3297 8.3764 5.7087, 2.4803 8.3465 5.2756, 2.4803 8.3465 5.7087, 2.6310 8.3764 5.2756, 2.6310 8.3764 5.7087, 2.7587 8.4618 5.2756, 2.7587 8.4618 5.7087, 2.8440 8.5895 5.2756, 2.8440 8.5895 5.7087 ] } coordIndex [ 0, 2, 3, 1, -1, 2, 4, 5, 3, -1, 4, 6, 7, 5, -1, 6, 8, 9, 7, -1, 8, 10, 11, 9, -1, 10, 12, 13, 11, -1, 12, 14, 15, 13, -1, 14, 16, 17, 15, -1, 16, 18, 19, 17, -1, 18, 20, 21, 19, -1, 20, 22, 23, 21, -1, 22, 24, 25, 23, -1, 24, 26, 27, 25, -1, 26, 28, 29, 27, -1, 28, 30, 31, 29, -1, 30, 0, 1, 31, -1, 30, 28, 26, 24, 22, 20, 18, 16, 14, 12, 10, 8, 6, 4, 2, 0, -1, 1, 3, 5, 7, 9, 11, 13, 15, 17, 19, 21, 23, 25, 27, 29, 31, -1 ] } },
Shape { appearance Appearance { material Material { diffuseColor 0.850 0.850 0.820 specularColor 0.20 0.20 0.20 shininess 0.30 } } geometry IndexedFaceSet { solid FALSE coord Coordinate { point [ 1.9685 8.2283 5.2756, 2.9921 8.2283 5.2756, 2.9921 9.2520 5.2756, 1.9685 9.2520 5.2756, 1.9685 8.2283 5.3937, 2.9921 8.2283 5.3937, 2.9921 9.2520 5.3937, 1.9685 9.2520 5.3937 ] } coordIndex [ 0, 3, 2, 1, -1, 4, 5, 6, 7, -1, 0, 1, 5, 4, -1, 1, 2, 6, 5, -1, 2, 3, 7, 6, -1, 3, 0, 4, 7, -1 ] } },
Shape { appearance Appearance { material Material { diffuseColor 0.600 0.610 0.640 specularColor 0.90 0.90 0.90 shininess 0.30 } } geometry IndexedFaceSet { solid FALSE coord Coordinate { point [ -1.7520 -10.5709 4.9606, 1.7520 -10.5709 4.9606, 1.7520 -7.6969 4.9606, -1.7520 -7.6969 4.9606, -1.7520 -10.5709 6.2205, 1.7520 -10.5709 6.2205, 1.7520 -7.6969 6.2205, -1.7520 -7.6969 6.2205 ] } coordIndex [ 0, 3, 2, 1, -1, 4, 5, 6, 7, -1, 0, 1, 5, 4, -1, 1, 2, 6, 5, -1, 2, 3, 7, 6, -1, 3, 0, 4, 7, -1 ] } },
Shape { appearance Appearance { material Material { diffuseColor 0.080 0.080 0.080 specularColor 0.25 0.25 0.25 shininess 0.30 } } geometry IndexedFaceSet { solid FALSE coord Coordinate { point [ -1.3780 -10.5315 5.1969, 1.3780 -10.5315 5.1969, 1.3780 -10.4134 5.1969, -1.3780 -10.4134 5.1969, -1.3780 -10.5315 5.9843, 1.3780 -10.5315 5.9843, 1.3780 -10.4134 5.9843, -1.3780 -10.4134 5.9843 ] } coordIndex [ 0, 3, 2, 1, -1, 4, 5, 6, 7, -1, 0, 1, 5, 4, -1, 1, 2, 6, 5, -1, 2, 3, 7, 6, -1, 3, 0, 4, 7, -1 ] } },
Shape { appearance Appearance { material Material { diffuseColor 0.050 0.050 0.050 specularColor 0.15 0.15 0.15 shininess 0.30 } } geometry IndexedFaceSet { solid FALSE coord Coordinate { point [ -0.9843 -5.9055 5.0000, 0.9843 -5.9055 5.0000, 0.9843 -3.9370 5.0000, -0.9843 -3.9370 5.0000, -0.9843 -5.9055 5.5906, 0.9843 -5.9055 5.5906, 0.9843 -3.9370 5.5906, -0.9843 -3.9370 5.5906 ] } coordIndex [ 0, 3, 2, 1, -1, 4, 5, 6, 7, -1, 0, 1, 5, 4, -1, 1, 2, 6, 5, -1, 2, 3, 7, 6, -1, 3, 0, 4, 7, -1 ] } },
Shape { appearance Appearance { material Material { diffuseColor 0.600 0.610 0.640 specularColor 0.60 0.60 0.60 shininess 0.30 } } geometry IndexedFaceSet { solid FALSE coord Coordinate { point [ -0.7874 -6.2992 4.9606, -0.6299 -6.2992 4.9606, -0.6299 -5.9055 4.9606, -0.7874 -5.9055 4.9606, -0.7874 -6.2992 5.1575, -0.6299 -6.2992 5.1575, -0.6299 -5.9055 5.1575, -0.7874 -5.9055 5.1575 ] } coordIndex [ 0, 3, 2, 1, -1, 4, 5, 6, 7, -1, 0, 1, 5, 4, -1, 1, 2, 6, 5, -1, 2, 3, 7, 6, -1, 3, 0, 4, 7, -1 ] } },
Shape { appearance Appearance { material Material { diffuseColor 0.600 0.610 0.640 specularColor 0.60 0.60 0.60 shininess 0.30 } } geometry IndexedFaceSet { solid FALSE coord Coordinate { point [ -0.7874 -3.9370 4.9606, -0.6299 -3.9370 4.9606, -0.6299 -3.5433 4.9606, -0.7874 -3.5433 4.9606, -0.7874 -3.9370 5.1575, -0.6299 -3.9370 5.1575, -0.6299 -3.5433 5.1575, -0.7874 -3.5433 5.1575 ] } coordIndex [ 0, 3, 2, 1, -1, 4, 5, 6, 7, -1, 0, 1, 5, 4, -1, 1, 2, 6, 5, -1, 2, 3, 7, 6, -1, 3, 0, 4, 7, -1 ] } },
Shape { appearance Appearance { material Material { diffuseColor 0.600 0.610 0.640 specularColor 0.60 0.60 0.60 shininess 0.30 } } geometry IndexedFaceSet { solid FALSE coord Coordinate { point [ -0.3150 -6.2992 4.9606, -0.1575 -6.2992 4.9606, -0.1575 -5.9055 4.9606, -0.3150 -5.9055 4.9606, -0.3150 -6.2992 5.1575, -0.1575 -6.2992 5.1575, -0.1575 -5.9055 5.1575, -0.3150 -5.9055 5.1575 ] } coordIndex [ 0, 3, 2, 1, -1, 4, 5, 6, 7, -1, 0, 1, 5, 4, -1, 1, 2, 6, 5, -1, 2, 3, 7, 6, -1, 3, 0, 4, 7, -1 ] } },
Shape { appearance Appearance { material Material { diffuseColor 0.600 0.610 0.640 specularColor 0.60 0.60 0.60 shininess 0.30 } } geometry IndexedFaceSet { solid FALSE coord Coordinate { point [ -0.3150 -3.9370 4.9606, -0.1575 -3.9370 4.9606, -0.1575 -3.5433 4.9606, -0.3150 -3.5433 4.9606, -0.3150 -3.9370 5.1575, -0.1575 -3.9370 5.1575, -0.1575 -3.5433 5.1575, -0.3150 -3.5433 5.1575 ] } coordIndex [ 0, 3, 2, 1, -1, 4, 5, 6, 7, -1, 0, 1, 5, 4, -1, 1, 2, 6, 5, -1, 2, 3, 7, 6, -1, 3, 0, 4, 7, -1 ] } },
Shape { appearance Appearance { material Material { diffuseColor 0.600 0.610 0.640 specularColor 0.60 0.60 0.60 shininess 0.30 } } geometry IndexedFaceSet { solid FALSE coord Coordinate { point [ 0.1575 -6.2992 4.9606, 0.3150 -6.2992 4.9606, 0.3150 -5.9055 4.9606, 0.1575 -5.9055 4.9606, 0.1575 -6.2992 5.1575, 0.3150 -6.2992 5.1575, 0.3150 -5.9055 5.1575, 0.1575 -5.9055 5.1575 ] } coordIndex [ 0, 3, 2, 1, -1, 4, 5, 6, 7, -1, 0, 1, 5, 4, -1, 1, 2, 6, 5, -1, 2, 3, 7, 6, -1, 3, 0, 4, 7, -1 ] } },
Shape { appearance Appearance { material Material { diffuseColor 0.600 0.610 0.640 specularColor 0.60 0.60 0.60 shininess 0.30 } } geometry IndexedFaceSet { solid FALSE coord Coordinate { point [ 0.1575 -3.9370 4.9606, 0.3150 -3.9370 4.9606, 0.3150 -3.5433 4.9606, 0.1575 -3.5433 4.9606, 0.1575 -3.9370 5.1575, 0.3150 -3.9370 5.1575, 0.3150 -3.5433 5.1575, 0.1575 -3.5433 5.1575 ] } coordIndex [ 0, 3, 2, 1, -1, 4, 5, 6, 7, -1, 0, 1, 5, 4, -1, 1, 2, 6, 5, -1, 2, 3, 7, 6, -1, 3, 0, 4, 7, -1 ] } },
Shape { appearance Appearance { material Material { diffuseColor 0.600 0.610 0.640 specularColor 0.60 0.60 0.60 shininess 0.30 } } geometry IndexedFaceSet { solid FALSE coord Coordinate { point [ 0.6299 -6.2992 4.9606, 0.7874 -6.2992 4.9606, 0.7874 -5.9055 4.9606, 0.6299 -5.9055 4.9606, 0.6299 -6.2992 5.1575, 0.7874 -6.2992 5.1575, 0.7874 -5.9055 5.1575, 0.6299 -5.9055 5.1575 ] } coordIndex [ 0, 3, 2, 1, -1, 4, 5, 6, 7, -1, 0, 1, 5, 4, -1, 1, 2, 6, 5, -1, 2, 3, 7, 6, -1, 3, 0, 4, 7, -1 ] } },
Shape { appearance Appearance { material Material { diffuseColor 0.600 0.610 0.640 specularColor 0.60 0.60 0.60 shininess 0.30 } } geometry IndexedFaceSet { solid FALSE coord Coordinate { point [ 0.6299 -3.9370 4.9606, 0.7874 -3.9370 4.9606, 0.7874 -3.5433 4.9606, 0.6299 -3.5433 4.9606, 0.6299 -3.9370 5.1575, 0.7874 -3.9370 5.1575, 0.7874 -3.5433 5.1575, 0.6299 -3.5433 5.1575 ] } coordIndex [ 0, 3, 2, 1, -1, 4, 5, 6, 7, -1, 0, 1, 5, 4, -1, 1, 2, 6, 5, -1, 2, 3, 7, 6, -1, 3, 0, 4, 7, -1 ] } },
Shape { appearance Appearance { material Material { diffuseColor 0.250 0.250 0.250 specularColor 0.50 0.50 0.50 shininess 0.30 } } geometry IndexedFaceSet { solid FALSE coord Coordinate { point [ -0.4528 -4.9213 5.5906, -0.4528 -4.9213 5.5984, -0.4791 -4.8403 5.5906, -0.4791 -4.8403 5.5984, -0.5480 -4.7902 5.5906, -0.5480 -4.7902 5.5984, -0.6331 -4.7902 5.5906, -0.6331 -4.7902 5.5984, -0.7020 -4.8403 5.5906, -0.7020 -4.8403 5.5984, -0.7283 -4.9213 5.5906, -0.7283 -4.9213 5.5984, -0.7020 -5.0023 5.5906, -0.7020 -5.0023 5.5984, -0.6331 -5.0523 5.5906, -0.6331 -5.0523 5.5984, -0.5480 -5.0523 5.5906, -0.5480 -5.0523 5.5984, -0.4791 -5.0023 5.5906, -0.4791 -5.0023 5.5984 ] } coordIndex [ 0, 2, 3, 1, -1, 2, 4, 5, 3, -1, 4, 6, 7, 5, -1, 6, 8, 9, 7, -1, 8, 10, 11, 9, -1, 10, 12, 13, 11, -1, 12, 14, 15, 13, -1, 14, 16, 17, 15, -1, 16, 18, 19, 17, -1, 18, 0, 1, 19, -1, 18, 16, 14, 12, 10, 8, 6, 4, 2, 0, -1, 1, 3, 5, 7, 9, 11, 13, 15, 17, 19, -1 ] } },
Shape { appearance Appearance { material Material { diffuseColor 0.050 0.050 0.050 specularColor 0.15 0.15 0.15 shininess 0.30 } } geometry IndexedFaceSet { solid FALSE coord Coordinate { point [ -4.2323 -6.2008 4.9606, -1.6732 -6.2008 4.9606, -1.6732 -4.8228 4.9606, -4.2323 -4.8228 4.9606, -4.2323 -6.2008 5.5906, -1.6732 -6.2008 5.5906, -1.6732 -4.8228 5.5906, -4.2323 -4.8228 5.5906 ] } coordIndex [ 0, 3, 2, 1, -1, 4, 5, 6, 7, -1, 0, 1, 5, 4, -1, 1, 2, 6, 5, -1, 2, 3, 7, 6, -1, 3, 0, 4, 7, -1 ] } },
Shape { appearance Appearance { material Material { diffuseColor 0.600 0.610 0.640 specularColor 0.60 0.60 0.60 shininess 0.30 } } geometry IndexedFaceSet { solid FALSE coord Coordinate { point [ -3.5433 -4.8031 4.9606, -2.3622 -4.8031 4.9606, -2.3622 -4.3307 4.9606, -3.5433 -4.3307 4.9606, -3.5433 -4.8031 5.5118, -2.3622 -4.8031 5.5118, -2.3622 -4.3307 5.5118, -3.5433 -4.3307 5.5118 ] } coordIndex [ 0, 3, 2, 1, -1, 4, 5, 6, 7, -1, 0, 1, 5, 4, -1, 1, 2, 6, 5, -1, 2, 3, 7, 6, -1, 3, 0, 4, 7, -1 ] } },
Shape { appearance Appearance { material Material { diffuseColor 0.600 0.610 0.640 specularColor 0.80 0.80 0.80 shininess 0.30 } } geometry IndexedFaceSet { solid FALSE coord Coordinate { point [ -4.6850 -9.0945 4.9606, -3.0315 -9.0945 4.9606, -3.0315 -7.8346 4.9606, -4.6850 -7.8346 4.9606, -4.6850 -9.0945 5.5512, -3.0315 -9.0945 5.5512, -3.0315 -7.8346 5.5512, -4.6850 -7.8346 5.5512 ] } coordIndex [ 0, 3, 2, 1, -1, 4, 5, 6, 7, -1, 0, 1, 5, 4, -1, 1, 2, 6, 5, -1, 2, 3, 7, 6, -1, 3, 0, 4, 7, -1 ] } },
Shape { appearance Appearance { material Material { diffuseColor 0.080 0.080 0.080 specularColor 0.50 0.50 0.50 shininess 0.30 } } geometry IndexedFaceSet { solid FALSE coord Coordinate { point [ -3.5039 -8.4646 5.5512, -3.5039 -8.4646 5.8268, -3.5309 -8.3290 5.5512, -3.5309 -8.3290 5.8268, -3.6077 -8.2140 5.5512, -3.6077 -8.2140 5.8268, -3.7227 -8.1372 5.5512, -3.7227 -8.1372 5.8268, -3.8583 -8.1102 5.5512, -3.8583 -8.1102 5.8268, -3.9939 -8.1372 5.5512, -3.9939 -8.1372 5.8268, -4.1088 -8.2140 5.5512, -4.1088 -8.2140 5.8268, -4.1856 -8.3290 5.5512, -4.1856 -8.3290 5.8268, -4.2126 -8.4646 5.5512, -4.2126 -8.4646 5.8268, -4.1856 -8.6002 5.5512, -4.1856 -8.6002 5.8268, -4.1088 -8.7151 5.5512, -4.1088 -8.7151 5.8268, -3.9939 -8.7919 5.5512, -3.9939 -8.7919 5.8268, -3.8583 -8.8189 5.5512, -3.8583 -8.8189 5.8268, -3.7227 -8.7919 5.5512, -3.7227 -8.7919 5.8268, -3.6077 -8.7151 5.5512, -3.6077 -8.7151 5.8268, -3.5309 -8.6002 5.5512, -3.5309 -8.6002 5.8268 ] } coordIndex [ 0, 2, 3, 1, -1, 2, 4, 5, 3, -1, 4, 6, 7, 5, -1, 6, 8, 9, 7, -1, 8, 10, 11, 9, -1, 10, 12, 13, 11, -1, 12, 14, 15, 13, -1, 14, 16, 17, 15, -1, 16, 18, 19, 17, -1, 18, 20, 21, 19, -1, 20, 22, 23, 21, -1, 22, 24, 25, 23, -1, 24, 26, 27, 25, -1, 26, 28, 29, 27, -1, 28, 30, 31, 29, -1, 30, 0, 1, 31, -1, 30, 28, 26, 24, 22, 20, 18, 16, 14, 12, 10, 8, 6, 4, 2, 0, -1, 1, 3, 5, 7, 9, 11, 13, 15, 17, 19, 21, 23, 25, 27, 29, 31, -1 ] } },
Shape { appearance Appearance { material Material { diffuseColor 0.600 0.610 0.640 specularColor 0.80 0.80 0.80 shininess 0.30 } } geometry IndexedFaceSet { solid FALSE coord Coordinate { point [ 3.0315 -9.0945 4.9606, 4.6850 -9.0945 4.9606, 4.6850 -7.8346 4.9606, 3.0315 -7.8346 4.9606, 3.0315 -9.0945 5.5512, 4.6850 -9.0945 5.5512, 4.6850 -7.8346 5.5512, 3.0315 -7.8346 5.5512 ] } coordIndex [ 0, 3, 2, 1, -1, 4, 5, 6, 7, -1, 0, 1, 5, 4, -1, 1, 2, 6, 5, -1, 2, 3, 7, 6, -1, 3, 0, 4, 7, -1 ] } },
Shape { appearance Appearance { material Material { diffuseColor 0.080 0.080 0.080 specularColor 0.50 0.50 0.50 shininess 0.30 } } geometry IndexedFaceSet { solid FALSE coord Coordinate { point [ 4.2126 -8.4646 5.5512, 4.2126 -8.4646 5.8268, 4.1856 -8.3290 5.5512, 4.1856 -8.3290 5.8268, 4.1088 -8.2140 5.5512, 4.1088 -8.2140 5.8268, 3.9939 -8.1372 5.5512, 3.9939 -8.1372 5.8268, 3.8583 -8.1102 5.5512, 3.8583 -8.1102 5.8268, 3.7227 -8.1372 5.5512, 3.7227 -8.1372 5.8268, 3.6077 -8.2140 5.5512, 3.6077 -8.2140 5.8268, 3.5309 -8.3290 5.5512, 3.5309 -8.3290 5.8268, 3.5039 -8.4646 5.5512, 3.5039 -8.4646 5.8268, 3.5309 -8.6002 5.5512, 3.5309 -8.6002 5.8268, 3.6077 -8.7151 5.5512, 3.6077 -8.7151 5.8268, 3.7227 -8.7919 5.5512, 3.7227 -8.7919 5.8268, 3.8583 -8.8189 5.5512, 3.8583 -8.8189 5.8268, 3.9939 -8.7919 5.5512, 3.9939 -8.7919 5.8268, 4.1088 -8.7151 5.5512, 4.1088 -8.7151 5.8268, 4.1856 -8.6002 5.5512, 4.1856 -8.6002 5.8268 ] } coordIndex [ 0, 2, 3, 1, -1, 2, 4, 5, 3, -1, 4, 6, 7, 5, -1, 6, 8, 9, 7, -1, 8, 10, 11, 9, -1, 10, 12, 13, 11, -1, 12, 14, 15, 13, -1, 14, 16, 17, 15, -1, 16, 18, 19, 17, -1, 18, 20, 21, 19, -1, 20, 22, 23, 21, -1, 22, 24, 25, 23, -1, 24, 26, 27, 25, -1, 26, 28, 29, 27, -1, 28, 30, 31, 29, -1, 30, 0, 1, 31, -1, 30, 28, 26, 24, 22, 20, 18, 16, 14, 12, 10, 8, 6, 4, 2, 0, -1, 1, 3, 5, 7, 9, 11, 13, 15, 17, 19, 21, 23, 25, 27, 29, 31, -1 ] } },
Shape { appearance Appearance { material Material { diffuseColor 0.850 0.850 0.820 specularColor 0.20 0.20 0.20 shininess 0.30 } } geometry IndexedFaceSet { solid FALSE coord Coordinate { point [ -2.0866 -7.4409 4.9606, -1.4567 -7.4409 4.9606, -1.4567 -7.1260 4.9606, -2.0866 -7.1260 4.9606, -2.0866 -7.4409 5.0984, -1.4567 -7.4409 5.0984, -1.4567 -7.1260 5.0984, -2.0866 -7.1260 5.0984 ] } coordIndex [ 0, 3, 2, 1, -1, 4, 5, 6, 7, -1, 0, 1, 5, 4, -1, 1, 2, 6, 5, -1, 2, 3, 7, 6, -1, 3, 0, 4, 7, -1 ] } },
Shape { appearance Appearance { material Material { diffuseColor 0.850 0.080 0.050 specularColor 0.60 0.60 0.60 shininess 0.30 } } geometry IndexedFaceSet { solid FALSE coord Coordinate { point [ -1.9685 -7.4213 5.0984, -1.5748 -7.4213 5.0984, -1.5748 -7.1457 5.0984, -1.9685 -7.1457 5.0984, -1.9685 -7.4213 5.1969, -1.5748 -7.4213 5.1969, -1.5748 -7.1457 5.1969, -1.9685 -7.1457 5.1969 ] } coordIndex [ 0, 3, 2, 1, -1, 4, 5, 6, 7, -1, 0, 1, 5, 4, -1, 1, 2, 6, 5, -1, 2, 3, 7, 6, -1, 3, 0, 4, 7, -1 ] } },
Shape { appearance Appearance { material Material { diffuseColor 0.850 0.850 0.820 specularColor 0.20 0.20 0.20 shininess 0.30 } } geometry IndexedFaceSet { solid FALSE coord Coordinate { point [ 1.6535 -3.3071 4.9606, 2.2835 -3.3071 4.9606, 2.2835 -2.9921 4.9606, 1.6535 -2.9921 4.9606, 1.6535 -3.3071 5.0984, 2.2835 -3.3071 5.0984, 2.2835 -2.9921 5.0984, 1.6535 -2.9921 5.0984 ] } coordIndex [ 0, 3, 2, 1, -1, 4, 5, 6, 7, -1, 0, 1, 5, 4, -1, 1, 2, 6, 5, -1, 2, 3, 7, 6, -1, 3, 0, 4, 7, -1 ] } },
Shape { appearance Appearance { material Material { diffuseColor 0.100 0.300 0.950 specularColor 0.60 0.60 0.60 shininess 0.30 } } geometry IndexedFaceSet { solid FALSE coord Coordinate { point [ 1.7717 -3.2874 5.0984, 2.1654 -3.2874 5.0984, 2.1654 -3.0118 5.0984, 1.7717 -3.0118 5.0984, 1.7717 -3.2874 5.1969, 2.1654 -3.2874 5.1969, 2.1654 -3.0118 5.1969, 1.7717 -3.0118 5.1969 ] } coordIndex [ 0, 3, 2, 1, -1, 4, 5, 6, 7, -1, 0, 1, 5, 4, -1, 1, 2, 6, 5, -1, 2, 3, 7, 6, -1, 3, 0, 4, 7, -1 ] } },
Shape { appearance Appearance { material Material { diffuseColor 0.050 0.050 0.050 specularColor 0.20 0.20 0.20 shininess 0.30 } } geometry IndexedFaceSet { solid FALSE coord Coordinate { point [ -2.5512 -2.5197 4.9606, -2.1732 -2.5197 4.9606, -2.1732 -2.2047 4.9606, -2.5512 -2.2047 4.9606, -2.5512 -2.5197 5.1575, -2.1732 -2.5197 5.1575, -2.1732 -2.2047 5.1575, -2.5512 -2.2047 5.1575 ] } coordIndex [ 0, 3, 2, 1, -1, 4, 5, 6, 7, -1, 0, 1, 5, 4, -1, 1, 2, 6, 5, -1, 2, 3, 7, 6, -1, 3, 0, 4, 7, -1 ] } },
Shape { appearance Appearance { material Material { diffuseColor 0.600 0.610 0.640 specularColor 0.60 0.60 0.60 shininess 0.30 } } geometry IndexedFaceSet { solid FALSE coord Coordinate { point [ -2.6772 -2.5197 4.9606, -2.5512 -2.5197 4.9606, -2.5512 -2.2047 4.9606, -2.6772 -2.2047 4.9606, -2.6772 -2.5197 5.1575, -2.5512 -2.5197 5.1575, -2.5512 -2.2047 5.1575, -2.6772 -2.2047 5.1575 ] } coordIndex [ 0, 3, 2, 1, -1, 4, 5, 6, 7, -1, 0, 1, 5, 4, -1, 1, 2, 6, 5, -1, 2, 3, 7, 6, -1, 3, 0, 4, 7, -1 ] } },
Shape { appearance Appearance { material Material { diffuseColor 0.600 0.610 0.640 specularColor 0.60 0.60 0.60 shininess 0.30 } } geometry IndexedFaceSet { solid FALSE coord Coordinate { point [ -2.1732 -2.5197 4.9606, -2.0472 -2.5197 4.9606, -2.0472 -2.2047 4.9606, -2.1732 -2.2047 4.9606, -2.1732 -2.5197 5.1575, -2.0472 -2.5197 5.1575, -2.0472 -2.2047 5.1575, -2.1732 -2.2047 5.1575 ] } coordIndex [ 0, 3, 2, 1, -1, 4, 5, 6, 7, -1, 0, 1, 5, 4, -1, 1, 2, 6, 5, -1, 2, 3, 7, 6, -1, 3, 0, 4, 7, -1 ] } },
Shape { appearance Appearance { material Material { diffuseColor 0.050 0.050 0.050 specularColor 0.20 0.20 0.20 shininess 0.30 } } geometry IndexedFaceSet { solid FALSE coord Coordinate { point [ -1.3701 -2.5197 4.9606, -0.9921 -2.5197 4.9606, -0.9921 -2.2047 4.9606, -1.3701 -2.2047 4.9606, -1.3701 -2.5197 5.1575, -0.9921 -2.5197 5.1575, -0.9921 -2.2047 5.1575, -1.3701 -2.2047 5.1575 ] } coordIndex [ 0, 3, 2, 1, -1, 4, 5, 6, 7, -1, 0, 1, 5, 4, -1, 1, 2, 6, 5, -1, 2, 3, 7, 6, -1, 3, 0, 4, 7, -1 ] } },
Shape { appearance Appearance { material Material { diffuseColor 0.600 0.610 0.640 specularColor 0.60 0.60 0.60 shininess 0.30 } } geometry IndexedFaceSet { solid FALSE coord Coordinate { point [ -1.4961 -2.5197 4.9606, -1.3701 -2.5197 4.9606, -1.3701 -2.2047 4.9606, -1.4961 -2.2047 4.9606, -1.4961 -2.5197 5.1575, -1.3701 -2.5197 5.1575, -1.3701 -2.2047 5.1575, -1.4961 -2.2047 5.1575 ] } coordIndex [ 0, 3, 2, 1, -1, 4, 5, 6, 7, -1, 0, 1, 5, 4, -1, 1, 2, 6, 5, -1, 2, 3, 7, 6, -1, 3, 0, 4, 7, -1 ] } },
Shape { appearance Appearance { material Material { diffuseColor 0.600 0.610 0.640 specularColor 0.60 0.60 0.60 shininess 0.30 } } geometry IndexedFaceSet { solid FALSE coord Coordinate { point [ -0.9921 -2.5197 4.9606, -0.8661 -2.5197 4.9606, -0.8661 -2.2047 4.9606, -0.9921 -2.2047 4.9606, -0.9921 -2.5197 5.1575, -0.8661 -2.5197 5.1575, -0.8661 -2.2047 5.1575, -0.9921 -2.2047 5.1575 ] } coordIndex [ 0, 3, 2, 1, -1, 4, 5, 6, 7, -1, 0, 1, 5, 4, -1, 1, 2, 6, 5, -1, 2, 3, 7, 6, -1, 3, 0, 4, 7, -1 ] } },
Shape { appearance Appearance { material Material { diffuseColor 0.550 0.400 0.250 specularColor 0.20 0.20 0.20 shininess 0.30 } } geometry IndexedFaceSet { solid FALSE coord Coordinate { point [ 0.9921 -2.1260 4.9606, 1.3701 -2.1260 4.9606, 1.3701 -1.8110 4.9606, 0.9921 -1.8110 4.9606, 0.9921 -2.1260 5.1575, 1.3701 -2.1260 5.1575, 1.3701 -1.8110 5.1575, 0.9921 -1.8110 5.1575 ] } coordIndex [ 0, 3, 2, 1, -1, 4, 5, 6, 7, -1, 0, 1, 5, 4, -1, 1, 2, 6, 5, -1, 2, 3, 7, 6, -1, 3, 0, 4, 7, -1 ] } },
Shape { appearance Appearance { material Material { diffuseColor 0.600 0.610 0.640 specularColor 0.60 0.60 0.60 shininess 0.30 } } geometry IndexedFaceSet { solid FALSE coord Coordinate { point [ 0.8661 -2.1260 4.9606, 0.9921 -2.1260 4.9606, 0.9921 -1.8110 4.9606, 0.8661 -1.8110 4.9606, 0.8661 -2.1260 5.1575, 0.9921 -2.1260 5.1575, 0.9921 -1.8110 5.1575, 0.8661 -1.8110 5.1575 ] } coordIndex [ 0, 3, 2, 1, -1, 4, 5, 6, 7, -1, 0, 1, 5, 4, -1, 1, 2, 6, 5, -1, 2, 3, 7, 6, -1, 3, 0, 4, 7, -1 ] } },
Shape { appearance Appearance { material Material { diffuseColor 0.600 0.610 0.640 specularColor 0.60 0.60 0.60 shininess 0.30 } } geometry IndexedFaceSet { solid FALSE coord Coordinate { point [ 1.3701 -2.1260 4.9606, 1.4961 -2.1260 4.9606, 1.4961 -1.8110 4.9606, 1.3701 -1.8110 4.9606, 1.3701 -2.1260 5.1575, 1.4961 -2.1260 5.1575, 1.4961 -1.8110 5.1575, 1.3701 -1.8110 5.1575 ] } coordIndex [ 0, 3, 2, 1, -1, 4, 5, 6, 7, -1, 0, 1, 5, 4, -1, 1, 2, 6, 5, -1, 2, 3, 7, 6, -1, 3, 0, 4, 7, -1 ] } },
Shape { appearance Appearance { material Material { diffuseColor 0.550 0.400 0.250 specularColor 0.20 0.20 0.20 shininess 0.30 } } geometry IndexedFaceSet { solid FALSE coord Coordinate { point [ 2.1732 -2.1260 4.9606, 2.5512 -2.1260 4.9606, 2.5512 -1.8110 4.9606, 2.1732 -1.8110 4.9606, 2.1732 -2.1260 5.1575, 2.5512 -2.1260 5.1575, 2.5512 -1.8110 5.1575, 2.1732 -1.8110 5.1575 ] } coordIndex [ 0, 3, 2, 1, -1, 4, 5, 6, 7, -1, 0, 1, 5, 4, -1, 1, 2, 6, 5, -1, 2, 3, 7, 6, -1, 3, 0, 4, 7, -1 ] } },
Shape { appearance Appearance { material Material { diffuseColor 0.600 0.610 0.640 specularColor 0.60 0.60 0.60 shininess 0.30 } } geometry IndexedFaceSet { solid FALSE coord Coordinate { point [ 2.0472 -2.1260 4.9606, 2.1732 -2.1260 4.9606, 2.1732 -1.8110 4.9606, 2.0472 -1.8110 4.9606, 2.0472 -2.1260 5.1575, 2.1732 -2.1260 5.1575, 2.1732 -1.8110 5.1575, 2.0472 -1.8110 5.1575 ] } coordIndex [ 0, 3, 2, 1, -1, 4, 5, 6, 7, -1, 0, 1, 5, 4, -1, 1, 2, 6, 5, -1, 2, 3, 7, 6, -1, 3, 0, 4, 7, -1 ] } },
Shape { appearance Appearance { material Material { diffuseColor 0.600 0.610 0.640 specularColor 0.60 0.60 0.60 shininess 0.30 } } geometry IndexedFaceSet { solid FALSE coord Coordinate { point [ 2.5512 -2.1260 4.9606, 2.6772 -2.1260 4.9606, 2.6772 -1.8110 4.9606, 2.5512 -1.8110 4.9606, 2.5512 -2.1260 5.1575, 2.6772 -2.1260 5.1575, 2.6772 -1.8110 5.1575, 2.5512 -1.8110 5.1575 ] } coordIndex [ 0, 3, 2, 1, -1, 4, 5, 6, 7, -1, 0, 1, 5, 4, -1, 1, 2, 6, 5, -1, 2, 3, 7, 6, -1, 3, 0, 4, 7, -1 ] } },
Shape { appearance Appearance { material Material { diffuseColor 0.050 0.050 0.050 specularColor 0.20 0.20 0.20 shininess 0.30 } } geometry IndexedFaceSet { solid FALSE coord Coordinate { point [ -3.3386 -0.9449 4.9606, -2.9606 -0.9449 4.9606, -2.9606 -0.6299 4.9606, -3.3386 -0.6299 4.9606, -3.3386 -0.9449 5.1575, -2.9606 -0.9449 5.1575, -2.9606 -0.6299 5.1575, -3.3386 -0.6299 5.1575 ] } coordIndex [ 0, 3, 2, 1, -1, 4, 5, 6, 7, -1, 0, 1, 5, 4, -1, 1, 2, 6, 5, -1, 2, 3, 7, 6, -1, 3, 0, 4, 7, -1 ] } },
Shape { appearance Appearance { material Material { diffuseColor 0.600 0.610 0.640 specularColor 0.60 0.60 0.60 shininess 0.30 } } geometry IndexedFaceSet { solid FALSE coord Coordinate { point [ -3.4646 -0.9449 4.9606, -3.3386 -0.9449 4.9606, -3.3386 -0.6299 4.9606, -3.4646 -0.6299 4.9606, -3.4646 -0.9449 5.1575, -3.3386 -0.9449 5.1575, -3.3386 -0.6299 5.1575, -3.4646 -0.6299 5.1575 ] } coordIndex [ 0, 3, 2, 1, -1, 4, 5, 6, 7, -1, 0, 1, 5, 4, -1, 1, 2, 6, 5, -1, 2, 3, 7, 6, -1, 3, 0, 4, 7, -1 ] } },
Shape { appearance Appearance { material Material { diffuseColor 0.600 0.610 0.640 specularColor 0.60 0.60 0.60 shininess 0.30 } } geometry IndexedFaceSet { solid FALSE coord Coordinate { point [ -2.9606 -0.9449 4.9606, -2.8346 -0.9449 4.9606, -2.8346 -0.6299 4.9606, -2.9606 -0.6299 4.9606, -2.9606 -0.9449 5.1575, -2.8346 -0.9449 5.1575, -2.8346 -0.6299 5.1575, -2.9606 -0.6299 5.1575 ] } coordIndex [ 0, 3, 2, 1, -1, 4, 5, 6, 7, -1, 0, 1, 5, 4, -1, 1, 2, 6, 5, -1, 2, 3, 7, 6, -1, 3, 0, 4, 7, -1 ] } },
Shape { appearance Appearance { material Material { diffuseColor 0.050 0.050 0.050 specularColor 0.20 0.20 0.20 shininess 0.30 } } geometry IndexedFaceSet { solid FALSE coord Coordinate { point [ 2.9606 -0.9449 4.9606, 3.3386 -0.9449 4.9606, 3.3386 -0.6299 4.9606, 2.9606 -0.6299 4.9606, 2.9606 -0.9449 5.1575, 3.3386 -0.9449 5.1575, 3.3386 -0.6299 5.1575, 2.9606 -0.6299 5.1575 ] } coordIndex [ 0, 3, 2, 1, -1, 4, 5, 6, 7, -1, 0, 1, 5, 4, -1, 1, 2, 6, 5, -1, 2, 3, 7, 6, -1, 3, 0, 4, 7, -1 ] } },
Shape { appearance Appearance { material Material { diffuseColor 0.600 0.610 0.640 specularColor 0.60 0.60 0.60 shininess 0.30 } } geometry IndexedFaceSet { solid FALSE coord Coordinate { point [ 2.8346 -0.9449 4.9606, 2.9606 -0.9449 4.9606, 2.9606 -0.6299 4.9606, 2.8346 -0.6299 4.9606, 2.8346 -0.9449 5.1575, 2.9606 -0.9449 5.1575, 2.9606 -0.6299 5.1575, 2.8346 -0.6299 5.1575 ] } coordIndex [ 0, 3, 2, 1, -1, 4, 5, 6, 7, -1, 0, 1, 5, 4, -1, 1, 2, 6, 5, -1, 2, 3, 7, 6, -1, 3, 0, 4, 7, -1 ] } },
Shape { appearance Appearance { material Material { diffuseColor 0.600 0.610 0.640 specularColor 0.60 0.60 0.60 shininess 0.30 } } geometry IndexedFaceSet { solid FALSE coord Coordinate { point [ 3.3386 -0.9449 4.9606, 3.4646 -0.9449 4.9606, 3.4646 -0.6299 4.9606, 3.3386 -0.6299 4.9606, 3.3386 -0.9449 5.1575, 3.4646 -0.9449 5.1575, 3.4646 -0.6299 5.1575, 3.3386 -0.6299 5.1575 ] } coordIndex [ 0, 3, 2, 1, -1, 4, 5, 6, 7, -1, 0, 1, 5, 4, -1, 1, 2, 6, 5, -1, 2, 3, 7, 6, -1, 3, 0, 4, 7, -1 ] } },
Shape { appearance Appearance { material Material { diffuseColor 0.550 0.400 0.250 specularColor 0.20 0.20 0.20 shininess 0.30 } } geometry IndexedFaceSet { solid FALSE coord Coordinate { point [ -3.3386 0.6299 4.9606, -2.9606 0.6299 4.9606, -2.9606 0.9449 4.9606, -3.3386 0.9449 4.9606, -3.3386 0.6299 5.1575, -2.9606 0.6299 5.1575, -2.9606 0.9449 5.1575, -3.3386 0.9449 5.1575 ] } coordIndex [ 0, 3, 2, 1, -1, 4, 5, 6, 7, -1, 0, 1, 5, 4, -1, 1, 2, 6, 5, -1, 2, 3, 7, 6, -1, 3, 0, 4, 7, -1 ] } },
Shape { appearance Appearance { material Material { diffuseColor 0.600 0.610 0.640 specularColor 0.60 0.60 0.60 shininess 0.30 } } geometry IndexedFaceSet { solid FALSE coord Coordinate { point [ -3.4646 0.6299 4.9606, -3.3386 0.6299 4.9606, -3.3386 0.9449 4.9606, -3.4646 0.9449 4.9606, -3.4646 0.6299 5.1575, -3.3386 0.6299 5.1575, -3.3386 0.9449 5.1575, -3.4646 0.9449 5.1575 ] } coordIndex [ 0, 3, 2, 1, -1, 4, 5, 6, 7, -1, 0, 1, 5, 4, -1, 1, 2, 6, 5, -1, 2, 3, 7, 6, -1, 3, 0, 4, 7, -1 ] } },
Shape { appearance Appearance { material Material { diffuseColor 0.600 0.610 0.640 specularColor 0.60 0.60 0.60 shininess 0.30 } } geometry IndexedFaceSet { solid FALSE coord Coordinate { point [ -2.9606 0.6299 4.9606, -2.8346 0.6299 4.9606, -2.8346 0.9449 4.9606, -2.9606 0.9449 4.9606, -2.9606 0.6299 5.1575, -2.8346 0.6299 5.1575, -2.8346 0.9449 5.1575, -2.9606 0.9449 5.1575 ] } coordIndex [ 0, 3, 2, 1, -1, 4, 5, 6, 7, -1, 0, 1, 5, 4, -1, 1, 2, 6, 5, -1, 2, 3, 7, 6, -1, 3, 0, 4, 7, -1 ] } },
Shape { appearance Appearance { material Material { diffuseColor 0.050 0.050 0.050 specularColor 0.15 0.15 0.15 shininess 0.30 } } geometry IndexedFaceSet { solid FALSE coord Coordinate { point [ 1.0039 -7.0079 4.9606, 2.1457 -7.0079 4.9606, 2.1457 -6.3780 4.9606, 1.0039 -6.3780 4.9606, 1.0039 -7.0079 5.3937, 2.1457 -7.0079 5.3937, 2.1457 -6.3780 5.3937, 1.0039 -6.3780 5.3937 ] } coordIndex [ 0, 3, 2, 1, -1, 4, 5, 6, 7, -1, 0, 1, 5, 4, -1, 1, 2, 6, 5, -1, 2, 3, 7, 6, -1, 3, 0, 4, 7, -1 ] } },
Shape { appearance Appearance { material Material { diffuseColor 0.050 0.050 0.050 specularColor 0.15 0.15 0.15 shininess 0.30 } } geometry IndexedFaceSet { solid FALSE coord Coordinate { point [ -1.7520 -0.7087 4.9606, -0.6102 -0.7087 4.9606, -0.6102 -0.0787 4.9606, -1.7520 -0.0787 4.9606, -1.7520 -0.7087 5.3937, -0.6102 -0.7087 5.3937, -0.6102 -0.0787 5.3937, -1.7520 -0.0787 5.3937 ] } coordIndex [ 0, 3, 2, 1, -1, 4, 5, 6, 7, -1, 0, 1, 5, 4, -1, 1, 2, 6, 5, -1, 2, 3, 7, 6, -1, 3, 0, 4, 7, -1 ] } }
] }
