#VRML V2.0 utf8
Transform { children [
Shape { appearance Appearance { material Material { diffuseColor 0.080 0.080 0.080 specularColor 0.20 0.20 0.20 shininess 0.30 } } geometry IndexedFaceSet { solid FALSE coord Coordinate { point [ -1.4843 -0.4921 1.0236, 0.4843 -0.4921 1.0236, 0.4843 0.4921 1.0236, -1.4843 0.4921 1.0236, -1.4843 -0.4921 3.3858, 0.4843 -0.4921 3.3858, 0.4843 0.4921 3.3858, -1.4843 0.4921 3.3858 ] } coordIndex [ 0, 3, 2, 1, -1, 4, 5, 6, 7, -1, 0, 1, 5, 4, -1, 1, 2, 6, 5, -1, 2, 3, 7, 6, -1, 3, 0, 4, 7, -1 ] } },
Shape { appearance Appearance { material Material { diffuseColor 0.830 0.680 0.280 specularColor 0.25 0.25 0.25 shininess 0.30 } } geometry IndexedFaceSet { solid FALSE coord Coordinate { point [ -1.0906 -0.2362 3.3858, 0.0906 -0.2362 3.3858, 0.0906 0.2362 3.3858, -1.0906 0.2362 3.3858, -1.0906 -0.2362 3.3937, 0.0906 -0.2362 3.3937, 0.0906 0.2362 3.3937, -1.0906 0.2362 3.3937 ] } coordIndex [ 0, 3, 2, 1, -1, 4, 5, 6, 7, -1, 0, 1, 5, 4, -1, 1, 2, 6, 5, -1, 2, 3, 7, 6, -1, 3, 0, 4, 7, -1 ] } }
] }
