#VRML V2.0 utf8
Transform { children [
Shape { appearance Appearance { material Material { diffuseColor 0.040 0.220 0.620 specularColor 0.20 0.20 0.20 shininess 0.30 } } geometry IndexedFaceSet { solid FALSE coord Coordinate { point [ -12.0079 -2.7559 4.3307, 0.5906 -2.7559 4.3307, 0.5906 2.7559 4.3307, -12.0079 2.7559 4.3307, -12.0079 -2.7559 4.9606, 0.5906 -2.7559 4.9606, 0.5906 2.7559 4.9606, -12.0079 2.7559 4.9606 ] } coordIndex [ 0, 3, 2, 1, -1, 4, 5, 6, 7, -1, 0, 1, 5, 4, -1, 1, 2, 6, 5, -1, 2, 3, 7, 6, -1, 3, 0, 4, 7, -1 ] } },
Shape { appearance Appearance { material Material { diffuseColor 0.020 0.020 0.020 specularColor 0.50 0.50 0.50 shininess 0.30 } } geometry IndexedFaceSet { solid FALSE coord Coordinate { point [ -10.8268 1.7717 4.3307, -10.8268 1.7717 4.9646, -10.8717 1.9976 4.3307, -10.8717 1.9976 4.9646, -10.9997 2.1892 4.3307, -10.9997 2.1892 4.9646, -11.1913 2.3173 4.3307, -11.1913 2.3173 4.9646, -11.4173 2.3622 4.3307, -11.4173 2.3622 4.9646, -11.6433 2.3173 4.3307, -11.6433 2.3173 4.9646, -11.8349 2.1892 4.3307, -11.8349 2.1892 4.9646, -11.9629 1.9976 4.3307, -11.9629 1.9976 4.9646, -12.0079 1.7717 4.3307, -12.0079 1.7717 4.9646, -11.9629 1.5457 4.3307, -11.9629 1.5457 4.9646, -11.8349 1.3541 4.3307, -11.8349 1.3541 4.9646, -11.6433 1.2261 4.3307, -11.6433 1.2261 4.9646, -11.4173 1.1811 4.3307, -11.4173 1.1811 4.9646, -11.1913 1.2261 4.3307, -11.1913 1.2261 4.9646, -10.9997 1.3541 4.3307, -10.9997 1.3541 4.9646, -10.8717 1.5457 4.3307, -10.8717 1.5457 4.9646 ] } coordIndex [ 0, 2, 3, 1, -1, 2, 4, 5, 3, -1, 4, 6, 7, 5, -1, 6, 8, 9, 7, -1, 8, 10, 11, 9, -1, 10, 12, 13, 11, -1, 12, 14, 15, 13, -1, 14, 16, 17, 15, -1, 16, 18, 19, 17, -1, 18, 20, 21, 19, -1, 20, 22, 23, 21, -1, 22, 24, 25, 23, -1, 24, 26, 27, 25, -1, 26, 28, 29, 27, -1, 28, 30, 31, 29, -1, 30, 0, 1, 31, -1, 30, 28, 26, 24, 22, 20, 18, 16, 14, 12, 10, 8, 6, 4, 2, 0, -1, 1, 3, 5, 7, 9, 11, 13, 15, 17, 19, 21, 23, 25, 27, 29, 31, -1 ] } },
Shape { appearance Appearance { material Material { diffuseColor 0.080 0.080 0.080 specularColor 0.25 0.25 0.25 shininess 0.30 } } geometry IndexedFaceSet { solid FALSE coord Coordinate { point [ -0.4921 -1.4961 3.3465, 0.4921 -1.4961 3.3465, 0.4921 1.4961 3.3465, -0.4921 1.4961 3.3465, -0.4921 -1.4961 4.3307, 0.4921 -1.4961 4.3307, 0.4921 1.4961 4.3307, -0.4921 1.4961 4.3307 ] } coordIndex [ 0, 3, 2, 1, -1, 4, 5, 6, 7, -1, 0, 1, 5, 4, -1, 1, 2, 6, 5, -1, 2, 3, 7, 6, -1, 3, 0, 4, 7, -1 ] } },
Shape { appearance Appearance { material Material { diffuseColor 0.720 0.720 0.700 specularColor 0.80 0.80 0.80 shininess 0.30 } } geometry IndexedFaceSet { solid FALSE coord Coordinate { point [ 0.3740 1.0000 4.9606, 0.3740 1.0000 5.1378, 0.3239 1.1870 4.9606, 0.3239 1.1870 5.1378, 0.1870 1.3239 4.9606, 0.1870 1.3239 5.1378, 0.0000 1.3740 4.9606, 0.0000 1.3740 5.1378, -0.1870 1.3239 4.9606, -0.1870 1.3239 5.1378, -0.3239 1.1870 4.9606, -0.3239 1.1870 5.1378, -0.3740 1.0000 4.9606, -0.3740 1.0000 5.1378, -0.3239 0.8130 4.9606, -0.3239 0.8130 5.1378, -0.1870 0.6761 4.9606, -0.1870 0.6761 5.1378, -0.0000 0.6260 4.9606, -0.0000 0.6260 5.1378, 0.1870 0.6761 4.9606, 0.1870 0.6761 5.1378, 0.3239 0.8130 4.9606, 0.3239 0.8130 5.1378 ] } coordIndex [ 0, 2, 3, 1, -1, 2, 4, 5, 3, -1, 4, 6, 7, 5, -1, 6, 8, 9, 7, -1, 8, 10, 11, 9, -1, 10, 12, 13, 11, -1, 12, 14, 15, 13, -1, 14, 16, 17, 15, -1, 16, 18, 19, 17, -1, 18, 20, 21, 19, -1, 20, 22, 23, 21, -1, 22, 0, 1, 23, -1, 22, 20, 18, 16, 14, 12, 10, 8, 6, 4, 2, 0, -1, 1, 3, 5, 7, 9, 11, 13, 15, 17, 19, 21, 23, -1 ] } },
Shape { appearance Appearance { material Material { diffuseColor 0.830 0.680 0.280 specularColor 0.70 0.70 0.70 shininess 0.30 } } geometry IndexedFaceSet { solid FALSE coord Coordinate { point [ -0.1260 0.8740 4.9606, 0.1260 0.8740 4.9606, 0.1260 1.1260 4.9606, -0.1260 1.1260 4.9606, -0.1260 0.8740 5.8268, 0.1260 0.8740 5.8268, 0.1260 1.1260 5.8268, -0.1260 1.1260 5.8268 ] } coordIndex [ 0, 3, 2, 1, -1, 4, 5, 6, 7, -1, 0, 1, 5, 4, -1, 1, 2, 6, 5, -1, 2, 3, 7, 6, -1, 3, 0, 4, 7, -1 ] } },
Shape { appearance Appearance { material Material { diffuseColor 0.720 0.720 0.700 specularColor 0.80 0.80 0.80 shininess 0.30 } } geometry IndexedFaceSet { solid FALSE coord Coordinate { point [ 0.3740 0.0000 4.9606, 0.3740 0.0000 5.1378, 0.3239 0.1870 4.9606, 0.3239 0.1870 5.1378, 0.1870 0.3239 4.9606, 0.1870 0.3239 5.1378, 0.0000 0.3740 4.9606, 0.0000 0.3740 5.1378, -0.1870 0.3239 4.9606, -0.1870 0.3239 5.1378, -0.3239 0.1870 4.9606, -0.3239 0.1870 5.1378, -0.3740 0.0000 4.9606, -0.3740 0.0000 5.1378, -0.3239 -0.1870 4.9606, -0.3239 -0.1870 5.1378, -0.1870 -0.3239 4.9606, -0.1870 -0.3239 5.1378, -0.0000 -0.3740 4.9606, -0.0000 -0.3740 5.1378, 0.1870 -0.3239 4.9606, 0.1870 -0.3239 5.1378, 0.3239 -0.1870 4.9606, 0.3239 -0.1870 5.1378 ] } coordIndex [ 0, 2, 3, 1, -1, 2, 4, 5, 3, -1, 4, 6, 7, 5, -1, 6, 8, 9, 7, -1, 8, 10, 11, 9, -1, 10, 12, 13, 11, -1, 12, 14, 15, 13, -1, 14, 16, 17, 15, -1, 16, 18, 19, 17, -1, 18, 20, 21, 19, -1, 20, 22, 23, 21, -1, 22, 0, 1, 23, -1, 22, 20, 18, 16, 14, 12, 10, 8, 6, 4, 2, 0, -1, 1, 3, 5, 7, 9, 11, 13, 15, 17, 19, 21, 23, -1 ] } },
Shape { appearance Appearance { material Material { diffuseColor 0.830 0.680 0.280 specularColor 0.70 0.70 0.70 shininess 0.30 } } geometry IndexedFaceSet { solid FALSE coord Coordinate { point [ -0.1260 -0.1260 4.9606, 0.1260 -0.1260 4.9606, 0.1260 0.1260 4.9606, -0.1260 0.1260 4.9606, -0.1260 -0.1260 5.8268, 0.1260 -0.1260 5.8268, 0.1260 0.1260 5.8268, -0.1260 0.1260 5.8268 ] } coordIndex [ 0, 3, 2, 1, -1, 4, 5, 6, 7, -1, 0, 1, 5, 4, -1, 1, 2, 6, 5, -1, 2, 3, 7, 6, -1, 3, 0, 4, 7, -1 ] } },
Shape { appearance Appearance { material Material { diffuseColor 0.720 0.720 0.700 specularColor 0.80 0.80 0.80 shininess 0.30 } } geometry IndexedFaceSet { solid FALSE coord Coordinate { point [ 0.3740 -1.0000 4.9606, 0.3740 -1.0000 5.1378, 0.3239 -0.8130 4.9606, 0.3239 -0.8130 5.1378, 0.1870 -0.6761 4.9606, 0.1870 -0.6761 5.1378, 0.0000 -0.6260 4.9606, 0.0000 -0.6260 5.1378, -0.1870 -0.6761 4.9606, -0.1870 -0.6761 5.1378, -0.3239 -0.8130 4.9606, -0.3239 -0.8130 5.1378, -0.3740 -1.0000 4.9606, -0.3740 -1.0000 5.1378, -0.3239 -1.1870 4.9606, -0.3239 -1.1870 5.1378, -0.1870 -1.3239 4.9606, -0.1870 -1.3239 5.1378, -0.0000 -1.3740 4.9606, -0.0000 -1.3740 5.1378, 0.1870 -1.3239 4.9606, 0.1870 -1.3239 5.1378, 0.3239 -1.1870 4.9606, 0.3239 -1.1870 5.1378 ] } coordIndex [ 0, 2, 3, 1, -1, 2, 4, 5, 3, -1, 4, 6, 7, 5, -1, 6, 8, 9, 7, -1, 8, 10, 11, 9, -1, 10, 12, 13, 11, -1, 12, 14, 15, 13, -1, 14, 16, 17, 15, -1, 16, 18, 19, 17, -1, 18, 20, 21, 19, -1, 20, 22, 23, 21, -1, 22, 0, 1, 23, -1, 22, 20, 18, 16, 14, 12, 10, 8, 6, 4, 2, 0, -1, 1, 3, 5, 7, 9, 11, 13, 15, 17, 19, 21, 23, -1 ] } },
Shape { appearance Appearance { material Material { diffuseColor 0.830 0.680 0.280 specularColor 0.70 0.70 0.70 shininess 0.30 } } geometry IndexedFaceSet { solid FALSE coord Coordinate { point [ -0.1260 -1.1260 4.9606, 0.1260 -1.1260 4.9606, 0.1260 -0.8740 4.9606, -0.1260 -0.8740 4.9606, -0.1260 -1.1260 5.8268, 0.1260 -1.1260 5.8268, 0.1260 -0.8740 5.8268, -0.1260 -0.8740 5.8268 ] } coordIndex [ 0, 3, 2, 1, -1, 4, 5, 6, 7, -1, 0, 1, 5, 4, -1, 1, 2, 6, 5, -1, 2, 3, 7, 6, -1, 3, 0, 4, 7, -1 ] } },
Shape { appearance Appearance { material Material { diffuseColor 0.100 0.350 0.850 specularColor 0.30 0.30 0.30 shininess 0.30 } } geometry IndexedFaceSet { solid FALSE coord Coordinate { point [ -6.2008 -0.9449 4.9606, -2.4606 -0.9449 4.9606, -2.4606 0.9449 4.9606, -6.2008 0.9449 4.9606, -6.2008 -0.9449 8.8976, -2.4606 -0.9449 8.8976, -2.4606 0.9449 8.8976, -6.2008 0.9449 8.8976 ] } coordIndex [ 0, 3, 2, 1, -1, 4, 5, 6, 7, -1, 0, 1, 5, 4, -1, 1, 2, 6, 5, -1, 2, 3, 7, 6, -1, 3, 0, 4, 7, -1 ] } },
Shape { appearance Appearance { material Material { diffuseColor 0.830 0.680 0.280 specularColor 0.90 0.90 0.90 shininess 0.30 } } geometry IndexedFaceSet { solid FALSE coord Coordinate { point [ -5.5512 0.0000 8.8976, -5.5512 0.0000 9.2126, -5.5841 0.1657 8.8976, -5.5841 0.1657 9.2126, -5.6780 0.3062 8.8976, -5.6780 0.3062 9.2126, -5.8185 0.4001 8.8976, -5.8185 0.4001 9.2126, -5.9843 0.4331 8.8976, -5.9843 0.4331 9.2126, -6.1500 0.4001 8.8976, -6.1500 0.4001 9.2126, -6.2905 0.3062 8.8976, -6.2905 0.3062 9.2126, -6.3844 0.1657 8.8976, -6.3844 0.1657 9.2126, -6.4173 0.0000 8.8976, -6.4173 0.0000 9.2126, -6.3844 -0.1657 8.8976, -6.3844 -0.1657 9.2126, -6.2905 -0.3062 8.8976, -6.2905 -0.3062 9.2126, -6.1500 -0.4001 8.8976, -6.1500 -0.4001 9.2126, -5.9843 -0.4331 8.8976, -5.9843 -0.4331 9.2126, -5.8185 -0.4001 8.8976, -5.8185 -0.4001 9.2126, -5.6780 -0.3062 8.8976, -5.6780 -0.3062 9.2126, -5.5841 -0.1657 8.8976, -5.5841 -0.1657 9.2126 ] } coordIndex [ 0, 2, 3, 1, -1, 2, 4, 5, 3, -1, 4, 6, 7, 5, -1, 6, 8, 9, 7, -1, 8, 10, 11, 9, -1, 10, 12, 13, 11, -1, 12, 14, 15, 13, -1, 14, 16, 17, 15, -1, 16, 18, 19, 17, -1, 18, 20, 21, 19, -1, 20, 22, 23, 21, -1, 22, 24, 25, 23, -1, 24, 26, 27, 25, -1, 26, 28, 29, 27, -1, 28, 30, 31, 29, -1, 30, 0, 1, 31, -1, 30, 28, 26, 24, 22, 20, 18, 16, 14, 12, 10, 8, 6, 4, 2, 0, -1, 1, 3, 5, 7, 9, 11, 13, 15, 17, 19, 21, 23, 25, 27, 29, 31, -1 ] } },
Shape { appearance Appearance { material Material { diffuseColor 0.050 0.050 0.050 specularColor 0.15 0.15 0.15 shininess 0.30 } } geometry IndexedFaceSet { solid FALSE coord Coordinate { point [ -9.0354 -0.7677 5.0000, -7.1063 -0.7677 5.0000, -7.1063 0.7677 5.0000, -9.0354 0.7677 5.0000, -9.0354 -0.7677 5.5906, -7.1063 -0.7677 5.5906, -7.1063 0.7677 5.5906, -9.0354 0.7677 5.5906 ] } coordIndex [ 0, 3, 2, 1, -1, 4, 5, 6, 7, -1, 0, 1, 5, 4, -1, 1, 2, 6, 5, -1, 2, 3, 7, 6, -1, 3, 0, 4, 7, -1 ] } },
Shape { appearance Appearance { material Material { diffuseColor 0.600 0.610 0.640 specularColor 0.60 0.60 0.60 shininess 0.30 } } geometry IndexedFaceSet { solid FALSE coord Coordinate { point [ -8.8996 -1.1614 4.9606, -8.7421 -1.1614 4.9606, -8.7421 -0.7677 4.9606, -8.8996 -0.7677 4.9606, -8.8996 -1.1614 5.1575, -8.7421 -1.1614 5.1575, -8.7421 -0.7677 5.1575, -8.8996 -0.7677 5.1575 ] } coordIndex [ 0, 3, 2, 1, -1, 4, 5, 6, 7, -1, 0, 1, 5, 4, -1, 1, 2, 6, 5, -1, 2, 3, 7, 6, -1, 3, 0, 4, 7, -1 ] } },
Shape { appearance Appearance { material Material { diffuseColor 0.600 0.610 0.640 specularColor 0.60 0.60 0.60 shininess 0.30 } } geometry IndexedFaceSet { solid FALSE coord Coordinate { point [ -8.8996 0.7677 4.9606, -8.7421 0.7677 4.9606, -8.7421 1.1614 4.9606, -8.8996 1.1614 4.9606, -8.8996 0.7677 5.1575, -8.7421 0.7677 5.1575, -8.7421 1.1614 5.1575, -8.8996 1.1614 5.1575 ] } coordIndex [ 0, 3, 2, 1, -1, 4, 5, 6, 7, -1, 0, 1, 5, 4, -1, 1, 2, 6, 5, -1, 2, 3, 7, 6, -1, 3, 0, 4, 7, -1 ] } },
Shape { appearance Appearance { material Material { diffuseColor 0.600 0.610 0.640 specularColor 0.60 0.60 0.60 shininess 0.30 } } geometry IndexedFaceSet { solid FALSE coord Coordinate { point [ -8.3996 -1.1614 4.9606, -8.2421 -1.1614 4.9606, -8.2421 -0.7677 4.9606, -8.3996 -0.7677 4.9606, -8.3996 -1.1614 5.1575, -8.2421 -1.1614 5.1575, -8.2421 -0.7677 5.1575, -8.3996 -0.7677 5.1575 ] } coordIndex [ 0, 3, 2, 1, -1, 4, 5, 6, 7, -1, 0, 1, 5, 4, -1, 1, 2, 6, 5, -1, 2, 3, 7, 6, -1, 3, 0, 4, 7, -1 ] } },
Shape { appearance Appearance { material Material { diffuseColor 0.600 0.610 0.640 specularColor 0.60 0.60 0.60 shininess 0.30 } } geometry IndexedFaceSet { solid FALSE coord Coordinate { point [ -8.3996 0.7677 4.9606, -8.2421 0.7677 4.9606, -8.2421 1.1614 4.9606, -8.3996 1.1614 4.9606, -8.3996 0.7677 5.1575, -8.2421 0.7677 5.1575, -8.2421 1.1614 5.1575, -8.3996 1.1614 5.1575 ] } coordIndex [ 0, 3, 2, 1, -1, 4, 5, 6, 7, -1, 0, 1, 5, 4, -1, 1, 2, 6, 5, -1, 2, 3, 7, 6, -1, 3, 0, 4, 7, -1 ] } },
Shape { appearance Appearance { material Material { diffuseColor 0.600 0.610 0.640 specularColor 0.60 0.60 0.60 shininess 0.30 } } geometry IndexedFaceSet { solid FALSE coord Coordinate { point [ -7.8996 -1.1614 4.9606, -7.7421 -1.1614 4.9606, -7.7421 -0.7677 4.9606, -7.8996 -0.7677 4.9606, -7.8996 -1.1614 5.1575, -7.7421 -1.1614 5.1575, -7.7421 -0.7677 5.1575, -7.8996 -0.7677 5.1575 ] } coordIndex [ 0, 3, 2, 1, -1, 4, 5, 6, 7, -1, 0, 1, 5, 4, -1, 1, 2, 6, 5, -1, 2, 3, 7, 6, -1, 3, 0, 4, 7, -1 ] } },
Shape { appearance Appearance { material Material { diffuseColor 0.600 0.610 0.640 specularColor 0.60 0.60 0.60 shininess 0.30 } } geometry IndexedFaceSet { solid FALSE coord Coordinate { point [ -7.8996 0.7677 4.9606, -7.7421 0.7677 4.9606, -7.7421 1.1614 4.9606, -7.8996 1.1614 4.9606, -7.8996 0.7677 5.1575, -7.7421 0.7677 5.1575, -7.7421 1.1614 5.1575, -7.8996 1.1614 5.1575 ] } coordIndex [ 0, 3, 2, 1, -1, 4, 5, 6, 7, -1, 0, 1, 5, 4, -1, 1, 2, 6, 5, -1, 2, 3, 7, 6, -1, 3, 0, 4, 7, -1 ] } },
Shape { appearance Appearance { material Material { diffuseColor 0.600 0.610 0.640 specularColor 0.60 0.60 0.60 shininess 0.30 } } geometry IndexedFaceSet { solid FALSE coord Coordinate { point [ -7.3996 -1.1614 4.9606, -7.2421 -1.1614 4.9606, -7.2421 -0.7677 4.9606, -7.3996 -0.7677 4.9606, -7.3996 -1.1614 5.1575, -7.2421 -1.1614 5.1575, -7.2421 -0.7677 5.1575, -7.3996 -0.7677 5.1575 ] } coordIndex [ 0, 3, 2, 1, -1, 4, 5, 6, 7, -1, 0, 1, 5, 4, -1, 1, 2, 6, 5, -1, 2, 3, 7, 6, -1, 3, 0, 4, 7, -1 ] } },
Shape { appearance Appearance { material Material { diffuseColor 0.600 0.610 0.640 specularColor 0.60 0.60 0.60 shininess 0.30 } } geometry IndexedFaceSet { solid FALSE coord Coordinate { point [ -7.3996 0.7677 4.9606, -7.2421 0.7677 4.9606, -7.2421 1.1614 4.9606, -7.3996 1.1614 4.9606, -7.3996 0.7677 5.1575, -7.2421 0.7677 5.1575, -7.2421 1.1614 5.1575, -7.3996 1.1614 5.1575 ] } coordIndex [ 0, 3, 2, 1, -1, 4, 5, 6, 7, -1, 0, 1, 5, 4, -1, 1, 2, 6, 5, -1, 2, 3, 7, 6, -1, 3, 0, 4, 7, -1 ] } },
Shape { appearance Appearance { material Material { diffuseColor 0.250 0.250 0.250 specularColor 0.50 0.50 0.50 shininess 0.30 } } geometry IndexedFaceSet { solid FALSE coord Coordinate { point [ -8.5039 0.0000 5.5906, -8.5039 0.0000 5.5984, -8.5303 0.0810 5.5906, -8.5303 0.0810 5.5984, -8.5992 0.1311 5.5906, -8.5992 0.1311 5.5984, -8.6843 0.1311 5.5906, -8.6843 0.1311 5.5984, -8.7532 0.0810 5.5906, -8.7532 0.0810 5.5984, -8.7795 0.0000 5.5906, -8.7795 0.0000 5.5984, -8.7532 -0.0810 5.5906, -8.7532 -0.0810 5.5984, -8.6843 -0.1311 5.5906, -8.6843 -0.1311 5.5984, -8.5992 -0.1311 5.5906, -8.5992 -0.1311 5.5984, -8.5303 -0.0810 5.5906, -8.5303 -0.0810 5.5984 ] } coordIndex [ 0, 2, 3, 1, -1, 2, 4, 5, 3, -1, 4, 6, 7, 5, -1, 6, 8, 9, 7, -1, 8, 10, 11, 9, -1, 10, 12, 13, 11, -1, 12, 14, 15, 13, -1, 14, 16, 17, 15, -1, 16, 18, 19, 17, -1, 18, 0, 1, 19, -1, 18, 16, 14, 12, 10, 8, 6, 4, 2, 0, -1, 1, 3, 5, 7, 9, 11, 13, 15, 17, 19, -1 ] } },
Shape { appearance Appearance { material Material { diffuseColor 0.850 0.850 0.820 specularColor 0.20 0.20 0.20 shininess 0.30 } } geometry IndexedFaceSet { solid FALSE coord Coordinate { point [ -2.0866 1.6142 4.9606, -1.4567 1.6142 4.9606, -1.4567 1.9291 4.9606, -2.0866 1.9291 4.9606, -2.0866 1.6142 5.0984, -1.4567 1.6142 5.0984, -1.4567 1.9291 5.0984, -2.0866 1.9291 5.0984 ] } coordIndex [ 0, 3, 2, 1, -1, 4, 5, 6, 7, -1, 0, 1, 5, 4, -1, 1, 2, 6, 5, -1, 2, 3, 7, 6, -1, 3, 0, 4, 7, -1 ] } },
Shape { appearance Appearance { material Material { diffuseColor 0.850 0.080 0.050 specularColor 0.60 0.60 0.60 shininess 0.30 } } geometry IndexedFaceSet { solid FALSE coord Coordinate { point [ -1.9685 1.6339 5.0984, -1.5748 1.6339 5.0984, -1.5748 1.9094 5.0984, -1.9685 1.9094 5.0984, -1.9685 1.6339 5.1969, -1.5748 1.6339 5.1969, -1.5748 1.9094 5.1969, -1.9685 1.9094 5.1969 ] } coordIndex [ 0, 3, 2, 1, -1, 4, 5, 6, 7, -1, 0, 1, 5, 4, -1, 1, 2, 6, 5, -1, 2, 3, 7, 6, -1, 3, 0, 4, 7, -1 ] } },
Shape { appearance Appearance { material Material { diffuseColor 0.850 0.850 0.820 specularColor 0.20 0.20 0.20 shininess 0.30 } } geometry IndexedFaceSet { solid FALSE coord Coordinate { point [ -2.0866 -1.9291 4.9606, -1.4567 -1.9291 4.9606, -1.4567 -1.6142 4.9606, -2.0866 -1.6142 4.9606, -2.0866 -1.9291 5.0984, -1.4567 -1.9291 5.0984, -1.4567 -1.6142 5.0984, -2.0866 -1.6142 5.0984 ] } coordIndex [ 0, 3, 2, 1, -1, 4, 5, 6, 7, -1, 0, 1, 5, 4, -1, 1, 2, 6, 5, -1, 2, 3, 7, 6, -1, 3, 0, 4, 7, -1 ] } },
Shape { appearance Appearance { material Material { diffuseColor 0.100 0.750 0.150 specularColor 0.60 0.60 0.60 shininess 0.30 } } geometry IndexedFaceSet { solid FALSE coord Coordinate { point [ -1.9685 -1.9094 5.0984, -1.5748 -1.9094 5.0984, -1.5748 -1.6339 5.0984, -1.9685 -1.6339 5.0984, -1.9685 -1.9094 5.1969, -1.5748 -1.9094 5.1969, -1.5748 -1.6339 5.1969, -1.9685 -1.6339 5.1969 ] } coordIndex [ 0, 3, 2, 1, -1, 4, 5, 6, 7, -1, 0, 1, 5, 4, -1, 1, 2, 6, 5, -1, 2, 3, 7, 6, -1, 3, 0, 4, 7, -1 ] } },
Shape { appearance Appearance { material Material { diffuseColor 0.050 0.050 0.050 specularColor 0.20 0.20 0.20 shininess 0.30 } } geometry IndexedFaceSet { solid FALSE coord Coordinate { point [ -2.7165 -0.1890 4.9606, -2.4016 -0.1890 4.9606, -2.4016 0.1890 4.9606, -2.7165 0.1890 4.9606, -2.7165 -0.1890 5.1575, -2.4016 -0.1890 5.1575, -2.4016 0.1890 5.1575, -2.7165 0.1890 5.1575 ] } coordIndex [ 0, 3, 2, 1, -1, 4, 5, 6, 7, -1, 0, 1, 5, 4, -1, 1, 2, 6, 5, -1, 2, 3, 7, 6, -1, 3, 0, 4, 7, -1 ] } },
Shape { appearance Appearance { material Material { diffuseColor 0.600 0.610 0.640 specularColor 0.60 0.60 0.60 shininess 0.30 } } geometry IndexedFaceSet { solid FALSE coord Coordinate { point [ -2.7165 -0.3150 4.9606, -2.4016 -0.3150 4.9606, -2.4016 -0.1890 4.9606, -2.7165 -0.1890 4.9606, -2.7165 -0.3150 5.1575, -2.4016 -0.3150 5.1575, -2.4016 -0.1890 5.1575, -2.7165 -0.1890 5.1575 ] } coordIndex [ 0, 3, 2, 1, -1, 4, 5, 6, 7, -1, 0, 1, 5, 4, -1, 1, 2, 6, 5, -1, 2, 3, 7, 6, -1, 3, 0, 4, 7, -1 ] } },
Shape { appearance Appearance { material Material { diffuseColor 0.600 0.610 0.640 specularColor 0.60 0.60 0.60 shininess 0.30 } } geometry IndexedFaceSet { solid FALSE coord Coordinate { point [ -2.7165 0.1890 4.9606, -2.4016 0.1890 4.9606, -2.4016 0.3150 4.9606, -2.7165 0.3150 4.9606, -2.7165 0.1890 5.1575, -2.4016 0.1890 5.1575, -2.4016 0.3150 5.1575, -2.7165 0.3150 5.1575 ] } coordIndex [ 0, 3, 2, 1, -1, 4, 5, 6, 7, -1, 0, 1, 5, 4, -1, 1, 2, 6, 5, -1, 2, 3, 7, 6, -1, 3, 0, 4, 7, -1 ] } },
Shape { appearance Appearance { material Material { diffuseColor 0.050 0.050 0.050 specularColor 0.20 0.20 0.20 shininess 0.30 } } geometry IndexedFaceSet { solid FALSE coord Coordinate { point [ -10.0315 1.6142 4.9606, -9.6535 1.6142 4.9606, -9.6535 1.9291 4.9606, -10.0315 1.9291 4.9606, -10.0315 1.6142 5.1575, -9.6535 1.6142 5.1575, -9.6535 1.9291 5.1575, -10.0315 1.9291 5.1575 ] } coordIndex [ 0, 3, 2, 1, -1, 4, 5, 6, 7, -1, 0, 1, 5, 4, -1, 1, 2, 6, 5, -1, 2, 3, 7, 6, -1, 3, 0, 4, 7, -1 ] } },
Shape { appearance Appearance { material Material { diffuseColor 0.600 0.610 0.640 specularColor 0.60 0.60 0.60 shininess 0.30 } } geometry IndexedFaceSet { solid FALSE coord Coordinate { point [ -10.1575 1.6142 4.9606, -10.0315 1.6142 4.9606, -10.0315 1.9291 4.9606, -10.1575 1.9291 4.9606, -10.1575 1.6142 5.1575, -10.0315 1.6142 5.1575, -10.0315 1.9291 5.1575, -10.1575 1.9291 5.1575 ] } coordIndex [ 0, 3, 2, 1, -1, 4, 5, 6, 7, -1, 0, 1, 5, 4, -1, 1, 2, 6, 5, -1, 2, 3, 7, 6, -1, 3, 0, 4, 7, -1 ] } },
Shape { appearance Appearance { material Material { diffuseColor 0.600 0.610 0.640 specularColor 0.60 0.60 0.60 shininess 0.30 } } geometry IndexedFaceSet { solid FALSE coord Coordinate { point [ -9.6535 1.6142 4.9606, -9.5276 1.6142 4.9606, -9.5276 1.9291 4.9606, -9.6535 1.9291 4.9606, -9.6535 1.6142 5.1575, -9.5276 1.6142 5.1575, -9.5276 1.9291 5.1575, -9.6535 1.9291 5.1575 ] } coordIndex [ 0, 3, 2, 1, -1, 4, 5, 6, 7, -1, 0, 1, 5, 4, -1, 1, 2, 6, 5, -1, 2, 3, 7, 6, -1, 3, 0, 4, 7, -1 ] } },
Shape { appearance Appearance { material Material { diffuseColor 0.550 0.400 0.250 specularColor 0.20 0.20 0.20 shininess 0.30 } } geometry IndexedFaceSet { solid FALSE coord Coordinate { point [ -10.0315 -1.9291 4.9606, -9.6535 -1.9291 4.9606, -9.6535 -1.6142 4.9606, -10.0315 -1.6142 4.9606, -10.0315 -1.9291 5.1575, -9.6535 -1.9291 5.1575, -9.6535 -1.6142 5.1575, -10.0315 -1.6142 5.1575 ] } coordIndex [ 0, 3, 2, 1, -1, 4, 5, 6, 7, -1, 0, 1, 5, 4, -1, 1, 2, 6, 5, -1, 2, 3, 7, 6, -1, 3, 0, 4, 7, -1 ] } },
Shape { appearance Appearance { material Material { diffuseColor 0.600 0.610 0.640 specularColor 0.60 0.60 0.60 shininess 0.30 } } geometry IndexedFaceSet { solid FALSE coord Coordinate { point [ -10.1575 -1.9291 4.9606, -10.0315 -1.9291 4.9606, -10.0315 -1.6142 4.9606, -10.1575 -1.6142 4.9606, -10.1575 -1.9291 5.1575, -10.0315 -1.9291 5.1575, -10.0315 -1.6142 5.1575, -10.1575 -1.6142 5.1575 ] } coordIndex [ 0, 3, 2, 1, -1, 4, 5, 6, 7, -1, 0, 1, 5, 4, -1, 1, 2, 6, 5, -1, 2, 3, 7, 6, -1, 3, 0, 4, 7, -1 ] } },
Shape { appearance Appearance { material Material { diffuseColor 0.600 0.610 0.640 specularColor 0.60 0.60 0.60 shininess 0.30 } } geometry IndexedFaceSet { solid FALSE coord Coordinate { point [ -9.6535 -1.9291 4.9606, -9.5276 -1.9291 4.9606, -9.5276 -1.6142 4.9606, -9.6535 -1.6142 4.9606, -9.6535 -1.9291 5.1575, -9.5276 -1.9291 5.1575, -9.5276 -1.6142 5.1575, -9.6535 -1.6142 5.1575 ] } coordIndex [ 0, 3, 2, 1, -1, 4, 5, 6, 7, -1, 0, 1, 5, 4, -1, 1, 2, 6, 5, -1, 2, 3, 7, 6, -1, 3, 0, 4, 7, -1 ] } },
Shape { appearance Appearance { material Material { diffuseColor 0.830 0.680 0.280 specularColor 0.70 0.70 0.70 shininess 0.30 } } geometry IndexedFaceSet { solid FALSE coord Coordinate { point [ -11.3465 0.3858 4.9606, -11.0945 0.3858 4.9606, -11.0945 0.6378 4.9606, -11.3465 0.6378 4.9606, -11.3465 0.3858 7.3228, -11.0945 0.3858 7.3228, -11.0945 0.6378 7.3228, -11.3465 0.6378 7.3228 ] } coordIndex [ 0, 3, 2, 1, -1, 4, 5, 6, 7, -1, 0, 1, 5, 4, -1, 1, 2, 6, 5, -1, 2, 3, 7, 6, -1, 3, 0, 4, 7, -1 ] } },
Shape { appearance Appearance { material Material { diffuseColor 0.830 0.680 0.280 specularColor 0.70 0.70 0.70 shininess 0.30 } } geometry IndexedFaceSet { solid FALSE coord Coordinate { point [ -11.3465 -0.6378 4.9606, -11.0945 -0.6378 4.9606, -11.0945 -0.3858 4.9606, -11.3465 -0.3858 4.9606, -11.3465 -0.6378 7.3228, -11.0945 -0.6378 7.3228, -11.0945 -0.3858 7.3228, -11.3465 -0.3858 7.3228 ] } coordIndex [ 0, 3, 2, 1, -1, 4, 5, 6, 7, -1, 0, 1, 5, 4, -1, 1, 2, 6, 5, -1, 2, 3, 7, 6, -1, 3, 0, 4, 7, -1 ] } },
Shape { appearance Appearance { material Material { diffuseColor 0.080 0.080 0.080 specularColor 0.25 0.25 0.25 shininess 0.30 } } geometry IndexedFaceSet { solid FALSE coord Coordinate { point [ -11.7126 -0.9843 4.9606, -10.7283 -0.9843 4.9606, -10.7283 0.9843 4.9606, -11.7126 0.9843 4.9606, -11.7126 -0.9843 5.9449, -10.7283 -0.9843 5.9449, -10.7283 0.9843 5.9449, -11.7126 0.9843 5.9449 ] } coordIndex [ 0, 3, 2, 1, -1, 4, 5, 6, 7, -1, 0, 1, 5, 4, -1, 1, 2, 6, 5, -1, 2, 3, 7, 6, -1, 3, 0, 4, 7, -1 ] } }
] }
