<svg viewBox="0 0 1540 800" xmlns="http://www.w3.org/2000/svg" font-family="Segoe UI, Arial, sans-serif">
<defs><marker id="arr" markerWidth="10" markerHeight="10" refX="8" refY="5" orient="auto"><path d="M0,0 L10,5 L0,10 z" fill="#607D8B"/></marker></defs>
<rect width="1540" height="800" fill="#FFFFFF"/>
<text x="40" y="44" font-size="24" font-weight="bold" fill="#263238">Из чего собирается контроллер</text>
<text x="40" y="68" font-size="13" fill="#78909C">Плата-носитель связывает покупные модули дорожками. Оранжевое — реле, бирюзовое — датчики, розовое — питание.</text>
<rect x="380" y="100" width="760" height="590" rx="14" fill="#F1F8E9" stroke="#2E7D32" stroke-width="3"/>
<text x="760" y="126" font-size="15" fill="#1B5E20" text-anchor="middle" font-weight="bold">ПЛАТА-НОСИТЕЛЬ 150×110 мм</text>
<text x="760" y="146" font-size="12" fill="#33691E" text-anchor="middle">модули вставляются в гнёзда; паяются только гнёзда, клеммники и мелочь</text>
<rect x="400" y="162" width="146" height="57" rx="8" fill="#E3F2FD" stroke="#1E88E5" stroke-width="2"/>
<text x="473" y="187" font-size="13" font-weight="bold" fill="#263238" text-anchor="middle">ESP32 DevKitC</text>
<text x="473" y="209" font-size="11" fill="#455A64" text-anchor="middle">гнездо 2×19</text>
<rect x="556" y="162" width="100" height="57" rx="8" fill="#FFF8E1" stroke="#F9A825" stroke-width="2"/>
<text x="606" y="187" font-size="13" font-weight="bold" fill="#263238" text-anchor="middle">PCF8574P</text>
<text x="606" y="209" font-size="11" fill="#455A64" text-anchor="middle">DIP-16</text>
<rect x="667" y="162" width="100" height="57" rx="8" fill="#FFF8E1" stroke="#F9A825" stroke-width="2"/>
<text x="717" y="187" font-size="13" font-weight="bold" fill="#263238" text-anchor="middle">74HC4051</text>
<text x="717" y="209" font-size="11" fill="#455A64" text-anchor="middle">DIP-16</text>
<rect x="777" y="162" width="105" height="57" rx="8" fill="#E3F2FD" stroke="#1E88E5" stroke-width="2"/>
<text x="830" y="187" font-size="13" font-weight="bold" fill="#263238" text-anchor="middle">DS3231</text>
<text x="830" y="209" font-size="11" fill="#455A64" text-anchor="middle">гнездо 1×6</text>
<rect x="892" y="162" width="105" height="57" rx="8" fill="#E3F2FD" stroke="#1E88E5" stroke-width="2"/>
<text x="945" y="187" font-size="13" font-weight="bold" fill="#263238" text-anchor="middle">SD шилд</text>
<text x="945" y="209" font-size="11" fill="#455A64" text-anchor="middle">гнездо 2×8</text>
<rect x="400" y="242" width="137" height="57" rx="8" fill="#FCE4EC" stroke="#D81B60" stroke-width="2"/>
<text x="468" y="267" font-size="13" font-weight="bold" fill="#263238" text-anchor="middle">DC-DC 12→5 В</text>
<text x="468" y="289" font-size="11" fill="#455A64" text-anchor="middle">TO-220</text>
<rect x="547" y="242" width="146" height="57" rx="8" fill="#FCE4EC" stroke="#D81B60" stroke-width="2"/>
<text x="620" y="267" font-size="13" font-weight="bold" fill="#263238" text-anchor="middle">DC-DC 5→3,3 В</text>
<text x="620" y="289" font-size="11" fill="#455A64" text-anchor="middle">TO-220</text>
<rect x="703" y="242" width="146" height="57" rx="8" fill="#E3F2FD" stroke="#1E88E5" stroke-width="2"/>
<text x="776" y="267" font-size="13" font-weight="bold" fill="#263238" text-anchor="middle">Кнопка сброса</text>
<text x="776" y="289" font-size="11" fill="#455A64" text-anchor="middle">6×6</text>
<rect x="859" y="242" width="166" height="57" rx="8" fill="#ECEFF1" stroke="#90A4AE" stroke-width="2"/>
<text x="943" y="267" font-size="13" font-weight="bold" fill="#263238" text-anchor="middle">Защита входа</text>
<text x="943" y="289" font-size="11" fill="#455A64" text-anchor="middle">F1 · F2 · Q1 · TVS</text>
<rect x="400" y="322" width="720" height="57" rx="8" fill="#ECEFF1" stroke="#90A4AE" stroke-width="2"/>
<text x="760" y="347" font-size="13" font-weight="bold" fill="#263238" text-anchor="middle">Паяется на плату</text>
<text x="760" y="369" font-size="11" fill="#455A64" text-anchor="middle">держатели F1/F2, MOSFET, TVS, 6 конденсаторов, 11 резисторов, кнопка, штыри, гнёзда, панельки, клеммники</text>
<rect x="400" y="398" width="320" height="73" rx="8" fill="#E8F5E9" stroke="#43A047" stroke-width="2"/>
<text x="560" y="423" font-size="13" font-weight="bold" fill="#263238" text-anchor="middle">Клеммники 5,08 мм 2P ×5</text>
<text x="560" y="445" font-size="11" fill="#455A64" text-anchor="middle">12 В вход · 12 В клапаны · 12 В насос</text>
<text x="560" y="461" font-size="11" fill="#455A64" text-anchor="middle">фоторезистор · датчик дождя</text>
<rect x="736" y="398" width="305" height="89" rx="8" fill="#E8F5E9" stroke="#43A047" stroke-width="2"/>
<text x="889" y="423" font-size="13" font-weight="bold" fill="#263238" text-anchor="middle">Клеммы к реле: своя на модуль</text>
<text x="889" y="445" font-size="11" fill="#455A64" text-anchor="middle">8 кан.: +5 В · GND · IN1…IN8</text>
<text x="889" y="461" font-size="11" fill="#455A64" text-anchor="middle">1 кан.: +5 В · GND · насос</text>
<text x="889" y="477" font-size="11" fill="#455A64" text-anchor="middle">2 кан.: +5 В · GND · налив · дренаж</text>
<rect x="400" y="503" width="720" height="73" rx="8" fill="#E8F5E9" stroke="#43A047" stroke-width="2"/>
<text x="760" y="528" font-size="13" font-weight="bold" fill="#263238" text-anchor="middle">Клеммники 5,08 мм 3P ×10</text>
<text x="760" y="550" font-size="11" fill="#455A64" text-anchor="middle">8 × датчик влажности (3V3/5V по JP1 · GND · AOUT)</text>
<text x="760" y="566" font-size="11" fill="#455A64" text-anchor="middle">расходомер · реле насоса</text>
<text x="760" y="674" font-size="13" fill="#1B5E20" text-anchor="middle" font-weight="bold">Ни одного провода «навесом»: все связи между модулями — дорожки платы</text>
<rect x="40" y="120" width="190" height="57" rx="8" fill="#FCE4EC" stroke="#D81B60" stroke-width="2"/>
<text x="135" y="145" font-size="13" font-weight="bold" fill="#263238" text-anchor="middle">Источник 12 В 5 А</text>
<text x="135" y="167" font-size="11" fill="#455A64" text-anchor="middle">на клеммник J1</text>
<path d="M230 148 L380 148" fill="none" stroke="#D81B60" stroke-width="4" marker-end="url(#arr)"/>
<rect x="40" y="330" width="218" height="73" rx="8" fill="#FFF3E0" stroke="#FB8C00" stroke-width="2"/>
<text x="149" y="355" font-size="13" font-weight="bold" fill="#263238" text-anchor="middle">Реле 8 кан. 5 В, H/L</text>
<text x="149" y="377" font-size="11" fill="#455A64" text-anchor="middle">клапаны V1…V8</text>
<text x="149" y="393" font-size="11" fill="#455A64" text-anchor="middle">перемычки в положении L</text>
<rect x="40" y="440" width="254" height="73" rx="8" fill="#FFF3E0" stroke="#FB8C00" stroke-width="2"/>
<text x="167" y="465" font-size="13" font-weight="bold" fill="#263238" text-anchor="middle">Реле 1 + 2 кан. 5 В, H/L</text>
<text x="167" y="487" font-size="11" fill="#455A64" text-anchor="middle">насос · налив · дренаж</text>
<text x="167" y="503" font-size="11" fill="#455A64" text-anchor="middle">перемычки в положении H</text>
<path d="M736 442 L728 442 L728 495 L350 495 L350 366 L258 366" fill="none" stroke="#FB8C00" stroke-width="3"/>
<path d="M350 495 L350 476 L294 476" fill="none" stroke="#FB8C00" stroke-width="3"/>
<text x="44" y="425" font-size="11" fill="#E65100" text-anchor="start">провода к клеммам реле</text>
<rect x="1200" y="120" width="228" height="57" rx="8" fill="#E0F7FA" stroke="#00838F" stroke-width="2"/>
<text x="1314" y="145" font-size="13" font-weight="bold" fill="#263238" text-anchor="middle">Датчики влажности ×8</text>
<text x="1314" y="167" font-size="11" fill="#455A64" text-anchor="middle">ёмкостные v2.0, 3 провода</text>
<rect x="1200" y="210" width="290" height="73" rx="8" fill="#E0F7FA" stroke="#00838F" stroke-width="2"/>
<text x="1345" y="235" font-size="13" font-weight="bold" fill="#263238" text-anchor="middle">Дождь · Свет</text>
<text x="1345" y="257" font-size="11" fill="#455A64" text-anchor="middle">дождь — сухой контакт, как кнопка</text>
<text x="1345" y="273" font-size="11" fill="#455A64" text-anchor="middle">свет — выносной фоторезистор</text>
<rect x="1200" y="300" width="205" height="57" rx="8" fill="#E0F7FA" stroke="#00838F" stroke-width="2"/>
<text x="1302" y="325" font-size="13" font-weight="bold" fill="#263238" text-anchor="middle">Расходомер YF-S201</text>
<text x="1302" y="347" font-size="11" fill="#455A64" text-anchor="middle">5 В; делитель на плате</text>
<rect x="40" y="640" width="213" height="57" rx="8" fill="#F3E5F5" stroke="#8E24AA" stroke-width="2"/>
<text x="146" y="665" font-size="13" font-weight="bold" fill="#263238" text-anchor="middle">Клапаны 12 В ×8</text>
<text x="146" y="687" font-size="11" fill="#455A64" text-anchor="middle">на контакты реле 8 кан.</text>
<rect x="40" y="720" width="281" height="57" rx="8" fill="#F3E5F5" stroke="#8E24AA" stroke-width="2"/>
<text x="180" y="745" font-size="13" font-weight="bold" fill="#263238" text-anchor="middle">Насос · налив · дренаж 12 В</text>
<text x="180" y="767" font-size="11" fill="#455A64" text-anchor="middle">на контакты реле 1 + 2 кан.</text>
<path d="M1200 148 L1172 148" fill="none" stroke="#00838F" stroke-width="3"/>
<path d="M1200 246 L1172 246" fill="none" stroke="#00838F" stroke-width="3"/>
<path d="M1200 328 L1172 328" fill="none" stroke="#00838F" stroke-width="3"/>
<path d="M1172 148 L1172 539 L1120 539" fill="none" stroke="#00838F" stroke-width="3"/>
<path d="M40 366 L26 366 L26 668 L40 668" fill="none" stroke="#8E24AA" stroke-width="3" stroke-dasharray="6 4"/>
<path d="M40 476 L14 476 L14 748 L40 748" fill="none" stroke="#8E24AA" stroke-width="3" stroke-dasharray="6 4"/>
<text x="40" y="626" font-size="11" fill="#6A1B9A" text-anchor="start">силовые провода 12 В — от контактов реле, минуя плату</text>
</svg>